<!--?xml version="1.0" encoding="UTF-8" standalone="no"?-->
<svg xmlns:svg="http://www.w3.org/2000/svg" xmlns="http://www.w3.org/2000/svg" viewBox="8 10 50 50" width="200" height="300" id="yao-ming" version="1.1">
  <title>Yao Ming</title>
  <g id="g1013">
    <path id="path1578" d="m 719.30201,1699.5046 c -4.34613,-1.9282 -20.13045,-18.2447 -25.81384,-26.6843 -13.43706,-19.9535 -24.96208,-41.5056 -33.38401,-62.4291 C 652.91123,1592.521 643.93689,1576 641.42261,1576 c -2.18504,0 -30.87132,39.3714 -37.4019,51.3334 -1.60144,2.9333 -4.5646,8.3333 -6.5848,12 -5.59145,10.1485 -14.96981,27.4476 -17.67161,32.5965 -3.89125,7.4159 -14.22792,20.0348 -17.71146,21.622 -5.91147,2.6935 -7.38616,0.8148 -7.38616,-9.4093 0,-7.1775 0.89008,-11.4828 3.93676,-19.0418 5.4319,-13.477 16.50796,-34.6044 23.89468,-45.5786 3.3927,-5.0406 7.17241,-10.6811 8.39936,-12.5347 1.22693,-1.8535 2.72693,-3.734 3.33333,-4.1788 0.60639,-0.4448 1.70253,-1.7973 2.43587,-3.0057 0.73333,-1.2083 3.27936,-4.9826 5.65783,-8.3871 2.37846,-3.4045 5.53906,-8.7159 7.02354,-11.8029 1.48448,-3.0871 3.22899,-6.513 3.87667,-7.613 2.62311,-4.4549 12.10863,-26.5789 12.10863,-28.2421 0,-2.1271 -5.48111,-8.2529 -10.08107,-11.2669 -11.20669,-7.343 -24.1374,-22.8342 -32.15102,-38.5176 -6.14257,-12.0216 -13.0846,-41.174 -16.49316,-69.2616 -4.18657,-34.4986 -12.99949,-54.3887 -40.60809,-91.6496 -6.6,-8.9074 -13.73244,-18.6325 -15.84988,-21.6113 -2.11743,-2.9788 -6.68845,-8.7239 -10.15783,-12.7668 -3.46937,-4.0429 -8.93693,-10.7532 -12.15012,-14.9119 -3.2132,-4.1586 -15.18541,-19.4586 -26.60494,-34 -21.16675,-26.9533 -25.72972,-33.1261 -42.70507,-57.7722 -9.96494,-14.4678 -34.00194,-50.6454 -36.76755,-55.3382 -6.75168,-11.4563 -12.97067,-21.4389 -13.70257,-21.9951 -0.4825,-0.3667 -2.2151,-3.3667 -3.85023,-6.6667 -1.63515,-3.3 -5.93404,-10.9702 -9.55312,-17.0449 -3.61907,-6.0748 -7.25647,-13.5748 -8.08311,-16.6667 -0.82664,-3.0919 -1.99813,-6.2275 -2.60332,-6.968 -2.58056,-3.1574 -3.74241,-30.6495 -2.43958,-57.726 1.43469,-29.81705 2.33062,-34.24877 11.10436,-54.92771 9.36014,-22.06107 11.29088,-27.43853 13.31588,-37.08718 2.54709,-12.13631 2.5513,-15.08337 0.0353,-24.74288 -3.42436,-13.14703 -12.40908,-23.78477 -31.37403,-37.14629 -5.10121,-3.594 -11.08797,-9.1697 -13.30389,-12.39044 -3.99805,-5.81098 -4.02685,-5.98231 -3.75279,-22.32863 0.3226,-19.23989 0.46923,-18.90872 -12.93589,-29.21775 -11.9936,-9.22353 -14.37472,-13.67816 -13.31564,-24.91105 0.44029,-4.66998 1.97657,-10.79608 3.41395,-13.61355 1.43736,-2.81747 2.61338,-5.78891 2.61338,-6.6032 0,-0.81429 5.25,-10.88564 11.66667,-22.38077 17.30727,-31.00508 20.77595,-39.80687 20.89935,-53.0322 0.0997,-10.69591 0.0555,-10.84104 -5.23268,-17.13579 -8.87544,-10.56485 -12.8618,-16.66247 -15.6063,-23.87167 -2.36404,-6.20986 -3.38308,-10.20066 -7.71284,-30.20528 -2.23193,-10.31212 -3.06458,-38.62805 -1.39186,-47.33333 3.02422,-15.73898 3.05206,-16.58823 0.70585,-21.53251 -1.26461,-2.66497 -2.60809,-7.31036 -2.98552,-10.32311 -0.37741,-3.01274 -4.36936,-12.97772 -8.87097,-22.14438 -4.50162,-9.16667 -9.26724,-19.21558 -10.59028,-22.3309 -1.32304,-3.11533 -5.2126,-9.11533 -8.64347,-13.33333 -12.17999,-14.97439 -12.73689,-16.06828 -15.78383,-31.00244 -4.10865,-20.13804 -4.46867,-23.74876 -4.58663,-46 -0.11573,-21.84147 0.0237,-23.07927 3.83236,-34 7.37885,-21.15776 27.68511,-47.77784 54.41051,-71.32832 12.1257,-10.68519 14.81016,-12.66584 31.52308,-23.25848 10.26808,-6.50791 17.39391,-13.83769 20.36454,-20.94737 1.13222,-2.7098 4.12181,-7.4448 6.64353,-10.52222 4.40325,-5.37359 7.62284,-12.35152 9.98089,-21.63202 0.60862,-2.39529 3.24156,-6.71825 5.85099,-9.60658 2.60944,-2.88834 5.92743,-7.57038 7.37329,-10.40452 2.5843,-5.06563 7.60967,-9.02371 18.15666,-14.3005 14.84613,-7.42772 44.69085,-28.89693 78.95088,-56.79443 14.16392,-11.53348 30.14355,-22.491312 41.04577,-28.14661 2.2,-1.141202 10.6,-5.510648 18.66667,-9.709877 8.06667,-4.199228 22.46667,-10.941626 32,-14.983103 9.53333,-4.041478 21.53334,-9.294643 26.66667,-11.673699 5.13333,-2.379057 10.81028,-4.788796 12.61545,-5.354976 1.80516,-0.56618 11.70516,-5.077927 22,-10.026103 10.29483,-4.948176 20.21788,-9.440884 22.05122,-9.983795 1.83333,-0.542911 3.96426,-1.488329 4.73541,-2.100929 2.57204,-2.043246 19.65068,-3.886734 48.59792,-5.245716 37.43108,-1.757274 59.74926,-3.638892 71.61046,-6.0373934 13.39873,-2.7094095 16.1139,-2.4971179 27.2514,2.1307064 l 9.80481,4.074075 66.66667,-0.407408 c 61.4588,-0.375583 67.44785,-0.21283 76.66667,2.083425 5.5,1.369959 12.1,3.301513 14.66666,4.292345 6.05307,2.336712 15.71463,4.163502 34.66668,6.554703 17.4681,2.20397 20.7261,2.811104 30,5.5906 15.3171,4.590692 28.7854,9.905741 41.3334,16.311545 7.3333,3.743713 16.6333,8.022292 20.6666,9.507955 4.0334,1.485661 9.224,3.575137 11.5349,4.643278 2.3108,1.068142 5.1074,1.942075 6.2147,1.942075 1.1072,0 5.2165,1.151095 9.1318,2.557989 3.9152,1.406894 15.8186,5.350455 26.452,8.763471 39.6853,12.73792 57.0797,23.139592 84.7482,50.678542 9.5781,9.53333 21.0129,22.13333 25.4106,28 17.5477,23.40929 21.4105,28.70985 27.1745,37.28943 3.3,4.91193 6.6097,9.63125 7.3549,10.48734 0.7452,0.85611 6.7291,9.95656 13.2974,20.22323 6.5684,10.26667 12.4086,18.86667 12.9784,19.11111 0.5698,0.24445 1.036,1.1301 1.036,1.96814 0,0.83803 3.2408,6.93803 7.2016,13.55557 3.9609,6.61752 8.8253,16.83185 10.8097,22.69852 2.9181,8.62689 10.658,24.93884 18.0307,38 2.5265,4.47593 9.2913,20.1068 9.2913,21.46872 0,0.80388 0.8284,3.35228 1.8411,5.6631 2.9534,6.74047 7.0158,19.60942 8.6918,27.53484 1.445,6.83258 2.628,15.44143 5.4646,39.76508 0.6264,5.37079 2.0874,12.57079 3.2468,16.00001 3.1426,9.29545 7.3054,27.05521 10.2122,43.56825 1.4199,8.06667 2.7939,15.86667 3.0532,17.33333 0.2594,1.46667 0.8908,5.66667 1.4034,9.33334 1.5741,11.26097 3.4152,20.83584 6.2812,32.66666 2.7281,11.26136 3.8934,14.60508 15.3348,44 8.4456,21.69837 8.0349,20.40881 12.1036,38.00001 l 3.7006,16 -0.021,58.66666 c -0.02,55.21927 -1.2109,84.01257 -4.8239,116.66667 -1.8674,16.87723 -6.4758,28.47231 -19.4877,49.03227 -3.85,6.08333 -7,11.28395 -7,11.55691 0,0.27297 -2.7149,4.60206 -6.0332,9.62022 -7.6593,11.58323 -14.7297,26.13711 -16.4308,33.82154 -2.5197,11.38317 -4.0329,20.6823 -4.8765,29.96907 -0.4663,5.13333 -2.0507,13.45028 -3.5211,18.48209 -1.4703,5.03181 -3.5084,12.83181 -4.5292,17.33333 -1.0208,4.50152 -2.7475,11.78458 -3.8371,16.18458 -3.2625,13.17421 -5.9368,34.37841 -8.037,63.72591 -1.0914,15.2492 -2.2754,28.1968 -2.6311,28.7724 -0.3557,0.5756 -1.2711,4.9541 -2.034,9.7298 -2.2596,14.1445 -7.2608,27.8748 -16.2647,44.6522 L 1342,1155.3334 v 21.3333 c 0,11.7333 0.7374,28.2333 1.6387,36.6667 0.9012,8.4333 2.2984,24.6333 3.1047,36 1.7465,24.6194 7.2724,65.0355 9.9872,73.0466 1.0649,3.1423 1.9378,6.4423 1.94,7.3333 0,0.891 3.8428,7.9694 8.5348,15.7298 7.2405,11.9752 15.4613,29.1721 15.4613,32.3428 0,0.5004 1.1621,3.4533 2.5824,6.562 1.4203,3.1087 3.5108,8.8793 4.6457,12.8236 1.1348,3.9443 2.585,7.8443 3.2224,8.6667 0.6375,0.8224 1.7986,3.8952 2.5802,6.8285 1.814,6.8084 8.2916,24.9177 9.5384,26.6667 0.5228,0.7333 1.7201,4.0333 2.6608,7.3333 0.9405,3.3 2.4793,7.5 3.4194,9.3333 0.9402,1.8334 2.1588,5.431 2.708,7.9947 0.5492,2.5637 1.7691,6.4637 2.7106,8.6667 0.9416,2.2029 2.7073,7.6053 3.924,12.0053 1.2165,4.4 2.7193,9.2 3.3396,10.6667 0.6202,1.4666 1.5206,4.4666 2.0009,6.6666 0.4803,2.2 1.6492,5.8 2.5977,8 0.9484,2.2 2.497,6.7 3.4411,10 0.9441,3.3 2.4308,7.2 3.3039,8.6667 0.8729,1.4667 2.3564,5.0667 3.2965,8 0.9401,2.9333 2.1635,5.9333 2.7185,6.6667 3.7214,4.9164 14.1106,36.2841 16.2318,49.0078 5.1629,30.9695 -1.9667,94.9491 -11.7146,105.1236 -4.6386,4.8418 -11.6433,5.3699 -13.9541,1.0522 -1.8983,-3.5471 -1.1285,-19.593 2.1515,-44.8468 2.156,-16.5994 2.2673,-20.9739 0.8826,-34.6667 -1.8666,-18.4592 -3.9629,-30.0415 -6.5024,-35.926 -1.0101,-2.3408 -2.3572,-7.0431 -2.9936,-10.4496 -0.6364,-3.4065 -1.8248,-6.8613 -2.6409,-7.6775 -0.816,-0.816 -1.4837,-2.4705 -1.4837,-3.6768 0,-1.2061 -1.2326,-5.7361 -2.739,-10.0666 -1.5064,-4.3304 -3.5888,-10.8736 -4.6274,-14.5403 -1.0387,-3.6667 -2.4252,-7.8667 -3.0812,-9.3333 -0.6559,-1.4667 -4.3274,-12.5667 -8.1587,-24.6667 -3.8313,-12.1 -8.0209,-25 -9.3103,-28.6667 -1.2893,-3.6666 -3.0753,-9.0666 -3.9686,-12 -0.8935,-2.9333 -2.1616,-6.5333 -2.8183,-8 -0.6567,-1.4666 -2.1563,-6.1056 -3.3327,-10.3086 -1.1762,-4.2032 -2.6994,-7.9886 -3.3846,-8.412 -0.6852,-0.4236 -1.241,-1.7847 -1.235,-3.0247 0.036,-7.5633 -16.7269,-51.5195 -21.9621,-57.588 -0.9489,-1.1 -3.9447,-6.5 -6.6571,-12 -2.7124,-5.5 -5.5445,-11.1371 -6.2937,-12.5268 -4.9547,-9.1907 -14.0678,-44.0781 -15.7097,-60.1399 -2.449,-23.9584 -2.9971,-86.992 -1.4202,-163.3333 1.9972,-96.6897 3.1602,-123.7597 5.7571,-134.00001 4.0299,-15.89148 10.4931,-32.46751 18.9756,-48.66667 1.728,-3.3 3.1772,-7.42212 3.2205,-9.16026 0.076,-3.03552 -0.2238,-3.1363 -7.588,-2.55353 -8.6832,0.68716 -32.9759,9.3097 -38.2339,13.57083 -2.8555,2.31412 -3.7103,4.57324 -4.8468,12.80963 -2.3258,16.85501 -2.9681,71.88571 -1.3306,114.00001 2.4748,63.6494 3.992,122.5903 4.1113,159.7262 0.1216,37.8212 0.059,38.1529 -8.8024,46.2965 -3.5684,3.2796 -18.8565,21.2571 -26.5642,31.2375 -2.2,2.8486 -7.9,10.0618 -12.6667,16.0293 -4.7667,5.9675 -9.8667,12.4321 -11.3333,14.3657 -3.3134,4.3684 -19.3038,25.2201 -28.8938,37.6781 -3.9516,5.1334 -11.2627,15.249 -16.2469,22.4792 -11.8258,17.1548 -17.148,22.4866 -21.8996,21.9388 -2.561,-0.2952 -4.3617,-1.7913 -6.1293,-5.0928 l -2.503,-4.6746 6.1647,-10.4272 c 5.9565,-10.075 12.8993,-19.7304 44.1745,-61.4347 8.0667,-10.7566 16.3161,-21.7845 18.3321,-24.5064 2.016,-2.7219 7.2993,-9.7489 11.7407,-15.6156 12.3315,-16.2888 26.2875,-36.1191 32.0799,-45.5828 l 5.214,-8.5187 -1.316,-44.9493 c -1.9431,-66.3707 -2.6666,-80.9502 -4.7119,-94.9492 -4.3081,-29.488 -5.0668,-45.6588 -4.1911,-89.3333 1.2082,-60.25855 2.2312,-81.66741 4.0085,-83.88341 2.2914,-2.85704 11.3822,-6.45596 18.8438,-7.45999 3.6667,-0.49337 10.2667,-2.01109 14.6667,-3.37269 4.4,-1.3616 13.1,-4.05712 19.3333,-5.99007 20.9599,-6.49957 33.6762,-13.7288 44.3619,-25.21978 4.9353,-5.30727 18.0551,-23.98488 22.4805,-32.00414 4.3438,-7.8709 15.8912,-31.64264 19.2672,-39.66358 4.6114,-10.95604 6.1163,-31.44035 6.7398,-91.73973 0.5577,-53.92029 -0.1147,-59.68493 -8.9608,-76.88328 -5.0024,-9.72522 -6.7108,-14.75494 -11.9275,-35.11672 -2.6535,-10.35753 -2.8677,-10.93764 -8.1245,-22 -4.3515,-9.15712 -14.4607,-18.87305 -21.5522,-20.71385 -3.0897,-0.80202 -7.4177,-1.98523 -9.6177,-2.62936 -2.2,-0.64414 -8.2,-1.56592 -13.3333,-2.0484 -7.6283,-0.71699 -10.7836,-0.36652 -17.2715,1.91836 -9.0164,3.17533 -12.9275,6.6098 -30.4979,26.78121 -17.6969,20.3166 -26.3872,27.56934 -34.6386,28.90834 -3.7823,0.6138 -5.0666,0.30046 -5.7171,-1.39483 -1.2397,-3.23045 9.255,-23.42632 16.3626,-31.48814 0.9698,-1.1 7.1028,-8.6 13.6288,-16.66666 22.6328,-27.97558 25.2311,-29.33334 56.1337,-29.33334 H 1374 l 7.5538,4.28099 c 11.5472,6.54429 19.0409,15.31663 30.4661,35.66452 5.6684,10.0954 12.8421,31.18219 13.6265,40.0545 0.2219,2.5095 1.0988,4 2.3536,4 1.4972,0 2.1,-1.90992 2.3979,-7.59799 0.4268,-8.15105 -4.6891,-27.43494 -9.3033,-35.06868 -1.3299,-2.2 -2.4202,-4.79532 -2.423,-5.76738 -0.013,-3.52509 -11.3241,-21.07828 -18.3372,-28.44866 -13.3854,-14.06774 -34.5602,-22.3852 -57.0969,-22.42778 -14.2683,-0.0269 -22.3341,2.28403 -31.9041,9.14111 -6.6857,4.7904 -27.4832,25.735 -31.2983,31.51967 -1.1193,1.69716 -3.9851,5.86772 -6.3684,9.2679 -2.3833,3.40019 -4.3333,6.51546 -4.3333,6.92284 0,1.54872 -7.9075,10.05353 -36.0935,38.81998 -34.4274,35.13629 -42.4631,46.02747 -60.7267,82.30565 -4.0264,7.99804 -4.029,8.00011 -10.6036,8.45371 -3.617,0.24953 -12.7262,-0.20047 -20.2429,-1 -7.5167,-0.79953 -20.1167,-2.13855 -28,-2.97557 -7.8833,-0.83703 -15.3205,-2.0245 -16.527,-2.63883 -3.021,-1.53823 -4.8409,-10.59912 -6.4825,-32.27603 -1.364,-18.00968 -2.0233,-22.42474 -6.2065,-41.56328 -5.8967,-26.97738 -15.8796,-51.79651 -28.0767,-69.80323 -23.6196,-34.87008 -39.2832,-51.52424 -70.62797,-75.09482 -12.60634,-9.47971 -24.75634,-19.32658 -27,-21.88195 l -4.07934,-4.64612 -0.0314,-41.62028 c -0.0279,-36.89988 -0.3248,-42.72342 -2.61856,-51.3469 -3.24096,-12.1845 -6.68083,-17.14462 -13.08369,-18.86605 -2.71317,-0.72944 -8.50166,-2.29575 -12.86333,-3.48067 -10.94549,-2.97356 -20.48232,-8.01869 -40.17692,-21.25426 -9.27992,-6.23648 -17.11404,-11.33906 -17.40917,-11.33906 -0.29513,0 -2.77468,-1.40633 -5.51011,-3.12518 -8.9011,-5.59315 -22.71808,-9.50495 -32.9735,-9.3353 -7.51099,0.12427 -13.23835,1.49854 -29.33334,7.03856 -34.32043,11.8134 -46.27141,15.57324 -58.66667,18.45682 -19.01977,4.42466 -46.12032,8.12246 -70.62498,9.63658 -31.78659,1.96408 -41.59931,5.38267 -72.70835,25.33042 -7.7,4.9374 -17.71454,10.84754 -22.25452,13.13366 -8.16708,4.11256 -10.89435,5.2001 -29.07882,11.59554 -16.92958,5.95412 -40.8568,11.01446 -59.33333,12.54838 -32.5526,2.7025 -42.75728,4.99408 -58.82021,13.20875 -23.06361,11.79484 -43.37341,30.98411 -56.22617,53.12404 -4.83173,8.32306 -12.94653,26.49683 -12.96184,29.02915 -0.004,0.74723 -0.92861,3.12361 -2.05354,5.28087 -5.40355,10.36226 -11.33748,77.10514 -11.2897,126.98248 0.0279,29.09789 1.38916,29.23557 30.68479,3.10348 20.27124,-18.08221 37.81645,-31.77912 50,-39.03318 12.60132,-7.50278 32.1256,-14.94749 42.97555,-16.38678 5.73523,-0.76082 7.32191,-0.4482 10.80841,2.12949 2.24752,1.66165 4.41738,3.88372 4.82191,4.93791 0.40453,1.05418 -1.36631,6.34585 -3.93517,11.75925 -6.6909,14.0997 -6.3663,16.73835 3.96969,32.26892 13.09641,19.67831 12.84471,19.36439 14.33277,17.87632 0.75911,-0.7591 1.25202,-7.59825 1.13754,-15.7832 -0.35411,-25.3159 3.88264,-45.07885 10.72601,-50.0332 5.75804,-4.1686 9.66259,-4.27341 14.28552,-0.38348 4.99868,4.20613 5.22204,6.85431 1.21111,14.35949 -2.69608,5.04487 -2.97399,7.27381 -2.74322,22.00206 0.14124,9.01367 1.1581,21.01367 2.25968,26.66667 1.10159,5.65298 2.28574,12.67816 2.63144,15.61149 0.34572,2.93333 1.03319,8.66479 1.52772,12.73656 0.71066,5.85131 0.46603,7.76267 -1.16696,9.11793 -4.7026,3.9028 -14.56522,-2.44038 -17.39521,-11.18782 -0.47451,-1.46667 -2.37476,-4.46667 -4.2228,-6.66667 l -3.36007,-4 0.87683,10.66667 c 0.77272,9.40021 0.5806,10.93452 -1.61819,12.92268 -2.28457,2.06576 -2.85529,2.08153 -6.76686,0.1871 -4.02972,-1.95165 -8.84684,-8.26565 -20.41064,-26.75306 -2.40012,-3.83714 -5.47003,-7.3277 -6.82203,-7.7568 -3.26444,-1.0361 -7.95757,2.45933 -19.21017,14.30766 -20.95572,22.06512 -32.99686,37.88086 -33.31549,43.75908 -0.31064,5.73079 8.80803,10.18736 31.40263,15.34742 11.88852,2.71504 28.9427,9.38 40.40876,15.79218 9.00608,5.0365 15.09599,10.44006 23.0101,20.41683 8.6016,10.84343 12.58114,12.75331 12.58114,6.03795 0,-4.04012 -4.11288,-10.78431 -14.63806,-24.00308 -9.45926,-11.88006 -8.6788,-15.9111 3.34293,-17.26612 5.6626,-0.63826 6.34597,-0.35536 11.02587,4.56422 8.38277,8.81212 19.8099,33.92563 25.68309,56.44394 4.55527,17.46528 5.22933,53.36565 1.36919,72.9224 -5.62306,28.4882 -10.66823,45.77324 -22.69206,77.74427 -2.34425,6.23333 -7.22374,17.43564 -10.84329,24.894 -3.61955,7.45837 -6.58469,14.05837 -6.58921,14.66667 -0.004,0.6083 -0.94414,2.90093 -2.08802,5.09473 -3.33566,6.39727 -2.76477,13.31367 1.60524,19.44748 2.10338,2.9523 4.42432,6.2421 5.15766,7.3107 1.78669,2.6034 -1.8603,9.1276 -5.3779,9.6206 -1.62006,0.2271 -5.83917,-2.4479 -11.04045,-7 -4.63008,-4.0521 -9.21589,-7.3675 -10.19068,-7.3675 -2.37171,0 -3.39097,3.0178 -3.39097,10.0398 0,5.0347 0.90782,6.9126 6.71528,13.891 3.6934,4.438 7.3068,8.0692 8.02978,8.0692 0.72299,0 3.85111,-2.3148 6.95139,-5.1441 12.31199,-11.2356 16.69699,-11.1887 28.47596,0.3042 7.27027,7.0937 8.63253,9.1168 8.2662,12.2766 -0.61116,5.2715 -9.64664,11.8174 -20.96431,15.188 -11.47161,3.4164 -14.49872,3.3913 -25.68833,-0.2125 -6.77223,-2.1812 -10.73184,-4.5064 -15.63041,-9.1786 -8.9979,-8.5822 -12.32463,-16.4774 -12.60188,-29.9077 -0.27254,-13.2023 1.99706,-19.01999 12.48109,-31.99258 9.77311,-12.09292 16.91677,-23.05587 18.03635,-27.67927 0.49002,-2.0236 1.42449,-4.009 2.07658,-4.41202 0.6521,-0.40302 1.19987,-2.64735 1.21728,-4.9874 0.0501,-6.74308 5.53734,-18.35055 13.40676,-28.36041 12.84104,-16.33369 13.98059,-20.12889 9.19688,-30.62976 -1.48392,-3.25741 -3.26906,-7.42449 -3.967,-9.26018 -1.68012,-4.41908 -5.6781,-4.28711 -9.96749,0.32904 -6.93372,7.46193 -24.22039,32.78902 -31.33203,45.90526 -1.46281,2.6979 -5.57064,8.40319 -9.12852,12.67842 -7.30204,8.77428 -8.58132,10.90547 -11.52801,19.20469 -11.34559,31.95439 -14.5856,41.57861 -16.11839,47.87831 -8.48161,34.8591 -11.50738,42.6802 -17.76356,45.9154 -3.24905,1.6801 -4.17991,1.7 -6.32025,0.1349 -2.18004,-1.594 -2.50731,-3.6463 -2.48922,-15.6095 0.0181,-12.0035 0.48022,-14.8182 3.59463,-21.8962 1.9656,-4.4671 4.2572,-12.2671 5.09243,-17.33331 2.09913,-12.73265 5.44719,-23.18274 11.84043,-36.9569 C 441.54673,954.46101 444,948.89814 444,948.55917 c 0,-0.33898 1.41749,-2.85346 3.15,-5.58774 1.73249,-2.73428 6.33949,-10.37141 10.23777,-16.97141 16.71978,-28.30752 40.26263,-56.90772 54.2789,-65.93882 3.85,-2.48065 7,-5.00924 7,-5.61906 0,-0.60984 0.62877,-1.10879 1.39729,-1.10879 1.99388,0 7.53297,-6.44483 10.75793,-12.51703 6.67778,-12.57344 9.13191,-34.75317 5.30418,-47.93769 -3.04234,-10.47923 -8.03666,-9.79049 -8.13168,1.12139 -0.0256,2.93333 -0.91027,11.82352 -1.96604,19.75597 -3.13046,23.52019 -7.60786,30.15564 -32.49563,48.15804 -14.51303,10.49789 -24.30383,15.31695 -40.68188,20.02368 -10.78092,3.09823 -14.00729,3.39564 -36.83674,3.39564 -21.20276,0 -25.28837,0.32225 -26.77353,2.11176 -2.68601,3.23647 0.0597,6.27147 7.56867,8.36615 13.21432,3.68621 13.08333,6.61394 -0.81018,18.10832 -9.9864,8.26194 -11.09325,9.71462 -17.33333,22.74905 -3.66615,7.65795 -6.66573,14.5553 -6.66573,15.32744 0,0.77215 -1.21495,4.83891 -2.69988,9.03726 -2.59744,7.34373 -4.19696,13.20937 -11.53495,42.30007 -3.44547,13.6592 -3.57795,25.5053 -0.4026,36 4.40601,14.562 8.6102,26.0273 14.5276,39.6184 3.72707,8.5604 6.77649,15.89 6.77649,16.288 0,0.398 2.7,5.6049 6,11.5709 3.3,5.9659 6,11.3636 6,11.9948 0,1.9571 10.60399,18.6997 18.48791,29.1906 7.55803,10.0571 32.21062,41.4284 33.53194,42.6706 2.75862,2.5933 56.55436,74.9108 77.31349,103.9324 16.35679,22.867 18.01929,25.2375 26.39708,37.6383 25.84997,38.263 28.32103,43.251 33.23877,67.096 11.53584,55.9344 17.80654,81.4522 21.44298,87.2597 12.90656,20.612 37.5988,34.9221 76.25451,44.1927 10.57412,2.5358 16.52136,3.0522 36,3.126 14.34886,0.055 27.18382,-0.6132 33.33333,-1.7335 19.54553,-3.5607 45.49699,-12.0593 57.64858,-18.8789 1.27338,-0.7147 3.0903,-1.2994 4.03761,-1.2994 3.84272,0 22.03643,-9.9086 28.92836,-15.755 4.04904,-3.4347 16.56897,-14.8196 27.82207,-25.2999 24.75341,-23.0532 38.86936,-33.9929 43.07337,-33.3813 4.83017,0.7026 5.98257,7.8882 2.43905,15.2082 -7.67212,15.8484 -32.44924,38.781 -65.94904,61.0391 -10.98413,7.2981 -35.36493,21.3239 -45.33333,26.0792 -5.13333,2.4489 -10.83333,5.2195 -12.66667,6.1569 -6.6861,3.4187 -20.88921,7.5635 -36.07843,10.5286 -16.91736,3.3024 -18.58824,3.9232 -18.58824,6.9061 0,1.0951 8.67391,10.552 19.27536,21.0153 10.60146,10.4634 19.90146,20.671 20.66667,22.6836 3.03688,7.9876 0.53034,15.4859 -5.17667,15.4859 -4.17553,0 -7.80165,-2.1511 -15.4809,-9.1835 -3.69356,-3.3824 -8.79356,-7.9441 -11.33334,-10.137 -2.53978,-2.1931 -10.39364,-9.0931 -17.45302,-15.3334 -15.3897,-13.6042 -25.23574,-18.9445 -48.19431,-26.1396 -9.51911,-2.9832 -11.21287,-0.714 -6.30379,8.4452 1.46667,2.7366 2.66667,5.616 2.66667,6.399 0,5.532 21.51729,51.5984 31.42717,67.2826 2.54842,4.0334 5.20499,8.6834 5.9035,10.3334 0.69849,1.65 1.88485,3 2.63633,3 0.75148,0 1.36633,0.5978 1.36633,1.3285 0,0.7307 3.08731,5.6552 6.86068,10.9433 9.34995,13.1035 13.39564,21.5012 12.88862,26.753 -0.35924,3.721 -0.96138,4.3512 -4.41596,4.6217 -2.2,0.1721 -5.8141,-0.4917 -8.03134,-1.4753 z m -331.467,-825.30577 c 2.37868,-2.86613 3.3459,-13.41325 1.53957,-16.78841 -0.91083,-1.70191 -5.42715,-4.68591 -10.48717,-6.92903 -22.972,-10.18352 -23.07595,-10.51553 -7.98043,-25.48949 20.30413,-20.14062 48.74536,-39.61432 66.42636,-45.48212 11.62423,-3.85775 27.17812,-6.36538 34.66667,-5.58904 34.45939,3.57242 38.67301,1.47418 18.26667,-9.09617 -10.37412,-5.37372 -40.51563,-17.51589 -56.27122,-22.66822 -11.40811,-3.73064 -24.25788,-4.59123 -30.89204,-2.06892 -9.56425,3.63632 -29.87168,21.97814 -51.80887,46.79416 -18.81817,21.28768 -18.49844,20.70528 -18.23248,33.21128 0.32478,15.27099 2.0927,18.68177 11.02051,21.26145 6.49496,1.87672 8.08467,3.13358 15.25076,12.05754 9.66159,12.03162 12.18396,14.59133 18.82619,19.10484 5.80804,3.94666 7.54541,4.2487 9.67548,1.68213 z m 69.911,-14.2942 c 19.36233,-6.51455 34.56764,-13.34133 40.50961,-18.18779 1.60726,-1.31092 4.75726,-4.716 7,-7.56682 4.95087,-6.29323 5.66383,-14.96796 1.53714,-18.70256 -4.34495,-3.93214 -14.75507,-6.25954 -28.12608,-6.28819 -19.41718,-0.0416 -31.7728,3.98037 -50,16.27589 -11.36861,7.66891 -26.00001,22.89976 -26.00001,27.06523 0,2.16831 10.19212,12.69555 13.80752,14.26151 5.79063,2.50812 20.89537,-10e-4 41.27182,-6.85727 z m 135.07401,532.80897 c -1.18434,-1.8076 -2.1737,-3.7576 -2.19858,-4.3333 -0.0249,-0.5759 -1.20452,-3.4469 -2.62143,-6.3803 -1.41691,-2.9333 -2.59655,-6.0497 -2.62143,-6.9252 -0.1601,-5.6336 -16.50653,-39.815 -25.57306,-53.4749 -2.09303,-3.1535 -3.81587,-6.1535 -3.82854,-6.6667 -0.0301,-1.2191 -14.60633,-24.881 -24.08742,-39.1016 -6.9396,-10.4087 -38.62479,-50.1739 -47.14288,-59.1649 -7.50704,-7.9238 -28.95138,-34.1231 -36.24944,-44.2873 -15.76939,-21.9624 -20.49522,-36.4681 -20.50071,-62.926 -0.005,-23.6549 3.26071,-37.4881 11.80404,-50.0017 5.39637,-7.9043 9.52635,-12.0237 14.77605,-14.7385 3.44396,-1.7809 3.96734,-1.7254 6.11532,0.6481 3.48759,3.8537 2.03806,15.7274 -3.25204,26.6387 -10.6258,21.9167 -10.82948,42.658 -0.69757,71.0357 6.39023,17.8979 11.62367,25.5442 36.78677,53.7473 22.96704,25.7417 26.59626,30.0169 37.43186,44.0943 16.2699,21.1375 41.63976,57.3019 48.03125,68.4679 13.55764,23.6852 22.43523,48.553 24.33019,68.1534 1.44355,14.9313 -4.78035,23.948 -10.50238,15.215 z m 332.42525,-17.0469 c -5.15261,-6.5259 -5.57803,-8.7648 -2.82211,-14.852 1.3649,-3.0147 3.86666,-8.7813 5.55944,-12.8147 1.6928,-4.0333 4.48922,-10.3932 6.21428,-14.1329 1.72506,-3.7397 3.13647,-7.1802 3.13647,-7.6454 0,-0.4652 1.8,-4.5617 4,-9.1034 2.2,-4.5416 4.0037,-8.9012 4.00822,-9.6879 0.004,-0.7867 0.77396,-2.9304 1.70988,-4.7637 0.93592,-1.8333 2.54029,-6.0333 3.56529,-9.3333 1.02499,-3.3 2.27784,-6.6 2.78411,-7.3334 1.25742,-1.8214 10.18872,-34.0624 19.39112,-70 9.52164,-37.1842 12.43573,-48.0837 13.17598,-49.2814 0.4103,-0.6639 1.31015,-3.7972 1.99968,-6.9628 0.68954,-3.1657 3.06864,-12.3558 5.2869,-20.4224 8.32407,-30.2704 8.31367,-59.7784 -0.0343,-97.3334 -8.35216,-37.5739 -10.01575,-57.87878 -5.16829,-63.0819 3.80552,-4.08475 5.74206,-3.66721 9.65589,2.08192 3.82067,5.61227 11.92377,28.81958 14.31557,40.99998 0.864,4.4 2.3895,11.6 3.3899,16 2.2252,9.7866 5.3959,30.4402 8.0852,52.6667 1.6668,13.7757 1.741,18.9794 0.4277,30 -0.8738,7.3333 -2.2086,14.5192 -2.966,15.9686 -0.7575,1.4494 -1.8377,4.4494 -2.4006,6.6667 -0.5628,2.2172 -3.3916,10.9314 -6.2862,19.3647 -5.3285,15.5248 -10.4526,31.9651 -14.12945,45.3333 -1.10932,4.0334 -3.88351,13.9334 -6.16485,22 -2.28134,8.0667 -4.98396,17.6667 -6.00582,21.3334 -8.58653,30.8104 -24.10196,79.0344 -26.14648,81.2666 -0.63808,0.6967 -1.16014,2.0844 -1.16014,3.0839 0,1.7037 -1.34575,4.8263 -10.76692,24.9828 -4.75239,10.1677 -12.49751,19.3333 -16.33698,19.3333 -1.67664,0 -4.33677,-1.8246 -6.31752,-4.3333 z m -49.09623,-1.78 c -6.67905,-8.4911 -5.37914,-11.1439 24.11816,-49.22 19.4942,-25.1638 29.68955,-58.5189 38.51314,-126 7.60341,-58.1494 5.96212,-122.6122 -3.70035,-145.3333 -2.11788,-4.9802 -4.41331,-15.4832 -4.41331,-20.1936 0,-3.9998 0.17371,-4.1272 4.64007,-3.4024 5.77479,0.9371 13.03274,6.3579 16.59383,12.3935 4.123,6.988 6.32096,16.5937 8.84841,38.6701 2.05612,17.9595 2.13372,23.8642 0.71839,54.6666 -4.40984,95.9739 -13.36676,145.7893 -33.05947,183.8658 -10.09728,19.5233 -24.35345,38.1569 -38.05053,49.7338 -10.10634,8.5422 -11.03287,8.8564 -14.20834,4.8195 z m -246.81569,-53.757 c -12.40799,-2.7037 -14.41575,-3.3241 -21.33334,-6.5919 -11.91036,-5.6262 -26.32971,-19.6383 -32.22299,-31.3128 -7.54905,-14.9546 -21.96696,-34.4757 -53.83645,-72.8916 -20.11201,-24.2434 -24.13463,-30.3833 -25.25825,-38.553 -1.5157,-11.0204 1.08969,-16.7004 13.24272,-28.8701 24.30582,-24.3393 44.28032,-34.5198 88.74164,-45.2294 7.7,-1.8547 18.2,-4.5858 23.33333,-6.0691 29.5992,-8.5528 56.61879,-15.6946 70.66667,-18.6786 6.6,-1.402 14.4,-3.1545 17.33333,-3.8945 6.81219,-1.7185 50.89916,-6.7097 59.10574,-6.6915 8.47907,0.019 35.55263,4.8062 56.2276,9.9428 30.78801,7.6492 57.51019,20.4042 68.88419,32.8798 4.97918,5.4615 9.56078,15.5916 10.51852,23.257 1.68412,13.4793 -3.55368,43.8924 -11.0061,63.9066 -5.75818,15.4641 -17.43768,39.3779 -24.41997,50 -11.33701,17.2467 -27.89529,31.5901 -48.04277,41.6164 -9.8428,4.8983 -26.04554,11.7169 -27.84211,11.7169 -0.80371,0 -2.50313,0.5863 -3.77652,1.3029 -10.31143,5.8028 -59.92175,18.1027 -86.31524,21.4001 -6.6,0.8246 -15.3,2.1031 -19.33334,2.8412 -14.46533,2.6469 -42.33658,2.6056 -54.66666,-0.081 z m 42.50756,-19.3449 c 7.05417,-1.035 18.64424,-2.5729 25.7557,-3.4175 36.61695,-4.349 74.22265,-14.8942 103.73674,-29.0894 18.29293,-8.7982 25.31705,-13.8135 38.88963,-27.7676 19.8627,-20.421 29.3241,-33.0272 31.05956,-41.3833 1.80604,-8.6961 -2.78431,-6.4229 -13.28252,6.5777 -9.83954,12.185 -32.8785,25.8119 -68,40.2201 -6.6,2.7076 -14.1,5.8586 -16.66667,7.0021 -9.42732,4.2003 -38.24364,14.0421 -46.4758,15.8732 -4.6617,1.0369 -8.9085,2.1527 -9.43735,2.4796 -3.40064,2.1017 -33.21929,4.9973 -58.32845,5.664 l -29.57494,0.7854 -7.06196,-4.5312 c -7.85781,-5.0418 -13.50896,-9.7505 -31.12151,-25.931 -26.38237,-24.2372 -38.00738,-32.4775 -37.99682,-26.9335 0.004,2.1697 7.93749,13.7745 17.99682,26.3255 11.93916,14.8965 14.87038,18.168 28.24721,31.5259 14.1428,14.1229 23.591,19.5185 39.08613,22.3211 13.49781,2.4413 18.16917,2.4806 33.17423,0.2789 z m 30.38954,-37.3421 c 3.06007,-1.2741 5.84968,-3.0616 6.19912,-3.9722 0.34944,-0.9107 0.3092,-5.7188 -0.0895,-10.6848 l -0.72476,-9.0291 -4.8077,0.665 c -2.64422,0.3657 -7.67,1.3717 -11.16837,2.2355 -5.70621,1.409 -6.66657,2.2105 -9.33333,7.7901 -3.58336,7.4973 -7.1668,8.5708 -12.10979,3.6278 -4.41809,-4.4181 -6.43636,-4.2963 -11.42176,0.6891 -3.32535,3.3253 -3.84132,4.5758 -2.73845,6.6365 2.04672,3.8243 8.37296,4.9893 25.29736,4.6584 10.97746,-0.2146 16.91388,-0.9579 20.8971,-2.6163 z m 28.08432,-9.6001 c 6.41242,-4.0429 9.70326,-13.3929 6.71971,-19.0922 -1.89159,-3.6134 -8.95696,-6.0602 -13.90976,-4.8171 -2.9976,0.7523 -3.12471,1.2894 -3.12471,13.2032 0,6.8305 0.4066,12.8257 0.90356,13.3226 1.10531,1.1054 5.40335,-0.09 9.4112,-2.6165 z m 29.68524,-12.7726 c 2.56667,-1.1674 6.31667,-2.8871 8.33334,-3.8216 5.27163,-2.4427 4.73197,-6.6423 -1.58712,-12.3512 -5.22462,-4.7201 -11.50811,-6.8703 -17.57156,-6.0128 -2.63812,0.3731 -3.247,1.3344 -3.60272,5.6879 -0.61072,7.4744 5.54368,20.5153 8.95782,18.9813 0.44196,-0.1986 2.90358,-1.3162 5.47024,-2.4836 z m 36.51153,-17.0738 c 7.32173,-8.1043 6.53746,-10.097 -5.51998,-14.0253 -9.06045,-2.9519 -10.99154,-1.5896 -10.99154,7.7541 0,12.6031 8.03421,15.6545 16.51152,6.2712 z m -189.35801,-17.4263 c 1.93223,-1.5199 3.53472,-3.4699 3.5611,-4.3333 0.0264,-0.8635 1.47246,-3.3122 3.21354,-5.4416 l 3.16559,-3.8716 6.38964,4.2323 c 15.22352,10.0836 23.34424,8.444 30.06203,-6.0698 2.11116,-4.5612 4.31281,-8.5862 4.89257,-8.9445 0.57976,-0.3584 3.71839,1.6877 6.97473,4.5467 3.25634,2.859 7.17858,5.2238 8.71608,5.2551 3.43734,0.07 12.22248,-8.2223 13.31258,-12.5656 1.14201,-4.5501 4.1859,-5.1744 10.12801,-2.0772 2.90827,1.5158 7.74979,2.6996 11.04127,2.6996 5.09857,0 6.3723,-0.6192 9.78181,-4.7556 3.06573,-3.7192 4.07973,-6.5176 4.65319,-12.8418 0.43929,-4.8445 1.6004,-8.9514 2.89633,-10.2444 1.99397,-1.9894 2.71691,-1.5587 9.24627,5.5085 6.59236,7.1354 7.4965,7.6667 13.04837,7.6667 7.68753,0 10.91583,-3.3585 13.30752,-13.8442 1.3384,-5.8679 2.55473,-8.1937 4.82771,-9.2316 3.9426,-1.8002 9.337,1.9812 12.63864,8.8595 2.56385,5.3413 4.64449,5.8896 13.26404,3.4957 2.98873,-0.8301 6.52529,-3.2941 8.95012,-6.2358 l 4.00891,-4.8635 7.06902,3.5766 c 11.14766,5.6402 17.72676,4.351 20.25802,-3.9697 2.15564,-7.086 8.5327,-7.2547 15.68965,-0.4151 4.30695,4.1159 7.01307,4.8065 10.41641,2.658 1.50703,-0.9513 2.11363,-4.583 2.461,-14.7335 0.50356,-14.7145 -1.00352,-18.6298 -7.17105,-18.6298 -3.88972,0 -5.90824,2.6083 -6.87281,8.881 -0.93934,6.1086 -2.55855,8.4524 -5.83938,8.4524 -3.58536,0 -9.10484,-5.4807 -9.58665,-9.5193 -0.72877,-6.1087 -3.2504,-7.8141 -11.55436,-7.8141 -4.16355,0 -8.29008,0.72 -9.17008,1.6 -0.88,0.88 -1.6,4.0786 -1.6,7.108 0,4.4904 -0.60749,5.8332 -3.28788,7.2677 -4.44877,2.3809 -7.37879,-0.092 -7.37879,-6.2266 0,-8.2753 -1.69569,-9.7491 -11.21698,-9.7491 -9.70346,0 -10.75002,0.8187 -11.98638,9.3768 -1.0152,7.0271 -5.21221,14.6232 -8.07964,14.6232 -2.53327,0 -5.43225,-4.5163 -7.27479,-11.3333 -2.0806,-7.6979 -2.98274,-8.6009 -8.84168,-8.8502 -13.6829,-0.5822 -12.99237,-1.0703 -16.58008,11.7206 -3.36293,11.9896 -6.47196,16.4629 -11.44194,16.4629 -4.11668,0 -5.45047,-2.2386 -6.49827,-10.9067 -0.50351,-4.1653 -1.69165,-8.2175 -2.64031,-9.0048 -2.78417,-2.3107 -9.53305,-0.1405 -14.04729,4.517 -3.85752,3.9799 -4.29269,5.366 -5.50212,17.5248 -1.39627,14.0371 -4.52495,25.8697 -6.84024,25.8697 -0.77115,0 -3.36388,-2.0801 -5.76165,-4.6225 -4.54848,-4.8228 -6.13027,-11.0743 -5.79924,-22.9199 0.0852,-3.0484 -0.2505,-6.1984 -0.74595,-7 -2.29865,-3.7193 -18.78128,0.2763 -23.20805,5.6259 -1.95706,2.3651 -1.67402,8.8227 1.03198,23.545 1.4302,7.7813 1.357,8.7959 -0.74556,10.3334 -3.36638,2.4615 -3.94669,2.2591 -10.29209,-3.5899 -5.37057,-4.9504 -6.49856,-7.1822 -10.12775,-20.0386 -0.62656,-2.2196 -2.02036,-3.4472 -4.17146,-3.6739 -3.60396,-0.3799 -15.56819,6.5984 -16.79523,9.796 -0.43209,1.1261 0.1932,5.0781 1.38955,8.7824 3.67444,11.3772 2.46148,18.4288 -3.16999,18.4288 -4.65059,0 -6.94676,-3.3405 -7.34291,-10.6823 -0.65744,-12.1847 -5.22597,-13.1432 -17.61019,-3.6947 -9.1135,6.9531 -10.6652,14.1562 -5.28906,24.5525 5.49946,10.6348 20.37033,15.7876 28.07417,9.7277 z m -82.64863,-35.2365 c 0.67388,-2.2 2.03595,-5.8907 3.02684,-8.2016 0.99088,-2.3108 1.8016,-4.8919 1.8016,-5.7358 0,-3.635 6.16654,-12.0248 9.33334,-12.6984 1.83333,-0.3899 12.03333,-0.6069 22.66666,-0.4823 19.7881,0.232 28.07068,-1.1563 45.66675,-7.6544 28.85063,-10.6545 90.65056,-31.8751 105.66659,-36.2834 5.13333,-1.507 16.53333,-4.3957 25.33333,-6.4193 14.38447,-3.3077 18.31854,-3.6636 38.96243,-3.5245 20.16194,0.1357 23.31936,-0.1344 25.88902,-2.2152 1.64768,-1.3342 2.59861,-3.2245 2.17608,-4.3256 -1.12206,-2.924 -18.7057,-5.1495 -40.36086,-5.1084 -27.23995,0.052 -52.54288,5.0893 -86.66667,17.2542 -9.38662,3.3462 -21.91666,7.2555 -36.66666,11.4397 -6.96667,1.9762 -16.56667,4.7171 -21.33334,6.0909 -4.76666,1.3737 -18.1272,4.3334 -29.69007,6.5772 -24.85601,4.8231 -34.64714,7.7054 -46.1809,13.5943 -9.38602,4.7924 -26.39718,20.3275 -30.01047,27.4066 -2.15065,4.2134 -2.1214,4.5845 0.76661,9.723 3.64426,6.4841 7.73276,6.7233 9.61972,0.563 z m 397.68017,-4.3673 c -1.35855,-2.1982 -5.8858,-24.8891 -7.5084,-37.6327 -0.88705,-6.9667 -2.18673,-15.3667 -2.88819,-18.6667 -11.1243,-52.3341 -19.647,-72.6895 -39.91544,-95.3333 -13.92128,-15.55283 -33.98148,-35.72717 -42.53969,-42.78178 -38.40773,-31.65981 -38.52169,-31.72805 -70.29078,-42.09148 -14.61294,-4.76691 -19.36186,-8.00728 -18.78286,-12.81628 1.00082,-8.31243 18.29501,-12.51203 31.46491,-7.64072 38.31144,14.1707 92.62828,58.68088 123.25502,101.00186 18.46691,25.5182 26.7537,46.2015 32.9848,82.3284 6.44083,37.3428 7.01972,58.7508 1.85776,68.7033 -2.6562,5.1213 -6.13201,7.3647 -7.63713,4.9294 z M 597.33334,1044.5004 c -8.46265,-6.0586 -10.66666,-8.7746 -10.66666,-13.1446 0,-2.2987 0.88092,-5.3441 1.9576,-6.7676 1.07666,-1.4235 1.97666,-3.5823 2,-4.7974 0.0875,-4.5554 18.75952,-17.7771 34.82923,-24.66254 22.3392,-9.57177 40.34213,-12.16173 53.21317,-7.65543 8.60067,3.01122 18.77983,3.78986 24.80811,1.89767 11.73962,-3.68488 23.19189,-14.325 23.19189,-21.54723 0,-1.8398 -1.65,-6.5929 -3.66667,-10.56248 -5.2212,-10.2773 -9.09684,-12.12062 -28.15821,-13.39256 -22.99512,-1.53441 -30.07841,-3.89368 -29.23947,-9.73897 0.45548,-3.17354 11.33784,-10.79599 18.39768,-12.88651 2.56667,-0.76003 9.16667,-1.71751 14.66667,-2.12772 19.28248,-1.43817 35.429,6.00728 42.22129,19.46901 3.27259,6.48598 3.80107,9.22591 4.21422,21.84867 0.50841,15.5338 -0.22246,18.73828 -6.59158,28.90064 -6.48937,10.35424 -26.65032,24.47155 -37.35554,26.15755 -2.53088,0.3986 -11.36756,-0.79 -20.26172,-2.7253 -18.77262,-4.0849 -25.29603,-4.249 -37.8524,-0.9524 -10.49658,2.7557 -23.68918,10.8507 -26.38034,16.1868 -3.75057,7.4368 -4.96918,10.5304 -5.84088,14.8279 -0.77362,3.814 -1.5205,4.5444 -4.8668,4.7595 -2.41249,0.155 -5.77149,-1.048 -8.61959,-3.087 z M 1283.54,856.22836 c -1.9072,-2.1074 -2.2162,-6.40509 -2.2768,-31.66666 -0.095,-39.56311 -1.0318,-44.18903 -12.387,-61.16418 -9.9332,-14.84939 -10.7269,-18.47139 -6.0903,-27.79525 3.3804,-6.79759 9.0663,-21.4553 10.4487,-26.93559 0.555,-2.2 2.0042,-5.9202 3.2206,-8.26712 1.2163,-2.34692 2.2141,-5.04692 2.2173,-6 0.011,-3.1242 12.2889,-26.40563 16.5599,-31.39955 3.5614,-4.16413 6.2052,-3.80834 18.5893,2.50164 12.3906,6.31334 17.8723,10.12724 25.845,17.98166 9.2416,9.10454 7.2007,11.10113 -8.7406,8.55057 -5.6427,-0.90283 -13.5312,-3.01421 -17.53,-4.69199 -8.086,-3.39256 -10.1233,-3.19513 -11.155,1.08103 -4.3648,18.09135 -9.9036,33.2334 -15.4586,42.26143 -2.2637,3.67898 -4.1158,7.65156 -4.1158,8.82794 0,1.17639 2.0307,5.51738 4.5128,9.64664 14.4352,24.01545 18.1592,40.90947 13.999,63.50775 -3.2223,17.50378 -2.0724,18.43804 9.6942,7.87626 13.1887,-11.83836 27.3528,-16.85379 32.2656,-11.42514 1.5069,1.66515 2.1192,3.68734 1.606,5.30424 -0.9588,3.02108 -22.3665,24.0208 -28.1669,27.63022 -2.1509,1.33841 -5.4107,3.7712 -7.244,5.40621 -3.9231,3.49865 -18.7978,11.20821 -21.625,11.20821 -1.079,0 -2.9547,-1.09724 -4.1684,-2.43832 z M 702.66668,811.42539 c -10.62125,-2.9554 -28.09459,-13.41775 -29.95932,-17.93847 -0.45413,-1.10098 1.53303,-3.96484 4.92213,-7.09364 6.23543,-5.75652 6.59104,-5.77685 18.37052,-1.05052 11.60774,4.65743 24.14704,7.99228 29.97115,7.97088 5.68713,-0.0209 20.89491,-3.16794 25.36219,-5.24836 1.46666,-0.68302 7.16666,-3.14954 12.66666,-5.48116 5.50001,-2.33162 10.60001,-4.67488 11.33334,-5.20724 0.73333,-0.53236 8.53333,-4.74673 17.33333,-9.36529 21.26144,-11.15875 25.39195,-14.1292 35.46022,-25.5012 8.3094,-9.3854 18.71589,-17.11932 34.26125,-25.46234 42.29739,-22.70054 67.33211,-34.91906 69.83607,-34.08441 3.7736,1.25787 6.64003,21.01785 3.81469,26.29703 -1.89779,3.54606 -11.04836,6.73934 -19.31204,6.73934 -6.71756,0 -22.38012,2.6674 -27.72685,4.722 -1.28334,0.49315 -2.33334,1.72102 -2.33334,2.72859 0,1.93073 2.2685,2.63725 11.88983,3.70307 3.23941,0.35885 9.23941,2.36162 13.33333,4.4506 5.75366,2.93586 7.53448,4.57294 7.84426,7.21106 0.2269,1.93244 -0.53092,4.18615 -1.74696,5.19538 -3.0523,2.53317 -15.92174,2.01198 -33.13307,-1.34182 -7.9636,-1.5518 -14.79487,-2.50584 -15.1806,-2.1201 -1.07327,1.07326 3.32245,7.17681 6.32655,8.78456 3.28861,1.76001 3.48376,6.04996 0.33333,7.32772 -1.28333,0.52049 -10.43333,1.46997 -20.33333,2.10994 -9.9,0.63998 -19.58427,1.53568 -21.52059,1.99047 -1.93632,0.45479 -8.53632,5.72647 -14.66667,11.71484 -10.13298,9.89832 -25.68685,20.31496 -38.47941,25.7702 -8.94113,3.81284 -12.04236,4.98719 -20.94742,7.93215 -20.66044,6.83255 -44.298,8.98121 -57.71925,5.24672 z m 686.29322,-6.90997 c -2.954,-2.95402 -0.2596,-14.01434 6.9579,-28.56123 6.297,-12.69186 11.2682,-27.96812 9.6334,-29.60299 -2.3876,-2.38761 -5.158,-0.0988 -8.7378,7.21896 -14.9103,30.47818 -26.9328,46.42986 -34.9932,46.42986 -3.8187,0 -3.9259,-1.51408 -0.6067,-8.57904 18.0633,-38.44955 21.848,-50.94454 21.1471,-69.81681 -0.2643,-7.11562 -1.6007,-19.11889 -2.9699,-26.67393 -2.2397,-12.3596 -2.2837,-13.94193 -0.4391,-15.78663 1.8447,-1.84468 2.4611,-1.83769 6.1498,0.0697 6.299,3.25737 9.7068,2.58276 16.232,-3.21338 3.3,-2.9313 6.3454,-5.33046 6.7676,-5.33149 1.0414,-0.003 5.6041,5.23873 8.1584,9.37195 3.4929,5.65197 5.7476,18.08729 3.982,21.96226 -2.0707,4.54455 -3.6404,4.19474 -7.4915,-1.66938 -5.6353,-8.58134 -8.3253,-11.41972 -9.9003,-10.4464 -3.166,1.95669 -0.3265,13.50277 6.4219,26.11306 7.9979,14.94514 11.6411,29.23011 9.9139,38.8721 -2.9246,16.32612 -9.5508,32.32057 -17.591,42.46124 -2.6164,3.3 -4.7966,6.10123 -4.8452,6.22496 -0.3524,0.90044 -7.026,1.72044 -7.7893,0.95711 z m -793.50808,-27.3271 c -9.34918,-7.35406 -12.49013,-28.02289 -6.29518,-41.42524 4.32154,-9.34941 15.53969,-17.36317 18.22461,-13.01889 0.47958,0.77596 -0.20145,7.1099 -1.51338,14.07544 -2.25686,11.98252 -2.26367,13.12112 -0.12654,21.14133 2.80414,10.52356 2.84968,15.26867 0.18314,19.07571 -2.60224,3.71521 -5.88188,3.76271 -10.47259,0.15165 z m 80.06134,-10.61841 c -4.87895,-3.83779 -4.41277,-7.4502 2.15352,-16.68774 6.28525,-8.84216 14.25945,-16.44924 24.33333,-23.21308 6.42351,-4.31288 7.11298,-4.47042 18.90307,-4.31918 9.17255,0.1176 12.63539,-0.32382 13.82992,-1.76314 2.69911,-3.25222 -0.50819,-5.2298 -13.83228,-8.52881 l -12.51216,-3.09799 -7.34521,3.36276 c -6.09154,2.7888 -9.14004,5.58867 -17.86095,16.40426 -12.4104,15.39125 -16.89996,19.18642 -20.23043,17.10144 -7.29177,-4.56491 0.68619,-26.21036 13.95412,-37.85978 5.89571,-5.17649 9.85236,-6.86016 23.52188,-10.00922 9.96484,-2.2956 11.14912,-2.30016 26.66667,-0.10254 8.93129,1.26487 23.43871,3.73647 32.23871,5.49247 8.8,1.75599 22.70504,3.93601 30.90009,4.84452 13.06286,1.44815 16.16383,1.37759 25.14915,-0.57231 11.20327,-2.4312 33.97131,-13.01137 49.28409,-22.90202 5.13334,-3.31567 11.43334,-7.2573 14,-8.75919 22.88102,-13.38884 23.93736,-13.73751 27.25774,-8.997 6.79786,9.70532 -0.80968,18.36163 -29.78446,33.89047 -3.22302,1.72736 -6.52302,3.66814 -7.33333,4.31285 -0.81031,0.64472 -5.37328,3.14531 -10.13995,5.55685 -4.76666,2.41156 -9.56666,5.12439 -10.66666,6.0285 -4.27224,3.51144 -27.53982,14.39157 -37.18643,17.38872 -5.5808,1.73392 -13.44691,3.1665 -17.48024,3.18353 -8.96392,0.0379 -29.4123,2.20664 -36.66667,3.88897 -2.93333,0.68026 -8.93333,1.99407 -13.33333,2.91959 -8.5389,1.79612 -21.44108,6.28535 -28,9.74243 -2.2,1.15957 -4.35786,2.11201 -4.79524,2.11653 -0.43738,0.004 -5.83738,3.00777 -12,6.67391 -12.4322,7.39589 -17.49468,8.25431 -23.02495,3.9042 z m 171.15352,-90.19243 c -1.1,-0.40993 -7.00957,-3.06257 -13.13238,-5.89473 -6.12283,-2.83218 -12.72283,-5.14951 -14.66667,-5.14963 -1.94385,-1.3e-4 -8.03707,-0.86187 -13.54048,-1.91497 -5.5034,-1.05311 -20.5034,-2.55571 -33.33333,-3.33914 -78.87726,-4.81638 -88.2541,-6.50196 -116.66047,-20.97077 -8.18027,-4.16664 -21.15736,-6.95429 -38.98834,-8.37523 -50.98017,-4.06258 -54.60652,-4.66184 -69.31188,-11.45377 -10.95101,-5.05791 -10.66317,-11.93831 1.05909,-25.31607 10.23016,-11.67493 44.46555,-44.74936 47.66126,-46.045 3.7434,-1.51769 25.20683,-1.51752 49.57987,4.1e-4 21.31869,1.32771 25.9679,2.85034 46.40685,15.19839 20.76969,12.54785 25.53744,13.89116 54.92648,15.47543 13.56667,0.73133 29.76667,2.22816 36,3.32629 6.23334,1.09813 13.43334,2.36729 16,2.82036 8.80362,1.55403 33.40292,9.62019 45.33334,14.8649 15.18985,6.67758 21.76474,10.60494 31.55665,18.84965 9.32295,7.84985 18.59589,13.54535 22.05689,13.54747 7.95346,0.005 35.59111,20.83436 33.76903,25.45049 -0.82673,2.09445 -11.23212,5.21512 -17.38905,5.21512 -4.57022,0 -7.32686,-3.46964 -7.32686,-9.22192 0,-6.81992 -3.48377,-9.75577 -12.354,-10.41099 -5.35482,-0.39554 -7.98796,0.11787 -11.31266,2.20575 -4.10079,2.57527 -4.33334,3.14829 -4.33334,10.67816 0,10.18977 -1.51468,13.33996 -8.5561,17.79471 -4.63815,2.9343 -7.21407,3.601 -13.58371,3.51569 -4.32311,-0.0579 -8.76019,-0.44067 -9.86019,-0.8506 z M 364.80933,607.22429 c -1.29291,-3.36926 -0.9236,-14.09203 0.68506,-19.89095 1.5435,-5.56397 7.51374,-14.09738 13.05978,-18.66666 4.97118,-4.09567 21.23112,-15.33334 22.18601,-15.33334 0.46649,0 2.4408,-1.11422 4.38733,-2.47606 7.7048,-5.39042 28.79721,-16.34098 42.20583,-21.91204 23.4103,-9.72662 26.99992,-10.56011 29.98563,-6.96255 4.53767,5.46756 -5.58164,17.11379 -22.01763,25.33991 -27.696,13.86169 -43.89407,24.94197 -64.63467,44.2133 -19.75769,18.35806 -23.87442,20.85579 -25.85734,15.68839 z m 116.27508,-42.66623 c -5.98908,-1.8429 -11.75107,-7.02802 -11.75107,-10.5746 0,-0.91132 0.87695,-2.38473 1.94876,-3.27426 2.31958,-1.92507 20.54842,-6.02428 32.71791,-7.35744 16.26161,-1.78146 29.94847,-6.14251 56.15719,-17.8934 6.49188,-2.9107 10.17874,-6.23354 8.63229,-7.77999 -0.50813,-0.50812 -5.14965,-0.75133 -10.31452,-0.54048 -7.40061,0.30215 -9.92937,-0.10413 -11.9328,-1.91723 -6.12228,-5.54058 -1.04219,-10.99328 15.58665,-16.72982 14.71262,-5.07551 31.82828,-7.80242 49.04983,-7.81474 19.93222,-0.0143 27.38407,3.37743 23.47372,10.68399 -2.97058,5.55057 -8.07213,7.14588 -24.65236,7.70909 -8.8,0.29894 -16.56205,1.07271 -17.24901,1.71951 -0.76164,0.71713 -0.11134,2.38701 1.66666,4.2796 1.60363,1.70697 2.91569,3.69 2.91569,4.40671 0,0.71672 -2.55001,3.75609 -5.66667,6.75416 -16.99623,16.34948 -50.64635,31.96224 -81.66403,37.88993 -15.58472,2.97835 -20.42693,3.05185 -28.91824,0.43897 z" style="fill:#000000;stroke-width:1.33333;transform:scale(0.039);"></path>
  </g>
</svg>