<?xml version="1.0" encoding="UTF-8" standalone="no"?>
<svg xmlns="http://www.w3.org/2000/svg" viewBox="0 0 800 200" height="100%" width="100%" preserveAspectRatio="xMinYMin meet">
  <g>
    <path d="M 0.8431589,210.44772 V 0.94772135 h 197.5000011 197.5 V 59.305921 117.66412 l -18.25,0.55483 c -10.0375,0.30516 -21.625,1.01976 -25.75,1.588 -4.125,0.56825 -12,1.52287 -17.5,2.12138 -5.5,0.59852 -10.15,1.52273 -10.33333,2.0538 -0.44101,1.2775 -3.16667,1.24788 -3.16667,-0.0344 0,-0.55 -0.64587,-1 -1.43527,-1 -0.7894,0 -2.0048,-1.575 -2.70089,-3.5 -0.69609,-1.925 -1.55319,-3.5 -1.90467,-3.5 -0.35148,0 -1.23518,-1.9125 -1.96379,-4.25 -1.4032,-4.5017 -6.03697,-12.745199 -7.16592,-12.748209 -0.3688,-9.9e-4 -0.98956,-1.46429 -1.37946,-3.25179 -0.38991,-1.7875 -1.73754,-4.47672 -2.99474,-5.97605 -1.25721,-1.49932 -2.58022,-4.06642 -2.94004,-5.70467 -0.35982,-1.63824 -1.41044,-3.22718 -2.33472,-3.53098 -0.92427,-0.30379 -2.8055,-2.89933 -4.1805,-5.76785 -1.375,-2.86852 -3.90118,-6.80286 -5.61373,-8.74297 -1.71254,-1.94012 -3.91665,-5.10248 -4.89801,-7.02748 -0.98136,-1.925 -2.55107,-4.175 -3.48826,-5 -0.93719,-0.825 -2.43659,-2.92277 -3.33201,-4.66171 -0.89542,-1.73893 -2.69056,-3.99748 -3.9892,-5.01899 -1.29864,-1.02152 -2.90522,-2.87387 -3.57017,-4.11634 -1.97226,-3.68521 -12.44245,-13.28909 -14.08833,-12.92266 -0.83616,0.18616 -1.38404,0.94551 -1.2175,1.68745 0.16653,0.74193 -0.28347,1.72081 -1,2.17529 -0.99922,0.63379 -1.01152,0.8299 -0.0528,0.84165 0.6875,0.008 1.25,0.69031 1.25,1.51531 0,0.825 -0.5625,1.50689 -1.25,1.51531 -0.88565,0.0109 -0.92262,0.22946 -0.12682,0.75 0.65917,0.43118 1.40268,5.69206 1.79977,12.73469 0.37213,6.6 1.55513,20.1 2.62889,30 1.07376,9.9 2.46495,22.724999 3.09155,28.499999 0.62659,5.775 1.51879,10.98783 1.98267,11.58407 0.46387,0.59623 1.32614,6.64356 1.91615,13.43849 0.59001,6.79494 1.29269,12.71031 1.56151,13.14527 0.78234,1.26585 -1.53429,4.83217 -3.1389,4.83217 -0.80565,0 -1.46482,0.675 -1.46482,1.5 0,0.825 -0.44586,1.5 -0.99081,1.5 -0.54494,0 -2.00744,1.56943 -3.25,3.48762 -1.24255,1.91819 -2.78898,3.49319 -3.4365,3.5 -1.12936,0.0119 -6.37639,12.31984 -7.89891,18.52851 -0.40245,1.64113 -1.13292,3.24809 -1.62327,3.57102 -0.49034,0.32293 -1.40939,4.6898 -2.04232,9.70415 -1.23886,9.81489 -0.0136,27.8054 1.97899,29.05651 0.57128,0.35871 1.78953,4.47719 2.70722,9.15219 1.9175,9.76838 5.62723,23.26438 6.59702,24 1.2325,0.93489 3.1231,5.16882 2.55965,5.73226 -0.30853,0.30853 -10.19587,0.003 -21.97186,-0.67878 -24.0046,-1.38994 -84.98242,-1.62495 -91.11844,-0.35117 -2.67988,0.55631 -4.10601,1.43444 -4.34499,2.67539 -0.33219,1.72492 0.19698,1.797 7.98923,1.08827 4.58975,-0.41745 8.90749,-0.76807 9.59499,-0.77915 0.6875,-0.0111 1.25,-0.39515 1.25,-0.85349 1e-5,-0.45833 14.13751,-0.83333 31.41668,-0.83333 24.19766,0 31.53256,0.28723 31.92105,1.25 0.40351,1 0.52017,1 0.58333,0 0.0434,-0.6875 0.55551,-1.25 1.13797,-1.25 0.58246,0 0.82145,0.38438 0.5311,0.85418 -0.60127,0.97288 12.16781,2.13091 23.59478,2.13983 10.20292,0.008 12.15246,0.85093 13.66824,5.91014 0.67493,2.25272 1.60366,4.09585 2.06386,4.09585 0.88774,0 4.49546,7.8025 5.54856,12 l 0.62721,2.5 -26.71727,-0.28251 c -20.88502,-0.22085 -26.89827,-0.003 -27.54639,1 -0.65767,1.01732 -1.03588,0.97236 -1.82911,-0.21749 -0.71296,-1.06944 -1.21528,-1.17244 -1.75,-0.35882 -0.47257,0.71906 -5.92865,1.33981 -14.75,1.67816 -21.937,0.84139 -46.91579,2.74957 -47.84934,3.6553 -0.46713,0.45322 -0.54887,1.77071 -0.18164,2.92776 0.57598,1.81474 0.86227,1.90917 2.08401,0.68742 0.84887,-0.84887 4.52748,-1.6528 9.18164,-2.00657 4.27093,-0.32465 12.71533,-1.02539 18.76533,-1.5572 17.52092,-1.54014 33.95246,-2.09022 64.77958,-2.16864 l 28.77959,-0.0732 7.47041,7.51904 c 4.10873,4.13546 7.47042,7.82274 7.47042,8.19394 0,0.3712 2.51431,3.05254 5.58735,5.95853 6.44552,6.09515 6.57646,5.95557 -6.58735,7.02185 -4.125,0.33412 -12,1.03082 -17.5,1.54822 -5.5,0.51739 -16.075,1.45996 -23.5,2.0946 -7.425,0.63463 -13.725,1.47551 -14,1.86861 -0.275,0.3931 -7.025,1.22721 -15,1.85357 -7.975,0.62636 -19.225,1.81044 -25,2.63129 -5.775,0.82084 -14.55,1.99608 -19.5,2.61163 -4.95,0.61555 -9.23416,1.49498 -9.52035,1.95429 -0.2862,0.45931 -1.7487,1.30212 -3.25,1.87292 -2.94262,1.11877 -3.90185,5.0873 -1.22965,5.0873 0.825,0 1.5,-0.41807 1.5,-0.92904 0,-1.33877 10.01651,-4.05437 17.54911,-4.75778 3.54799,-0.33131 6.45089,-0.93086 6.45089,-1.33232 0,-1.18142 18.72127,-3.72654 45,-6.11769 13.61102,-1.23848 24.83334,-2.70349 25.25,-3.29623 0.50181,-0.71386 1.07586,-0.57055 1.73469,0.43306 0.54158,0.825 0.99158,0.99547 1,0.37882 0.01,-0.70995 3.77484,-1.36744 10.26531,-1.79259 5.6375,-0.36927 13.625,-1.1031 17.75,-1.63073 17.92838,-2.29322 17.57337,-2.31527 21.20779,1.31701 1.81072,1.80965 5.54221,4.82709 8.29221,6.70542 2.75,1.87834 5.45,3.95127 6,4.60652 0.55,0.65525 3.25,2.4012 6,3.8799 2.75,1.4787 5.50885,3.34178 6.13079,4.14019 1.26943,1.62964 11.9072,6.99041 15.82065,7.97263 1.40171,0.3518 2.54856,0.98521 2.54856,1.40757 0,0.82863 21.09563,8.01526 23.52798,8.01526 0.80961,0 1.47202,0.36747 1.47202,0.81661 0,0.44913 4.3875,1.59886 9.75,2.55496 5.3625,0.95609 10.7625,1.94719 12,2.20244 l 2.25,0.46409 v 26.98095 26.98095 h -197.5 H 0.8431589 Z M 396.50983,364.28105 c -0.93029,-0.93028 -0.81008,-243.5596 0.12139,-245.02465 0.92202,-1.45017 61.91975,-1.0114 66.72348,0.47997 5.20826,1.61695 9.15883,0.42577 10.92388,-3.2938 0.86052,-1.81341 1.56458,-3.70675 1.56458,-4.20742 0,-0.50067 0.7875,-1.78266 1.75,-2.84887 0.9625,-1.06621 2.63106,-4.63856 3.70791,-7.93856 3.07813,-9.432879 9.41091,-21.903999 15.54209,-30.606969 0.825,-1.17105 2.7375,-3.87216 4.25,-6.00245 1.5125,-2.1303 2.75,-4.18566 2.75,-4.56747 0,-0.38182 0.85705,-1.62321 1.90455,-2.75866 1.04751,-1.13545 3.12295,-4.31445 4.6121,-7.06445 1.48915,-2.75 3.2196,-5.45 3.84545,-6 0.62584,-0.55 1.72234,-2.125 2.43666,-3.5 2.38506,-4.591 11.64365,-13.93313 14.45124,-14.58162 2.45949,-0.5681 2.75,-0.35965 2.75,1.97321 0,1.43462 -0.45,2.60841 -1,2.60841 -0.55,0 -1.00374,1.4625 -1.00831,3.25 -0.005,1.7875 -0.67189,8.2 -1.48294,14.25 -1.44487,10.77801 -2.13824,45.3831 -1.71335,85.511139 0.1545,14.59148 0.51446,18.42632 2.15893,23 1.08544,3.01887 2.0095,5.03886 2.05349,4.48886 0.0985,-1.23157 2.27769,4.49764 5.61042,14.75 1.3856,4.2625 2.87309,7.75 3.30552,7.75 0.43242,0 1.37511,4.10842 2.09485,9.12982 1.03817,7.24297 1.0724,12.0332 0.16562,23.17824 -0.62865,7.72663 -1.54977,14.30571 -2.04693,14.62018 -0.49716,0.31447 -1.4593,3.26021 -2.13808,6.54609 -0.67879,3.28588 -1.47648,6.60581 -1.77265,7.37761 -0.42879,1.11743 0.25718,1.27544 3.36747,0.7757 2.14828,-0.34517 6.04346,-0.90985 8.65596,-1.25484 2.6125,-0.34499 4.75,-0.93515 4.75,-1.31146 0,-0.37631 3.7125,-1.49392 8.25,-2.48359 4.5375,-0.98966 11.79932,-2.64952 16.13738,-3.68857 4.33806,-1.03905 9.13806,-1.88918 10.66667,-1.88918 1.5286,0 2.92928,-0.41407 3.11262,-0.92015 0.18333,-0.50608 3.70833,-1.40513 7.83333,-1.99788 4.125,-0.59275 10.425,-1.51963 14,-2.05974 7.96837,-1.20386 32.99957,-1.30883 34.83385,-0.14608 2.46327,1.56147 -1.53734,2.1236 -15.16564,2.13096 -15.53266,0.008 -26.82351,0.9326 -26.0805,2.13481 0.29168,0.47195 -0.83344,0.85808 -2.50027,0.85808 -2.96373,0 -9.61463,1.23465 -27.41297,5.08885 -4.85404,1.05113 -9.7181,1.91115 -10.80902,1.91115 -1.09091,0 -1.73063,0.40912 -1.42159,0.90916 0.30904,0.50004 -2.7019,1.40979 -6.69098,2.02167 -3.98909,0.61188 -9.83359,1.77776 -12.98778,2.59084 -3.1542,0.81308 -6.81045,1.47833 -8.125,1.47833 -1.83343,0 -2.52423,0.67064 -2.96599,2.87946 -0.31674,1.58371 -1.17836,3.49621 -1.9147,4.25 -1.38172,1.41448 -9.0107,16.97804 -8.52965,17.401 0.64959,0.57116 21.30363,-2.97988 21.60357,-3.7143 0.18334,-0.44889 3.02157,-0.81616 6.30718,-0.81616 3.28562,0 7.86062,-0.44566 10.16667,-0.99036 6.31294,-1.49114 29.03098,-3.88584 48.69282,-5.13269 9.625,-0.61037 17.65,-1.50737 17.83333,-1.99335 0.44408,-1.17716 23.16667,-1.14321 23.16667,0.0346 0,3.33561 -1.03381,3.58174 -14.76139,3.51432 -18.89861,-0.0928 -68.23861,3.93077 -68.23861,5.56473 0,0.34197 -4.8375,1.17931 -10.75,1.86076 -5.9125,0.68144 -16.74376,2.00466 -24.06948,2.94048 l -13.31947,1.70151 -3.11449,5.5 c -1.71297,3.025 -3.38084,5.725 -3.70637,6 -0.32553,0.275 -2.13527,2.525 -4.02166,5 -1.88638,2.475 -4.91225,5.86143 -6.72416,7.5254 -1.8119,1.66397 -3.29437,3.25277 -3.29437,3.53066 0,0.27788 18.77366,0.56242 41.71924,0.6323 29.1696,0.0888 41.82876,0.45563 42.08333,1.21935 0.22285,0.66854 3.53228,1.10009 8.53076,1.1124 4.49167,0.0111 11.09167,0.46486 14.66667,1.00845 10.58721,1.60983 29.10615,4.10438 34.76846,4.68341 5.60432,0.5731 7.06624,1.57735 5.33424,3.66429 -0.84137,1.01378 -2.29946,1.05776 -6.83609,0.20619 -3.17164,-0.59535 -6.26365,-1.40605 -6.87113,-1.80156 -0.60749,-0.39551 -6.59891,-1.39932 -13.31427,-2.2307 -6.71536,-0.83138 -12.5781,-1.73925 -13.02831,-2.01749 -1.84019,-1.13731 -32.94606,-2.02031 -71.38165,-2.02632 l -40.82876,-0.006 -2.01415,2.76304 c -2.27346,3.11838 -13.10582,11.73658 -14.75238,11.73658 -0.59178,0 -1.07596,0.40792 -1.07596,0.90648 0,0.49857 -4.1625,4.53988 -9.25,8.98071 -5.0875,4.44082 -10.6,9.36742 -12.25,10.948 -1.65,1.58059 -4.8,3.92801 -7,5.21651 -2.2,1.2885 -4.25671,2.71231 -4.57046,3.16403 -0.31375,0.45172 -4.00776,1.91224 -8.20891,3.24561 -7.60824,2.41472 -11.76988,4.22134 -12.72063,5.52218 -1.52623,2.08821 -25.63972,5.04342 -27.33333,3.34981 z m 59.96609,-129.64239 c 1.57698,-0.85836 5.11724,-2.3033 7.86724,-3.21098 5.95391,-1.96518 15.55816,-6.5346 16.98451,-8.08073 0.55852,-0.60543 2.79382,-2.40543 4.96734,-4 2.17351,-1.59458 5.99382,-4.92423 8.48958,-7.39923 4.20764,-4.17266 5.83357,-6.46501 9.22069,-13 0.71267,-1.375 1.86774,-2.85986 2.56682,-3.29969 1.91177,-1.20279 1.52772,-4.49258 -0.66122,-5.66406 -1.06275,-0.56877 -2.20228,-1.88484 -2.53229,-2.9246 -1.88993,-5.95467 -28.55784,-5.26425 -40.52062,1.04906 -1.91686,1.01161 -3.85819,1.83929 -4.31408,1.83929 -2.44013,0 -11.57797,5.16369 -13.01266,7.35331 -0.91616,1.39825 -3.24578,3.29204 -5.17691,4.20842 -1.93114,0.91638 -3.51116,2.06358 -3.51116,2.54933 0,0.48575 -1.58671,2.63948 -3.52603,4.78607 -1.93931,2.14659 -4.68537,6.08538 -6.10235,8.75288 -1.41699,2.66749 -2.87017,5.07499 -3.22931,5.34999 -1.2001,0.91895 -3.27584,7.97493 -2.64591,8.99417 0.3419,0.55321 1.49508,1.00583 2.56262,1.00583 1.06754,0 1.94098,0.35694 1.94098,0.7932 0,3.22426 25.01175,3.95727 30.63276,0.89774 z m 7.58746,-7.94094 c -4.88553,-5.95987 -3.0929,-29.82164 2.51649,-33.49706 3.70484,-2.4275 7.01033,-0.90608 8.2806,3.81133 1.17473,4.36262 0.7579,9.44652 -1.67551,20.43573 -1.9398,8.7601 -6.08083,12.95943 -9.12158,9.25 z m -125.22022,16.25 c 0,-0.55 -1.95785,-1 -4.35078,-1 -2.39292,0 -5.65542,-0.39393 -7.25,-0.87541 -1.59457,-0.48147 -5.37422,-1.44102 -8.39922,-2.13233 -5.27397,-1.20526 -10.08012,-3.18512 -12.40612,-5.11061 -4.52474,-3.74563 -9.07324,-6.89902 -10.6926,-7.41298 -1.05777,-0.33573 -2.60264,-1.92428 -3.43306,-3.53012 -0.83041,-1.60584 -2.57907,-3.6203 -3.8859,-4.47657 -1.30684,-0.85627 -3.56593,-3.27383 -5.02021,-5.37235 -2.32235,-3.35116 -2.49776,-4.13676 -1.44133,-6.45536 1.31725,-2.89106 11.59778,-8.63427 15.45561,-8.63427 1.24132,0 2.40694,-0.42466 2.59028,-0.94368 0.4461,-1.26295 11.82809,-3.03938 19.53411,-3.04877 7.63586,-0.009 16.29394,1.75543 16.31453,3.32531 0.009,0.6681 0.4298,0.52577 0.98469,-0.33286 0.5589,-0.86483 0.97586,-1.00434 0.98469,-0.32946 0.008,0.6438 1.47781,1.48306 3.26531,1.86502 5.13721,1.09774 14.93839,5.29978 16.83251,7.21657 0.94996,0.96133 4.24501,3.26786 7.32234,5.12562 3.07733,1.85776 5.59515,3.94711 5.59515,4.64301 0,0.69589 0.591,1.49205 1.31333,1.76923 0.72233,0.27719 2.40356,2.80033 3.73608,5.60699 1.33251,2.80666 2.76651,5.10302 3.18667,5.10302 1.72245,0 0.55136,2.20487 -2.90035,5.46063 -4.60726,4.3457 -14.20057,7.57423 -24.58573,8.27407 -4.2625,0.28725 -7.75,0.91445 -7.75,1.39379 0,0.47933 -1.125,0.87151 -2.5,0.87151 -1.375,0 -2.5,-0.45 -2.5,-1 z m 25.64778,-5.73075 c 2.83128,-1.09968 5.75628,-2.52548 6.5,-3.16844 0.74372,-0.64296 2.21175,-1.76281 3.26228,-2.48854 1.87005,-1.29188 1.86384,-1.41501 -0.29623,-5.87712 -2.69094,-5.55875 -11.29005,-14.49301 -15.73815,-16.35154 -1.79607,-0.75044 -3.63534,-2.02518 -4.08727,-2.83274 -1.16111,-2.07478 -19.59376,-8.55087 -24.33802,-8.55087 -2.17272,0 -3.95039,-0.45 -3.95039,-1 0,-0.5641 -2.83333,-1 -6.5,-1 -3.575,0 -6.5,0.36393 -6.5,0.80873 0,0.44481 -3.9375,1.3673 -8.75,2.04998 -9.03957,1.28232 -17.50976,4.90161 -19.6654,8.40298 -0.89149,1.44803 -0.46144,2.34716 2.4154,5.05002 1.925,1.80859 4.78732,4.95333 6.36071,6.98831 1.57338,2.03499 3.51244,3.69998 4.30901,3.69998 0.79657,0 1.1702,0.45 0.83028,1 -0.33992,0.55 -0.0247,1 0.70044,1 0.72515,0 1.81426,0.7875 2.42023,1.75 0.60597,0.9625 3.40722,2.875 6.225,4.25 2.81778,1.375 5.13023,2.76441 5.13878,3.08758 0.0218,0.82333 9.44192,3.65092 16.01555,4.8073 9.26907,1.63054 29.65824,0.70074 35.64778,-1.62563 z m -36.64365,-6.7545 c -0.69068,-2.46688 -1.31167,-7.77794 -1.37996,-11.80235 -0.15255,-8.98948 3.08121,-16.7124 6.99786,-16.7124 3.78979,0 4.71062,3.20118 3.94014,13.69753 -0.76367,10.40358 -1.97116,14.9427 -4.66929,17.55247 -2.71593,2.62699 -3.51214,2.18151 -4.88875,-2.73525 z" />
  </g>
</svg>
