<?xml version="1.0" encoding="UTF-8" standalone="no"?>
<svg xmlns="http://www.w3.org/2000/svg" viewBox="0 0 800 206" height="206" width="800">
  <style>
    .svgText {
      font-family: "Courier New", Courier, monospace;";
      font-size: 16px;
      line-height: 1.25;
      text-align: center;
    }
  </style>
  <g>
    <path d="M 138,117.5 V 75 H 154.5 171 V 62.5 50 h 9.5 9.5 V 45 40 H 150.5 C 116.05556,40 111,39.808017 111,38.5 111,37.191983 116.05556,37 150.5,37 H 190 v -2.567388 c 0,-2.071353 0.36876,-2.450347 1.90865,-1.961605 C 195.21908,33.521696 207.95165,37 208.48734,37 208.7693,37 209,34.525 209,31.5 V 26 h 26.5 26.5 v 5.5 5.5 h 104 104 v -3.106989 c 0,-2.379904 0.35855,-2.969401 1.53215,-2.519046 0.84269,0.323369 4.20322,1.280084 7.46785,2.126035 3.26463,0.845951 6.62516,1.802666 7.46785,2.126035 C 487.73179,36.111054 488,35.232434 488,30.606989 V 25 h 26.5 26.5 v 6 6 h 89 c 78.44444,0 89,0.177903 89,1.5 0,1.322097 -10.55556,1.5 -89,1.5 H 541 V 50.5 61 H 514.5 488 v -3.900285 -3.900284 l -6.75,1.744768 c -3.7125,0.959623 -7.7625,2.070076 -9,2.467673 -2.00143,0.643041 -2.25,0.384037 -2.25,-2.344484 V 52 H 461.5 453 V 63 74 H 561.5 670 V 116.5 159 H 543.5 417 V 116.5 74 H 433.5 450 V 61.5 49 h 10 10 V 44.5 40 H 366 262 V 51 62 H 235.5 209 v -4.067388 c 0,-3.403114 -0.2858,-3.983327 -1.75,-3.55268 -0.9625,0.283088 -4.54803,1.221984 -7.96785,2.086433 -3.41981,0.86445 -6.90731,1.836301 -7.75,2.15967 C 190.35855,59.07639 190,58.486893 190,56.106989 V 53 h -8 -8 V 64 75 H 282.5 391 V 117.5 160 H 264.5 138 Z m 250,0 V 78 H 264.5 141 V 117.5 157 H 264.5 388 Z M 152,126 v -14 h 34.5 34.5 v 14 14 H 186.5 152 Z m 66,0 V 115 H 186.5 155 v 11 11 h 31.5 31.5 z m 8,0 v -14 h 34.5 34.5 v 14 14 H 260.5 226 Z m 66,0 V 115 H 260.5 229 v 11 11 h 31.5 31.5 z m 8,0 v -14 h 34.5 34.5 v 14 14 H 334.5 300 Z m 66,0 V 115 H 334.5 303 v 11 11 h 31.5 31.5 z m -58,4.5 c 0,-0.825 0.675,-1.5 1.5,-1.5 0.825,0 1.5,0.675 1.5,1.5 0,0.825 -0.675,1.5 -1.5,1.5 -0.825,0 -1.5,-0.675 -1.5,-1.5 z m 6,0 c 0,-0.825 0.675,-1.5 1.5,-1.5 0.825,0 1.5,0.675 1.5,1.5 0,0.825 -0.675,1.5 -1.5,1.5 -0.825,0 -1.5,-0.675 -1.5,-1.5 z m 6,0 c 0,-0.825 0.675,-1.5 1.5,-1.5 0.825,0 1.5,0.675 1.5,1.5 0,0.825 -0.675,1.5 -1.5,1.5 -0.825,0 -1.5,-0.675 -1.5,-1.5 z m 347,-14 V 77 H 543.5 420 V 116.5 156 H 543.5 667 Z M 431,125 v -14 h 34.5 34.5 v 14 14 H 465.5 431 Z m 66,0 V 114 H 465.5 434 v 11 11 h 31.5 31.5 z m 8,0 v -14 h 34.5 34.5 v 14 14 H 539.5 505 Z m 66,0 V 114 H 539.5 508 v 11 11 h 31.5 31.5 z m 8,0 v -14 h 34.5 34.5 v 14 14 H 613.5 579 Z m 66,0 V 114 H 613.5 582 v 11 11 h 31.5 31.5 z m -58,4.5 c 0,-0.825 0.675,-1.5 1.5,-1.5 0.825,0 1.5,0.675 1.5,1.5 0,0.825 -0.675,1.5 -1.5,1.5 -0.825,0 -1.5,-0.675 -1.5,-1.5 z m 6,0 c 0,-0.825 0.675,-1.5 1.5,-1.5 0.825,0 1.5,0.675 1.5,1.5 0,0.825 -0.675,1.5 -1.5,1.5 -0.825,0 -1.5,-0.675 -1.5,-1.5 z m 6,0 c 0,-0.825 0.675,-1.5 1.5,-1.5 0.825,0 1.5,0.675 1.5,1.5 0,0.825 -0.675,1.5 -1.5,1.5 -0.825,0 -1.5,-0.675 -1.5,-1.5 z M 259,44 V 29 H 235.5 212 V 44 59 H 235.5 259 Z M 538,43 V 28 H 514.5 491 v 15 15 h 23.5 23.5 z m -329,2.432612 c 0,-3.8828 -0.2623,-4.488865 -1.75,-4.043505 -0.9625,0.288136 -4.88637,1.298004 -8.71971,2.244151 -3.83334,0.946147 -6.45635,1.891389 -5.8289,2.100538 3.45512,1.151708 13.97878,4.055844 15.04861,4.152855 0.83409,0.07563 1.25,-1.406342 1.25,-4.454039 z m 279,-0.817994 v -4.385381 l -8.21611,2.063346 c -4.51885,1.13484 -7.70436,2.233927 -7.0789,2.442414 2.1173,0.705768 13.78989,4.037531 14.54501,4.151654 0.4125,0.06234 0.75,-1.860073 0.75,-4.272033 z" />
    <text class="svgText" x="221.19586" y="49.797729">haš</text>
    <text class="svgText" x="501.61194" y="48.057186">haš</text>
    <text class="svgText" x="162.26715" y="103.16322">blok</text>
    <text class="svgText" x="441.99017" y="101.42922">blok</text>
    <text class="svgText" x="437.0603" y="130.40509">stavka</text>
    <text class="svgText" x="509.42139" y="131.18347">stavka</text>
    <text class="svgText" x="157.79884" y="130.65839">stavka</text>
    <text class="svgText" x="231.4666" y="130.20444">stavka</text>
  </g>
</svg>
