<?xml version="1.0" encoding="UTF-8" standalone="no"?>
<svg xmlns="http://www.w3.org/2000/svg" width="800" height="315" viewBox="0 0 800 315">
  <style>
    .svgText {
      font-family: "Courier New", Courier, monospace;
      font-size: 16px;
      line-height: 1.25;
      text-align: center;
    }
  </style>
  <g>
    <text y="20" x="160" class="svgText">heder bloka
    <tspan y="34" x="162">(zaglavlje)</tspan></text>
    <text y="24.728138" x="360" class="svgText">heder bloka</text>
    <text y="26.058655" x="560" class="svgText">heder bloka</text>
    <text y="55" x="156" class="svgText">pret.
    <tspan y="71" x="165">haš</tspan></text>
    <text y="55" x="356" class="svgText">pret.
    <tspan y="71" x="363">haš</tspan></text>
    <text y="55" x="555" class="svgText">pret.
    <tspan y="71" x="560">haš</tspan></text>
    <text y="65" x="228" class="svgText">nons</text>
    <text y="65" x="428" class="svgText">nons</text>
    <text y="65" x="623" class="svgText">nons</text>
    <text y="107.88554" x="185" class="svgText">koren
    <tspan y="120.72031" x="180">merkla</tspan></text>
    <text y="107.50561" x="383" class="svgText">koren
    <tspan y="120.34038" x="380">merkla</tspan></text>
    <text y="108.21906" x="580" class="svgText">koren
    <tspan y="121.05383" x="575">merkla</tspan></text>
    <text y="190" x="315" class="svgText">haš1</text>
    <text y="190" x="423" class="svgText">haš23</text>
    <text y="249" x="398" class="svgText">haš2</text>
    <text y="249" x="455" class="svgText">haš3</text>
    <text y="304" x="458" class="svgText">tx3</text>
    <text y="205.56279" x="493.63565" class="svgText">merkle grana za tx3</text>
    <path d="m 449.73772,310.62885 c -0.72576,0 -0.35283,-6.51668 -0.2063,-12.97576 l 0.26645,-11.74378 10.14468,-0.26787 10.14469,-0.26784 v -11.21374 c 0,-8.07535 -0.32705,-11.32273 -1.16852,-11.60322 -0.9188,-0.30627 -0.90261,-0.97314 0.0758,-3.12038 0.85456,-1.87559 0.92496,-2.83733 0.22482,-3.0707 -2.17142,-0.72382 -0.86451,-1.69245 2.28345,-1.69245 3.21287,0 4.44238,0.97279 2.18187,1.7263 -0.79503,0.26502 -0.65783,1.03501 0.47185,2.64785 1.96471,2.80503 2.00911,3.74159 0.17736,3.74159 -1.17964,0 -1.41554,1.88739 -1.41554,11.32429 v 11.32431 h 10.19187 c 6.66874,0 10.58331,0.39145 11.3243,1.13244 1.18946,1.18945 1.65404,20.94619 0.5596,23.79821 -0.49976,1.30237 -3.39151,1.49271 -22.6782,1.49271 -17.31471,0 -21.54458,-1.23196 -22.57817,-1.23196 z m 43.9418,-11.97972 v -11.32429 h -21.7049 -21.70491 v 11.32429 11.3243 h 21.70491 21.7049 z m -99.08761,-55.1769 v -12.71079 l 11.45931,-0.26497 c 8.99574,-0.20802 11.63357,-0.56929 12.26986,-1.68051 0.4458,-0.77854 3.33176,-6.71149 6.41328,-13.18434 3.97957,-8.35926 5.32522,-12.10318 4.64485,-12.92296 -0.68406,-0.82424 -0.39783,-1.50391 1.00125,-2.37766 1.0775,-0.67291 1.95911,-1.75833 1.95911,-2.41202 0,-0.65369 0.637,-1.18853 1.41554,-1.18853 1.05341,0 1.41554,1.11218 1.41554,4.34758 0,3.47375 -0.28406,4.23857 -1.4133,3.80524 -1.0628,-0.40784 -2.93512,2.64509 -7.54953,12.30994 -3.37493,7.06872 -6.13624,13.00027 -6.13624,13.1812 0,0.1809 4.45894,0.32893 9.90876,0.32893 h 9.90877 v 12.73984 12.73984 h -22.64859 -22.64861 z m 42.86078,11.19428 c 0,-1.3285 1.49272,-2.39088 1.49272,-11.3243 V 232.59073 H 417.24052 395.5356 v 10.69517 c 0,5.88235 0.28311,10.97829 0.62914,11.32429 0.78623,0.78624 41.28795,2.24017 41.28795,0.0564 z m 14.23256,0.57281 c 0.32078,-0.51902 0.98284,-0.9437 1.47123,-0.9437 0.48842,0 0.888,0.42468 0.888,0.9437 0,0.51904 -0.66207,0.9437 -1.47124,0.9437 -0.80918,0 -1.20876,-0.42466 -0.88799,-0.9437 z m 4.05787,-0.18874 c 0.88078,-0.88078 1.38409,-0.88078 2.26487,0 0.88077,0.88078 0.62912,1.13244 -1.13244,1.13244 -1.76156,0 -2.01321,-0.25166 -1.13243,-1.13244 z m 3.96352,0.18874 c 0,-0.51902 0.39959,-0.9437 0.88798,-0.9437 0.4884,0 1.15046,0.42468 1.47124,0.9437 0.32077,0.51904 -0.0787,0.9437 -0.88801,0.9437 -0.80917,0 -1.47121,-0.42466 -1.47121,-0.9437 z m 4.2466,0 c 0.32077,-0.51902 0.98285,-0.9437 1.47122,-0.9437 0.48841,0 0.888,0.42468 0.888,0.9437 0,0.51904 -0.66204,0.9437 -1.47123,0.9437 -0.80918,0 -1.20876,-0.42466 -0.88799,-0.9437 z m 12.5511,-0.18874 c 0.88076,-0.88078 1.38408,-0.88078 2.26486,0 0.88077,0.88078 0.62912,1.13244 -1.13244,1.13244 -1.76155,0 -2.0132,-0.25166 -1.13242,-1.13244 z m 4.44486,0.17335 c 0.326,-0.52749 0.98806,-0.71478 1.47122,-0.41615 1.30896,0.80897 1.06488,1.37524 -0.59273,1.37524 -0.80918,0 -1.20451,-0.43159 -0.87849,-0.95909 z m 3.76525,0.0153 c 0.32078,-0.51902 0.98284,-0.94369 1.47124,-0.94369 0.48838,0 0.88798,0.42467 0.88798,0.94369 0,0.51904 -0.66204,0.94371 -1.47122,0.94371 -0.80919,0 -1.20877,-0.42467 -0.888,-0.94371 z m 4.24661,0 c 0,-0.51902 0.3996,-0.94369 0.88799,-0.94369 0.4884,0 1.15046,0.42467 1.47124,0.94369 0.32079,0.51904 -0.0787,0.94371 -0.88799,0.94371 -0.80918,0 -1.47124,-0.42467 -1.47124,-0.94371 z m 4.24662,0 c 0.32076,-0.51902 1.00789,-0.94369 1.52691,-0.94369 0.51904,0 0.68124,0.42467 0.36047,0.94369 -0.32078,0.51904 -1.00789,0.94371 -1.52693,0.94371 -0.51903,0 -0.68123,-0.42467 -0.36045,-0.94371 z m -43.80715,-1.49417 c -1.10029,0 0.26889,-1.32296 0.57014,-0.57015 0.2726,0.68123 0.23907,1.49517 -0.0744,1.80874 -0.31359,0.3136 0.49999,-1.23859 -0.49566,-1.23859 z m 44.27899,-2.80813 c 0,-0.80918 0.43159,-1.20449 0.95907,-0.87847 0.52752,0.32601 0.71479,0.98805 0.41616,1.47122 -0.80895,1.30893 -1.37523,1.06489 -1.37523,-0.59275 z m -44.20451,-1.35983 c 0,-1.29757 0.21421,-1.82841 0.476,-1.17962 0.26178,0.64878 0.26178,1.71043 0,2.35923 -0.26179,0.64878 -0.476,0.11795 -0.476,-1.17961 z m 44.20451,-2.41493 c 0,-0.80917 0.43159,-1.2045 0.95907,-0.87849 0.52752,0.32601 0.71479,0.98808 0.41616,1.47124 -0.80895,1.30895 -1.37523,1.06487 -1.37523,-0.59275 z m -44.27899,-1.91031 c -1.10029,0 0.26889,-1.32299 0.57014,-0.57016 0.2726,0.68122 0.23907,1.49515 -0.0744,1.80874 -0.31359,0.31358 0.49998,-1.23858 -0.49566,-1.23858 z m 44.27899,-2.28061 c 0,-1.76155 0.25166,-2.0132 1.13243,-1.13242 0.88077,0.88077 0.88077,1.38409 0,2.26485 -0.88077,0.88078 -1.13243,0.62913 -1.13243,-1.13243 z m -44.27899,-1.49418 c -1.10029,0 0.26889,-1.32295 0.57014,-0.57015 0.2726,0.68124 0.23907,1.49517 -0.0744,1.80875 -0.31359,0.31359 0.49998,-1.2386 -0.49566,-1.2386 z m 44.27899,-2.80812 c 0,-0.80919 0.43159,-1.20448 0.95907,-0.87848 0.52752,0.32601 0.71479,0.98805 0.41616,1.47122 -0.80895,1.30894 -1.37523,1.06489 -1.37523,-0.59274 z m -44.20451,-1.35984 c 0,-1.29759 0.21421,-1.8284 0.476,-1.17962 0.26178,0.64878 0.26178,1.71043 0,2.35923 -0.26179,0.64877 -0.476,0.11796 -0.476,-1.17961 z m 44.20451,-2.64234 c 0,-1.14187 -0.42467,-2.07612 -0.94369,-2.07612 -0.51903,0 -0.94368,-0.42467 -0.94368,-0.94369 0,-0.51904 0.58746,-0.9437 1.30548,-0.9437 1.6123,0 2.74302,3.8785 1.49468,5.12684 -0.58793,0.58793 -0.91279,0.17388 -0.91279,-1.16333 z m -44.09009,-1.59345 c 0.23603,-1.92488 3.51135,-3.31991 3.51135,-1.49556 0,0.55708 -0.60159,1.01289 -1.33689,1.01289 -0.73529,0 -1.57712,0.53083 -1.87075,1.17962 -0.29361,0.64878 -0.43029,0.33517 -0.30371,-0.69695 z m 4.92689,-1.42636 c -0.32077,-0.51904 0.0787,-0.9437 0.88801,-0.9437 0.80916,0 1.47122,0.42466 1.47122,0.9437 0,0.51902 -0.3996,0.94369 -0.888,0.94369 -0.48839,0 -1.15044,-0.42467 -1.47123,-0.94369 z m 4.24661,0 c 0,-0.51904 0.66207,-0.9437 1.47123,-0.9437 0.80919,0 1.20878,0.42466 0.88801,0.9437 -0.32079,0.51902 -0.98284,0.94369 -1.47123,0.94369 -0.48841,0 -0.88801,-0.42467 -0.88801,-0.94369 z m 3.77477,0 c 0,-0.51904 0.637,-0.9437 1.41554,-0.9437 0.77854,0 1.41553,0.42466 1.41553,0.9437 0,0.51902 -0.63699,0.94369 -1.41553,0.94369 -0.77854,0 -1.41554,-0.42467 -1.41554,-0.94369 z m 4.71846,0 c 0,-0.51904 0.42466,-0.9437 0.94368,-0.9437 0.51903,0 0.9437,0.42466 0.9437,0.9437 0,0.51902 -0.42467,0.94369 -0.9437,0.94369 -0.51902,0 -0.94368,-0.42467 -0.94368,-0.94369 z m -2.9319,-13.09837 c -5.88102,-12.33296 -6.93223,-13.98029 -8.63693,-13.53448 -1.66575,0.4356 -1.85473,0.18539 -1.33293,-1.76479 0.3344,-1.24979 0.6138,-3.22782 0.62088,-4.39565 0.007,-1.25252 0.59341,-2.12329 1.42842,-2.12329 0.77856,0 1.41554,0.53483 1.41554,1.18852 0,0.65369 0.88161,1.73911 1.95911,2.41202 1.47062,0.91841 1.70434,1.53052 0.9373,2.45474 -0.7658,0.92272 0.53305,4.51561 5.18348,14.33851 3.41293,7.20898 6.60079,13.24881 7.0841,13.4218 1.41617,0.50694 1.00846,2.04468 -0.54211,2.04468 -0.9017,0 -3.86748,-5.13076 -8.11686,-14.04206 z m 10.95327,13.09837 c -0.32077,-0.51904 0.0787,-0.9437 0.88801,-0.9437 0.80916,0 1.47122,0.42466 1.47122,0.9437 0,0.51902 -0.39959,0.94369 -0.888,0.94369 -0.48838,0 -1.15045,-0.42467 -1.47123,-0.94369 z m 4.24661,0 c 0,-0.51904 0.637,-0.9437 1.41555,-0.9437 0.77854,0 1.41554,0.42466 1.41554,0.9437 0,0.51902 -0.637,0.94369 -1.41554,0.94369 -0.77855,0 -1.41555,-0.42467 -1.41555,-0.94369 z m 3.77478,0 c 0,-0.51904 0.63699,-0.9437 1.41553,-0.9437 0.77854,0 1.41554,0.42466 1.41554,0.9437 0,0.51902 -0.637,0.94369 -1.41554,0.94369 -0.77854,0 -1.41553,-0.42467 -1.41553,-0.94369 z m 4.2466,0 c -0.32077,-0.51904 0.31622,-0.9437 1.41554,-0.9437 1.09933,0 1.73632,0.42466 1.41554,0.9437 -0.32079,0.51902 -0.95779,0.94369 -1.41554,0.94369 -0.45776,0 -1.09476,-0.42467 -1.41554,-0.94369 z M 306.52845,198.00312 c -0.35395,-0.35395 -0.64354,-6.09337 -0.64354,-12.75425 v -12.11072 h 17.39347 17.39346 l 17.75905,-17.41801 17.75904,-17.41802 -24.77192,-0.0404 c -19.15063,-0.0312 -24.77857,-0.30797 -24.80132,-1.21991 -0.0163,-0.64878 -0.003,-25.80515 0.0286,-39.170177 l 0.0581,-46.547134 H 310.63206 294.56074 V 99.051268 138.22146 H 211.0439 127.5272 V 99.051389 51.324623 h -26.3054 c -14.467969,0 -27.738637,-0.318496 -29.490358,-0.707769 -1.788053,-0.397345 9.64593,-0.914718 26.069469,-1.179614 l 29.254439,-0.471846 0.25548,-19.114877 0.25549,-25.9601351 83.26122,0.2410464 83.26121,0.2410464 0.25554,25.9777403 0.25553,19.132482 15.78721,-0.258651 15.78723,-0.258652 0.20714,-17.930137 c 0.11394,-9.861577 0.22009,-25.3062256 0.23593,-25.9550133 0.0228,-0.9345883 17.39047,-2.5351767 83.54546,-1.1796153 H 493.6795 V 30.091564 49.43724 h 14.13583 14.13583 l 0.25546,-19.109753 0.25547,-25.9550114 h 83.51669 83.5167 l 0.25547,25.9550114 0.25546,19.109753 18.61838,0.111653 c 10.64466,0.06383 17.40589,0.420172 15.78729,0.832037 -1.55711,0.396214 -9.93723,0.770631 -18.6225,0.832039 l -15.79143,0.111654 -0.25133,47.490843 -0.25134,38.934274 h -83.5167 -83.51669 L 522.21076,98.815466 521.95942,51.324623 H 507.81946 493.6795 v 47.715426 39.158831 l -35.33614,0.24727 -35.33614,0.24728 9.53614,17.17659 c 6.93114,12.48448 10.07475,17.28288 11.50792,17.56569 1.08448,0.21402 0.23945,0.44695 -1.8779,0.51762 -3.11168,0.10389 -3.83532,-0.18806 -3.77476,-1.52294 0.0413,-0.9083 -3.95935,-8.97236 -8.89013,-17.92011 l -8.96508,-16.26866 -20.76121,0.0242 -20.76122,0.0242 -17.22238,16.92727 c -9.47228,9.30998 -17.22236,17.15084 -17.22236,17.42414 0,0.27328 3.62194,0.49688 8.04878,0.49688 h 8.04876 l -0.26331,12.5039 -0.26332,12.50391 -26.48759,0.25032 c -14.56818,0.13768 -26.77719,-0.0393 -27.13113,-0.3932 z m 52.20318,-12.59696 v -11.32432 h -25.47967 -25.47968 v 11.32432 11.32429 h 25.47968 25.47967 z M 292.67323,56.514926 V 5.7880122 H 211.04392 129.41461 V 31.035257 49.43724 h 2.83106 c 1.88739,0 2.83108,-0.471846 2.83108,-1.415537 0,-1.798862 1.8198,-1.765307 4.24662,0.0783 1.82622,1.387357 1.90267,1.256438 2.35923,-4.040703 l 0.47183,-5.474515 36.80399,-0.262633 c 20.24217,-0.144449 37.77205,-0.02702 38.95527,0.260932 2.11698,0.515209 2.1471,0.715161 1.88738,12.530622 L 219.53715,80.233917 180.60988,80.480308 141.6826,80.7267 V 57.444854 51.276158 l -2.78422,1.439771 c -3.45615,1.787239 -3.82163,1.789557 -3.82163,0.02425 0,-0.943693 -0.94369,-1.415538 -2.83108,-1.415538 h -2.83106 V 98.107697 136.3342 h 81.62931 81.62931 z M 167.80149,130.05303 c -0.35157,-0.35158 -0.63922,-6.08906 -0.63922,-12.74995 V 91.501854 h 40.60612 40.60613 l -0.26332,26.194426 -0.26332,12.50392 -39.70357,0.24603 c -21.83697,0.13531 -39.99123,-0.0416 -40.34282,-0.3932 z m 79.57454,-12.59267 V 92.445547 H 207.741 168.10595 v 25.014813 11.3243 H 207.741 247.37603 Z M 223.99228,51.088701 224.2556,38.584788 h 23.12043 23.12044 l 0.26333,12.503913 0.26331,29.617061 h -23.64708 -23.64705 z m 45.82638,0 0.26587,-11.088376 H 247.406 224.72745 v 10.695172 c 0,5.882343 0.29073,28.099059 0.64608,28.45441 0.35536,0.355351 10.44107,0.532292 22.41268,0.393204 l 21.76658,-0.252888 z m 109.81098,84.004319 c 0,1.58021 1.33426,-1.47936 0.40393,-2.75167 -0.81886,-1.11982 -2.99935,-2.8467 -7.21448,-1.85583 l -6.06608,-0.28532 -0.26338,-12.51396 -0.26338,-26.204482 40.84212,0.245972 40.84211,0.245971 0.26627,25.412219 c 0.0917,8.74526 -0.0412,11.91675 -0.94369,12.48946 -0.66548,0.42228 -6.94289,0.78078 -13.9498,0.79665 -8.69946,0.0198 -12.29089,0.32362 -11.32429,0.95815 1.18742,0.77949 1.20593,1.06432 0.11502,1.76744 -3.94741,2.54409 0.71134,2.93657 34.85726,2.93657 h 34.8609 V 56.514926 5.7880122 h -81.62934 -81.6293 V 31.035257 49.43724 h 2.83108 c 1.88737,0 2.83106,-0.471846 2.83106,-1.415537 0,-1.798862 1.81981,-1.765307 4.24662,0.0783 1.82623,1.387357 1.90267,1.256438 2.35923,-4.040703 l 0.47184,-5.474515 36.80396,-0.262633 c 20.2422,-0.144449 37.77207,-0.02702 38.95529,0.260932 2.117,0.515209 2.14711,0.715161 1.88738,12.530622 l -0.26392,29.12021 -38.92728,0.246392 -38.92727,0.246391 v -23.28185 -6.168696 l -2.78421,1.439771 c -3.45614,1.787239 -3.82164,1.789557 -3.82164,0.02425 0,-0.943693 -0.94369,-1.415538 -2.83106,-1.415538 h -2.83108 v 46.78306 38.226504 l 24.7719,-0.03 c 18.33932,-0.0223 26.32423,-2.65525 26.32423,-1.21118 z m 43.48144,-83.988058 0.26342,-12.520174 22.531,-0.253281 c 16.09907,-0.180979 22.90927,0.06066 23.85612,0.8465 1.0328,0.857133 1.26696,3.619735 1.06131,12.521272 l -0.26385,28.534636 -23.85572,0.252185 -23.85571,0.252185 z m 46.03246,0.219661 V 40.000325 h -22.17675 -22.17675 v 11.324298 28.437448 h 22.17675 22.17675 z m -53.79041,82.178487 v -2.83108 h -14.15538 c -7.78545,0 -14.16117,0.31852 -14.16825,0.7078 -0.007,0.38925 -0.40445,1.63513 -0.58191,2.83106 l -0.56903,2.1233 h 14.73729 14.73728 z M 687.13628,56.514926 V 5.7880122 H 605.9788 524.82134 V 31.035257 49.43724 h 2.83107 c 1.88739,0 2.83108,-0.471846 2.83108,-1.415537 0,-1.586717 2.40184,-1.929836 3.30292,-0.471846 1.30971,2.119142 2.35924,0.701208 2.35924,-3.18737 0,-2.341327 0.55864,-4.594705 1.28948,-5.201244 0.92499,-0.767672 11.92851,-1.0004 38.92727,-0.823318 l 37.63779,0.246863 0.26338,12.514404 0.26341,29.627551 -38.95476,-0.246413 -38.95474,-0.246415 -0.28302,-22.539374 c -0.0638,-5.079891 -1.18365,-6.690178 -2.54805,-4.482534 -0.90108,1.45799 -3.30292,1.114871 -3.30292,-0.471847 0,-0.943691 -0.94369,-1.415537 -2.83108,-1.415537 h -2.83107 v 46.783064 38.226503 h 81.15746 81.15748 z M 562.66215,129.36873 c -0.73532,-0.88599 -0.91801,-5.02182 -0.83176,-12.51405 l 0.26677,-24.880979 40.84212,-0.245971 40.84211,-0.245972 -0.26339,26.204482 -0.26337,12.51396 -39.74699,0.24607 c -33.17123,0.20534 -39.92875,0.0271 -40.84549,-1.07754 z M 642.57679,117.69628 642.31094,92.917394 602.9118,92.67112 563.51269,92.424838 v 25.025172 11.33465 h 39.66499 39.66499 z M 618.87593,80.076633 c -0.34602,-0.346019 -0.62914,-22.715435 -0.62914,-28.793742 0,-8.224291 0.33187,-11.326881 1.29723,-12.128066 0.91131,-0.756327 7.99988,-1.001254 23.82821,-0.823318 l 22.53099,0.253281 0.26331,12.503913 0.26332,29.617061 h -23.4624 c -12.90433,0 -23.74551,-0.283108 -24.09152,-0.629129 z m 45.6904,-0.704105 c 0.21626,-0.214248 0.26133,-22.42333 0.10011,-28.437448 l -0.29302,-10.934755 h -22.11963 -22.11962 v 11.324298 28.437448 h 22.01947 c 12.11073,0 22.19643,-0.175294 22.41269,-0.389543 z M 446.49494,117.45001 V 92.424838 l -39.39911,0.246282 -39.39914,0.246274 -0.26587,24.778886 -0.26585,11.08838 h 39.66498 39.66499 z M 218.1216,51.324623 V 40.000325 h -37.74766 -37.74766 v 10.695172 c 0,5.882343 0.28312,28.091426 0.62913,28.437444 0.34602,0.34602 17.33247,0.62913 37.74766,0.62913 h 37.11853 z m 199.11892,0 V 40.000325 H 379.49285 341.7452 v 11.324298 28.437448 h 37.74765 37.74767 z m 196.28782,0 V 40.000325 h -37.74766 -37.74767 v 11.324298 28.437448 h 37.74767 37.74766 z M 419.12788,197.67415 c 0,-0.51904 0.63701,-0.9437 1.41555,-0.9437 0.77854,0 1.41554,0.42466 1.41554,0.9437 0,0.51902 -0.637,0.94368 -1.41554,0.94368 -0.77854,0 -1.41555,-0.42466 -1.41555,-0.94368 z m 3.77478,0 c 0,-0.51904 0.84932,-0.9437 1.88738,-0.9437 1.03806,0 1.88738,0.42466 1.88738,0.9437 0,0.51902 -0.84932,0.94368 -1.88738,0.94368 -1.03806,0 -1.88738,-0.42466 -1.88738,-0.94368 z m 4.71845,0 c 0,-0.51904 0.84933,-0.9437 1.8874,-0.9437 1.03804,0 1.88737,0.42466 1.88737,0.9437 0,0.51902 -0.84933,0.94368 -1.88737,0.94368 -1.03807,0 -1.8874,-0.42466 -1.8874,-0.94368 z m 9.43693,0 c 0,-0.51904 0.63698,-0.9437 1.41553,-0.9437 0.77853,0 1.41554,0.42466 1.41554,0.9437 0,0.51902 -0.63701,0.94368 -1.41554,0.94368 -0.77855,0 -1.41553,-0.42466 -1.41553,-0.94368 z m 4.71846,0 c 0,-0.51904 0.63698,-0.9437 1.41552,-0.9437 0.77856,0 1.41554,0.42466 1.41554,0.9437 0,0.51902 -0.63698,0.94368 -1.41554,0.94368 -0.77854,0 -1.41552,-0.42466 -1.41552,-0.94368 z m 4.2466,0 c -0.32078,-0.51904 0.29116,-0.9437 1.35984,-0.9437 1.06868,0 1.94309,0.42466 1.94309,0.9437 0,0.51902 -0.61194,0.94368 -1.35986,0.94368 -0.74791,0 -1.6223,-0.42466 -1.94307,-0.94368 z m 4.24661,0 c 0,-0.51904 0.84933,-0.9437 1.88739,-0.9437 1.03805,0 1.88738,0.42466 1.88738,0.9437 0,0.51902 -0.84933,0.94368 -1.88738,0.94368 -1.03806,0 -1.88739,-0.42466 -1.88739,-0.94368 z m 9.43693,0 c 0,-0.51904 0.63698,-0.9437 1.41553,-0.9437 0.77853,0 1.41553,0.42466 1.41553,0.9437 0,0.51902 -0.637,0.94368 -1.41553,0.94368 -0.77855,0 -1.41553,-0.42466 -1.41553,-0.94368 z m 4.71845,0 c 0,-0.51904 0.63699,-0.9437 1.41553,-0.9437 0.77854,0 1.41554,0.42466 1.41554,0.9437 0,0.51902 -0.637,0.94368 -1.41554,0.94368 -0.77854,0 -1.41553,-0.42466 -1.41553,-0.94368 z m 3.77475,0 c 0,-0.51904 0.84934,-0.9437 1.8874,-0.9437 1.31545,0 1.88738,-0.62914 1.88738,-2.07612 0,-1.48911 0.28875,-1.78739 1.02117,-1.05496 0.73243,0.73244 0.66824,1.58629 -0.227,3.01981 -1.26466,2.02506 -4.56895,2.78802 -4.56895,1.05497 z m -49.5946,-2.91331 c -0.34874,-0.56427 -0.16146,-1.49852 0.41613,-2.07611 0.77117,-0.77117 1.05021,-0.49856 1.05021,1.02591 0,2.27855 -0.49021,2.62964 -1.46634,1.0502 z m 53.36938,-4.1644 c 0,-0.77853 0.42464,-1.41552 0.94369,-1.41552 0.51902,0 0.94369,0.63699 0.94369,1.41552 0,0.77856 -0.42467,1.41555 -0.94369,1.41555 -0.51905,0 -0.94369,-0.63699 -0.94369,-1.41555 z m -53.36938,-0.55405 c -0.34874,-0.56427 -0.16146,-1.49852 0.41613,-2.07613 0.77117,-0.77114 1.05021,-0.49854 1.05021,1.02593 0,2.27854 -0.49021,2.62964 -1.46634,1.0502 z m 53.36938,-4.22009 c 0,-0.80918 0.42464,-1.20877 0.94369,-0.888 0.51902,0.32079 0.94369,0.98284 0.94369,1.47124 0,0.4884 -0.42467,0.888 -0.94369,0.888 -0.51905,0 -0.94369,-0.66207 -0.94369,-1.47124 z m -53.36938,-0.49838 c -0.34874,-0.56424 -0.16146,-1.49851 0.41613,-2.07612 0.77117,-0.77114 1.05021,-0.49853 1.05021,1.02592 0,2.27855 -0.49021,2.62965 -1.46634,1.0502 z m 53.36938,-3.69253 c 0,-1.76157 0.25164,-2.01321 1.13243,-1.13243 0.88076,0.88077 0.88076,1.38408 0,2.26485 -0.88079,0.88077 -1.13243,0.62914 -1.13243,-1.13242 z m -53.79042,-1.41554 c 0,-0.77855 0.42466,-1.41554 0.94368,-1.41554 0.51905,0 0.9437,0.63699 0.9437,1.41554 0,0.77854 -0.42465,1.41554 -0.9437,1.41554 -0.51902,0 -0.94368,-0.637 -0.94368,-1.41554 z m 53.79042,-3.30291 c 0,-1.76157 0.25164,-2.01323 1.13243,-1.13245 0.88076,0.88078 0.88076,1.38409 0,2.26487 -0.88079,0.88078 -1.13243,0.62913 -1.13243,-1.13242 z m -53.41953,-1.49275 c 0.31504,-0.82098 0.57279,-1.67029 0.57279,-1.88737 0,-0.21707 0.9555,-0.34539 2.12333,-0.28519 1.59783,0.0823 1.71459,0.21627 0.47183,0.54105 -0.9083,0.23736 -1.65146,1.03741 -1.65146,1.77792 0,0.74048 -0.47009,1.34634 -1.04466,1.34634 -0.57455,0 -0.78688,-0.67173 -0.47183,-1.49275 z m 5.99904,-1.96332 c 0.64877,-0.2618 1.71043,-0.2618 2.35922,0 0.64879,0.26178 0.11796,0.47598 -1.17962,0.47598 -1.29756,0 -1.8284,-0.2142 -1.1796,-0.47598 z m 4.77741,-0.0197 c 0,0.73375 1.49517,-0.23907 1.80877,0.0745 0.31357,0.31358 -0.2438,0.53662 -1.23861,0.49564 -1.09935,-0.0453 -0.57016,-1.38098 -0.57016,-0.57014 z m 4.71847,0 c 0,0.73375 1.49517,-0.23907 1.80876,0.0745 0.31357,0.31358 -0.24381,0.53662 -1.23861,0.49564 -1.09934,-0.0453 -0.57015,-1.38099 -0.57015,-0.57014 z m 13.1527,0.0197 c 0.6488,-0.2618 1.71045,-0.2618 2.35923,0 0.64879,0.26178 0.11797,0.47598 -1.17962,0.47598 -1.29757,0 -1.8284,-0.2142 -1.17961,-0.47598 z m 4.71846,0 c 0.64879,-0.2618 1.71045,-0.2618 2.35922,0 0.6488,0.26178 0.11796,0.47598 -1.17961,0.47598 -1.29757,0 -1.82839,-0.2142 -1.17961,-0.47598 z m 4.77745,-0.0197 c 0,0.73375 1.49515,-0.23907 1.80873,0.0745 0.31359,0.31358 -0.24378,0.53662 -1.23859,0.49564 -1.09935,-0.0453 -0.57014,-1.38098 -0.57014,-0.57014 z m 4.71845,0 c 0,0.73376 1.49517,-0.23907 1.80875,0.0745 0.31356,0.31358 -0.24381,0.53662 -1.23861,0.49564 -1.09934,-0.0453 -0.57014,-1.38098 -0.57014,-0.57014 z m 3.71579,0.0197 c 0.6488,-0.2618 1.71044,-0.2618 2.35922,0 0.64879,0.26178 0.11796,0.47598 -1.17962,0.47598 -1.29757,0 -1.8284,-0.2142 -1.1796,-0.47598 z m 4.71844,0 c 0.64879,-0.2618 1.71046,-0.2618 2.35923,0 0.64879,0.26178 0.11796,0.47598 -1.1796,0.47598 -1.29758,0 -1.82841,-0.2142 -1.17963,-0.47598 z" />
  </g>
</svg>
