<?xml version="1.0" encoding="UTF-8" standalone="no"?>
<svg xmlns="http://www.w3.org/2000/svg" viewBox="0 0 800 315" height="315" width="800">
  <style>
    .svgText {
      font-family: "Courier New", Courier, monospace;";
      font-size: 16px;
      line-height: 1.25;
      text-align: center;
    }
  </style>
  <g>
    <text class="svgText" x="345" y="107.15304" style="font-size:16px;line-height:1.25;">transakcija</text>
    <text class="svgText" x="350" y="142.23262" style="font-size:16px;line-height:1.25;">ulaz</text>
    <text class="svgText" x="405" y="142.5851" style="font-size:16px;line-height:1.25;">izlaz</text>
    <text class="svgText" x="350" y="175.85881" style="font-size:16px;line-height:1.25;">ulaz</text>
    <path d="m 335,223 v -16 h -31 c -26.88889,0 -31,-0.19892 -31,-1.5 0,-1.30108 4.11111,-1.5 31,-1.5 h 31 V 188.5 173 h -31 c -26.88889,0 -31,-0.19892 -31,-1.5 0,-1.30108 4.11111,-1.5 31,-1.5 h 31 v -16 -16 h -31 c -26.88889,0 -31,-0.19892 -31,-1.5 0,-1.30108 4.11111,-1.5 31,-1.5 h 31 V 108 81 h 64 64 v 27 27 h 26 c 25.33333,0 26,-0.0513 26,-2 0,-1.1 0.46793,-2 1.03984,-2 1.79973,0 8.96016,3.9957 8.96016,5 0,1.0043 -7.16043,5 -8.96016,5 C 515.46793,141 515,140.325 515,139.5 c 0,-1.29487 -3.55556,-1.5 -26,-1.5 h -26 v 16 16 h 26 c 25.33333,0 26,-0.0513 26,-2 0,-1.1 0.46793,-2 1.03984,-2 1.79973,0 8.96016,3.9957 8.96016,5 0,1.0043 -7.16043,5 -8.96016,5 C 515.46793,176 515,175.325 515,174.5 c 0,-1.29487 -3.55556,-1.5 -26,-1.5 h -26 v 33 33 H 399 335 Z M 460,204.5 V 173 h -4.5 -4.5 v 6.5 6.5 h -24 -24 v -15 -15 h 24 24 v 7 7 h 4.5 4.5 v -16 -16 h -4.5 -4.5 v 7 7 h -24 -24 v -15 -15 h 24 24 v 6.5 6.5 h 4.5 4.5 V 109.5 84 h -61 -61 v 23.31479 23.31479 l 3.53393,1.68521 c 1.94366,0.92686 3.74366,1.68521 4,1.68521 0.25634,0 0.46607,-2.7 0.46607,-6 v -6 h 24 24 v 15 15 h -24 -24 v -7 c 0,-3.85 -0.20973,-7 -0.46607,-7 -0.25634,0 -2.05634,0.75835 -4,1.68521 L 338,141.37042 V 153.5 165.62958 l 3.53393,1.68521 c 1.94366,0.92686 3.74366,1.68521 4,1.68521 C 345.79027,169 346,166.075 346,162.5 V 156 h 24 24 v 15 15 h -24 -24 v -6.5 c 0,-3.575 -0.20973,-6.5 -0.46607,-6.5 -0.25634,0 -2.05634,0.75835 -4,1.68521 L 338,176.37042 V 188 199.62958 l 3.53393,1.68521 c 1.94366,0.92686 3.74366,1.68521 4,1.68521 C 345.79027,203 346,200.075 346,196.5 V 190 h 24 24 v 15 15 h -24 -24 v -6.5 c 0,-3.575 -0.20973,-6.5 -0.46607,-6.5 -0.25634,0 -2.05634,0.75835 -4,1.68521 L 338,210.37042 V 223.18521 236 h 61 61 z m -69,0.5 v -12 h -21 -21 v 12 12 h 21 21 z m -28,1.5 c 0,-0.825 0.675,-1.5 1.5,-1.5 0.825,0 1.5,0.675 1.5,1.5 0,0.825 -0.675,1.5 -1.5,1.5 -0.825,0 -1.5,-0.675 -1.5,-1.5 z m 5,0 c 0,-0.825 0.675,-1.5 1.5,-1.5 0.825,0 1.5,0.675 1.5,1.5 0,0.825 -0.675,1.5 -1.5,1.5 -0.825,0 -1.5,-0.675 -1.5,-1.5 z m 5,0 c 0,-0.825 0.675,-1.5 1.5,-1.5 0.825,0 1.5,0.675 1.5,1.5 0,0.825 -0.675,1.5 -1.5,1.5 -0.825,0 -1.5,-0.675 -1.5,-1.5 z M 391,171 v -12 h -21 -21 v 12 12 h 21 21 z m 57,0 v -12 h -21 -21 v 12 12 h 21 21 z m -28,0.5 c 0,-0.825 0.675,-1.5 1.5,-1.5 0.825,0 1.5,0.675 1.5,1.5 0,0.825 -0.675,1.5 -1.5,1.5 -0.825,0 -1.5,-0.675 -1.5,-1.5 z m 5,0 c 0,-0.825 0.675,-1.5 1.5,-1.5 0.825,0 1.5,0.675 1.5,1.5 0,0.825 -0.675,1.5 -1.5,1.5 -0.825,0 -1.5,-0.675 -1.5,-1.5 z m 5,0 c 0,-0.825 0.675,-1.5 1.5,-1.5 0.825,0 1.5,0.675 1.5,1.5 0,0.825 -0.675,1.5 -1.5,1.5 -0.825,0 -1.5,-0.675 -1.5,-1.5 z M 391,137 v -12 h -21 -21 v 12 12 h 21 21 z m 57,0 v -12 h -21 -21 v 12 12 h 21 21 z"/>
  </g>
</svg>
