<?xml version="1.0" encoding="UTF-8" standalone="no"?>
<svg xmlns="http://www.w3.org/2000/svg" viewBox="0 0 800 410" height="410" width="800">
  <style>
    .svgText {
      font-family: "Courier New", Courier, monospace;";
      font-size: 16px;
      line-height: 1.25;
      text-align: center;
    }
  </style>
  <g>
    <text class="svgText" x="37.805931" y="27.038845">blok</text>
    <text class="svgText" x="110" y="44">heder bloka (haš bloka)</text>
    <text class="svgText" x="140" y="75.399254">pret. haš</text>
    <text class="svgText" x="275.76428" y="75.896408">nons</text>
    <text class="svgText" x="160" y="118.51517">haš korena</text>
    <text class="svgText" x="105" y="199.36433">haš01</text>
    <text class="svgText" x="265" y="200.46869">haš23</text>
    <text class="svgText" x="65" y="283.68069">haš0</text>
    <text class="svgText" x="148" y="283.23318">haš1</text>
    <text class="svgText" x="230" y="282.82422">haš2</text>
    <text class="svgText" x="310" y="283.14438">haš3</text>
    <text class="svgText" x="70" y="352">tx0</text>
    <text class="svgText" x="152" y="352">tx1</text>
    <text class="svgText" x="232" y="352">tx2</text>
    <text class="svgText" x="315" y="352">tx3</text>
    <text class="svgText" x="25" y="396.44769">transakcije hašovane u merkle stablu</text>
    <text class="svgText" x="435.85968" y="28.093901">blok</text>
    <text class="svgText" x="510" y="44">heder bloka (haš bloka)</text>
    <text class="svgText" x="535" y="76.07399">pret. haš</text>
    <text class="svgText" x="673.17267" y="75.683441">nons</text>
    <text class="svgText" x="558" y="117.73734">haš korena</text>
    <text class="svgText" x="495" y="200.90393">haš01</text>
    <text class="svgText" x="665" y="200.58377">haš23</text>
    <text class="svgText" x="625" y="283.09457">haš2</text>
    <text class="svgText" x="710" y="283.33585">haš3</text>
    <text class="svgText" x="715" y="351.06116">tx3</text>
    <text class="svgText" x="437" y="396.42633">nakon odsecanja tx0-tx2 sa stabla</text>
    <path d="M 27.965198,375.19433 C 27.539819,374.76895 27.191783,290.86344 27.191783,188.73765 V 3.0543758 L 200.07576,3.3467571 372.95974,3.6391383 V 189.51107 375.38298 l -172.11056,0.29239 c -94.66081,0.16081 -172.458603,-0.0557 -172.883982,-0.48104 z M 370.07353,188.93382 V 5.3708648 H 199.78714 29.500751 V 188.93382 372.49677 H 199.78714 370.07353 Z M 54.253973,360.61331 c -0.323817,-0.84385 -0.440946,-7.47697 -0.260287,-14.74026 l 0.32847,-13.20597 13.565188,-0.32526 13.565187,-0.32526 v -11.50821 c 0,-9.45986 -0.308237,-11.50819 -1.731727,-11.50819 -2.177241,0 -2.173119,-1.55802 0.02367,-8.95538 0.96546,-3.25105 1.614857,-6.33257 1.443104,-6.84783 -0.171752,-0.51524 0.207242,-1.19055 0.842208,-1.50068 1.168569,-0.57072 6.154612,11.56171 6.281039,15.28354 0.03775,1.11118 -0.710653,2.02035 -1.663104,2.02035 -1.423859,0 -1.731725,2.05241 -1.731725,11.54484 v 11.54484 h 13.311065 13.311049 l -0.3231,14.71967 -0.32312,14.71966 -28.02457,0.30922 c -22.461096,0.24782 -28.141451,0.004 -28.61333,-1.22508 z M 109.16015,347.09813 V 334.39881 H 83.184256 57.208367 v 12.69932 12.69933 h 25.975889 25.975894 z m 28.49732,14.25867 c -0.43434,-0.43433 -0.78971,-7.19707 -0.78971,-15.02833 v -14.23863 h 13.85381 13.85381 V 320.545 c 0,-10.77518 -0.15392,-11.54484 -2.30897,-11.54484 -2.85818,0 -2.85683,-0.3551 0.0332,-8.75543 1.46238,-4.25045 1.89338,-6.95754 1.1473,-7.20624 -1.34184,-0.44729 -0.4359,-2.51008 1.10244,-2.51008 0.54572,0 2.14963,3.50674 3.56423,7.79277 1.41462,4.28602 2.81136,8.44216 3.10387,9.23587 0.31919,0.86615 -0.44069,1.44311 -1.90065,1.44311 -2.31098,0 -2.43249,0.57486 -2.43249,11.50819 v 11.50821 l 13.56519,0.32526 13.56517,0.32526 v 14.43105 14.43104 l -27.78377,0.30867 c -15.28108,0.16976 -28.13914,-0.0468 -28.57347,-0.48104 z M 192.283,347.09813 v -12.69932 h -26.55314 -26.55313 v 12.69932 12.69933 h 26.55313 26.55314 z m 27.70761,0.0205 V 332.0898 h 13.27656 13.27657 v -11.54484 c 0,-10.77518 -0.15392,-11.54484 -2.30897,-11.54484 -2.79821,0 -2.79866,0.63032 0.005,-7.52003 1.27293,-3.69984 2.18561,-7.28792 2.02818,-7.97349 -0.15743,-0.68558 0.15756,-1.50627 0.69999,-1.82375 0.94719,-0.55439 6.44365,12.90394 6.48308,15.87416 0.0105,0.7937 -1.01987,1.44311 -2.28981,1.44311 -2.15504,0 -2.30896,0.76966 -2.30896,11.54484 v 11.54484 h 13.8883 13.88829 l -0.3231,14.71967 -0.32312,14.71966 -27.99623,0.30915 -27.99624,0.30915 v -15.02882 z m 54.26075,-0.0205 v -12.69932 h -26.55313 -26.55314 v 12.69932 12.69933 h 26.55314 26.55313 z m 28.49731,14.25867 c -0.43434,-0.43433 -0.78969,-7.19707 -0.78969,-15.02833 v -14.23863 h 13.8538 13.85381 V 320.545 c 0,-10.77518 -0.15393,-11.54484 -2.30897,-11.54484 -2.87644,0 -2.88565,-1.42584 -0.0623,-9.63238 1.25765,-3.65541 1.73591,-6.5304 1.08635,-6.5304 -0.63824,0 -0.85338,-0.49684 -0.47809,-1.10407 1.52661,-2.47007 3.92051,0.49455 5.79559,7.17729 1.09286,3.89495 2.24672,7.75848 2.56413,8.58563 0.36165,0.94233 -0.33119,1.50393 -1.85533,1.50393 -2.31098,0 -2.43248,0.57486 -2.43248,11.50819 v 11.50821 l 13.56518,0.32526 13.56519,0.32526 v 14.43105 14.43104 l -27.78377,0.30867 c -15.28109,0.16976 -28.13916,-0.0468 -28.57349,-0.48104 z m 54.04829,-14.25867 v -12.12208 l -26.26451,-0.3103 -26.26451,-0.3103 v 12.74268 12.74267 l 26.26451,-0.3103 26.26451,-0.31029 z M 58.951731,291.66407 c 0.398833,-0.64532 1.208769,-0.87444 1.79986,-0.50911 1.601321,0.98966 1.302732,1.68242 -0.725148,1.68242 -0.989923,0 -1.473543,-0.52799 -1.074712,-1.17331 z m 5.183539,-0.0493 c 0,-0.67245 0.519519,-0.90154 1.154484,-0.50911 0.634967,0.39244 1.154484,0.94261 1.154484,1.22263 0,0.28001 -0.519517,0.5091 -1.154484,0.5091 -0.634965,0 -1.154484,-0.55018 -1.154484,-1.22262 z m 5.206815,0.0493 c 0.398829,-0.64532 1.208768,-0.87444 1.799864,-0.50911 1.601316,0.98966 1.302732,1.68242 -0.725154,1.68242 -0.989924,0 -1.473538,-0.52799 -1.07471,-1.17331 z m 5.772421,0 c 0.398828,-0.64532 1.208768,-0.87444 1.799863,-0.50911 1.601316,0.98966 1.302731,1.68242 -0.725154,1.68242 -0.989924,0 -1.473538,-0.52799 -1.074709,-1.17331 z m 11.54484,0 c 0.398827,-0.64532 1.208768,-0.87444 1.799864,-0.50911 1.601314,0.98966 1.302731,1.68242 -0.725156,1.68242 -0.989923,0 -1.473536,-0.52799 -1.074708,-1.17331 z m 5.18354,0.0188 c 0,-0.63496 0.519519,-1.15448 1.154484,-1.15448 0.634967,0 1.154484,0.51952 1.154484,1.15448 0,0.63497 -0.519517,1.15449 -1.154484,1.15449 -0.634965,0 -1.154484,-0.51952 -1.154484,-1.15449 z m 5.206815,-0.0188 c 0.398829,-0.64532 1.208768,-0.87443 1.799864,-0.50911 1.601315,0.98966 1.302735,1.68242 -0.725154,1.68242 -0.989924,0 -1.473538,-0.52799 -1.07471,-1.17331 z m 5.772419,0 c 0.39883,-0.64532 1.20877,-0.87443 1.79986,-0.50911 1.60132,0.98966 1.30274,1.68242 -0.72515,1.68242 -0.98992,0 -1.47354,-0.52799 -1.07471,-1.17331 z m 5.77242,0 c 0.39883,-0.64532 1.20877,-0.87443 1.79986,-0.50911 1.60132,0.98966 1.30274,1.68242 -0.72515,1.68242 -0.98992,0 -1.47354,-0.52799 -1.07471,-1.17331 z m 32.32555,0 c 0.39883,-0.64532 1.20878,-0.87443 1.79987,-0.50911 1.60131,0.98966 1.30273,1.68242 -0.72516,1.68242 -0.98992,0 -1.47353,-0.52799 -1.07471,-1.17331 z m 5.77243,0 c 0.39882,-0.64532 1.20876,-0.87443 1.79986,-0.50911 1.60132,0.98966 1.30272,1.68242 -0.72516,1.68242 -0.98992,0 -1.47354,-0.52799 -1.0747,-1.17331 z m 5.18353,0.0188 c 0,-0.63496 0.48886,-1.15448 1.08635,-1.15448 0.5975,0 1.40743,0.51952 1.79987,1.15448 0.39243,0.63497 -0.0965,1.15449 -1.08636,1.15449 -0.98991,0 -1.79986,-0.51952 -1.79986,-1.15449 z m 5.20682,-0.0188 c 0.39882,-0.64532 1.20877,-0.87443 1.79986,-0.50911 1.60132,0.98966 1.30274,1.68242 -0.72515,1.68242 -0.98993,0 -1.47353,-0.52799 -1.07471,-1.17331 z m 11.54484,0 c 0.39882,-0.64532 1.20876,-0.87443 1.79986,-0.50911 1.60132,0.98966 1.30274,1.68242 -0.72515,1.68242 -0.98993,0 -1.47353,-0.52799 -1.07471,-1.17331 z m 5.77242,0 c 0.39883,-0.64532 1.20877,-0.87443 1.79986,-0.50911 1.60131,0.98966 1.30273,1.68242 -0.72516,1.68242 -0.98991,0 -1.47353,-0.52799 -1.0747,-1.17331 z m 5.18354,0.0188 c 0,-0.63496 0.48886,-1.15448 1.08635,-1.15448 0.59748,0 1.40743,0.51952 1.79986,1.15448 0.39244,0.63497 -0.0964,1.15449 -1.08635,1.15449 -0.98992,0 -1.79986,-0.51952 -1.79986,-1.15449 z m 5.20682,-0.0188 c 0.39882,-0.64532 1.20876,-0.87443 1.79986,-0.50911 1.60132,0.98966 1.30273,1.68242 -0.72515,1.68242 -0.98993,0 -1.47355,-0.52799 -1.07471,-1.17331 z m 5.77241,0 c 0.39884,-0.64532 1.20877,-0.87443 1.79987,-0.50911 1.60131,0.98966 1.30273,1.68242 -0.72516,1.68242 -0.98991,0 -1.47353,-0.52799 -1.07471,-1.17331 z m 32.89116,0.0188 c 0,-0.63496 0.48886,-1.15448 1.08634,-1.15448 0.5975,0 1.40743,0.51952 1.79987,1.15448 0.39243,0.63497 -0.0964,1.15449 -1.08635,1.15449 -0.98992,0 -1.79986,-0.51952 -1.79986,-1.15449 z m 5.20682,-0.0188 c 0.39882,-0.64532 1.20876,-0.87443 1.79986,-0.50911 1.60132,0.98966 1.30274,1.68242 -0.72515,1.68242 -0.98993,0 -1.47354,-0.52799 -1.07471,-1.17331 z m 5.77242,0 c 0.39883,-0.64532 1.20877,-0.87443 1.79986,-0.50911 1.60131,0.98966 1.30273,1.68242 -0.72515,1.68242 -0.98993,0 -1.47354,-0.52799 -1.07471,-1.17331 z m 5.77242,0 c 0.39883,-0.64532 1.20876,-0.87443 1.79986,-0.50911 1.60132,0.98966 1.30274,1.68242 -0.72515,1.68242 -0.98993,0 -1.47354,-0.52799 -1.07471,-1.17331 z m 10.39035,0 c 0.39883,-0.64532 1.20877,-0.87443 1.79987,-0.50911 1.60131,0.98966 1.30273,1.68242 -0.72516,1.68242 -0.98992,0 -1.47353,-0.52799 -1.07471,-1.17331 z m 5.77243,0 c 0.39882,-0.64532 1.20876,-0.87443 1.79986,-0.50911 1.60132,0.98966 1.30272,1.68242 -0.72515,1.68242 -0.98993,0 -1.47355,-0.52799 -1.07471,-1.17331 z m 5.77241,0 c 0.39883,-0.64532 1.20877,-0.87443 1.79987,-0.50911 1.60131,0.98966 1.30273,1.68242 -0.72516,1.68242 -0.98992,0 -1.47353,-0.52799 -1.07471,-1.17331 z m 5.18354,-0.0493 c 0,-0.67245 0.51952,-0.90154 1.15448,-0.50911 0.63498,0.39244 1.15449,0.94261 1.15449,1.22263 0,0.28001 -0.51951,0.5091 -1.15449,0.5091 -0.63496,0 -1.15448,-0.55018 -1.15448,-1.22262 z m 5.20681,0.0493 c 0.39884,-0.64532 1.20878,-0.87444 1.79987,-0.50911 1.60132,0.98966 1.30273,1.68242 -0.72516,1.68242 -0.98991,0 -1.47353,-0.52799 -1.07471,-1.17331 z m 33.48005,0 c 0.39882,-0.64532 1.20876,-0.87444 1.79986,-0.50911 1.60131,0.98966 1.30273,1.68242 -0.72515,1.68242 -0.98993,0 -1.47355,-0.52799 -1.07471,-1.17331 z m 5.77241,0 c 0.39884,-0.64532 1.20877,-0.87444 1.79987,-0.50911 1.60131,0.98966 1.30273,1.68242 -0.72516,1.68242 -0.98991,0 -1.47353,-0.52799 -1.07471,-1.17331 z m 5.77243,0 c 0.39882,-0.64532 1.20876,-0.87444 1.79986,-0.50911 1.60132,0.98966 1.30273,1.68242 -0.72515,1.68242 -0.98993,0 -1.47355,-0.52799 -1.07471,-1.17331 z m 5.18354,0.0188 c 0,-0.63496 0.51951,-1.15448 1.15448,-1.15448 0.63497,0 1.15449,0.51952 1.15449,1.15448 0,0.63497 -0.51952,1.15449 -1.15449,1.15449 -0.63497,0 -1.15448,-0.51952 -1.15448,-1.15449 z m 10.97923,-0.0188 c 0.39883,-0.64532 1.20877,-0.87443 1.79987,-0.50911 1.60131,0.98966 1.30273,1.68242 -0.72516,1.68242 -0.98992,0 -1.47354,-0.52799 -1.07471,-1.17331 z m 5.18354,0.0188 c 0,-0.63496 0.48886,-1.15448 1.08635,-1.15448 0.59749,0 1.40743,0.51952 1.79986,1.15448 0.39244,0.63497 -0.0965,1.15449 -1.08634,1.15449 -0.98993,0 -1.79987,-0.51952 -1.79987,-1.15449 z m 5.20681,-0.0188 c 0.39884,-0.64532 1.20878,-0.87443 1.79987,-0.50911 1.60131,0.98966 1.30273,1.68242 -0.72516,1.68242 -0.98992,0 -1.47353,-0.52799 -1.07471,-1.17331 z m 5.77243,0 c 0.39882,-0.64532 1.20876,-0.87443 1.79986,-0.50911 1.60132,0.98966 1.30274,1.68242 -0.72515,1.68242 -0.98993,0 -1.47354,-0.52799 -1.07471,-1.17331 z m 5.77242,0 c 0.39883,-0.64532 1.20877,-0.87443 1.79986,-0.50911 1.60131,0.98966 1.30273,1.68242 -0.72516,1.68242 -0.98992,0 -1.47353,-0.52799 -1.0747,-1.17331 z M 53.744915,290.52841 c 0,-0.63496 0.519517,-1.15449 1.154484,-1.15449 0.634966,0 1.154484,0.51953 1.154484,1.15449 0,0.63497 -0.519518,1.15448 -1.154484,1.15448 -0.634967,0 -1.154484,-0.51951 -1.154484,-1.15448 z m 83.122845,0 c 0,-0.63496 0.51952,-1.15449 1.15449,-1.15449 0.63496,0 1.15448,0.51953 1.15448,1.15449 0,0.63497 -0.51952,1.15448 -1.15448,1.15448 -0.63497,0 -1.15449,-0.51951 -1.15449,-1.15448 z m 83.21399,-0.67345 c 0.0554,-1.34491 0.32897,-1.61846 0.6975,-0.6975 0.3335,0.83339 0.29249,1.82914 -0.0911,2.21277 -0.38364,0.38361 -0.65648,-0.29826 -0.60636,-1.51527 z m 81.87723,0.67345 c 0,-0.63496 0.51951,-1.15449 1.15447,-1.15449 0.63498,0 1.15449,0.51953 1.15449,1.15449 0,0.63497 -0.51951,1.15448 -1.15449,1.15448 -0.63496,0 -1.15447,-0.51951 -1.15447,-1.15448 z m -192.17228,-2.2292 c -0.36533,-0.59109 -0.13622,-1.40103 0.5091,-1.79986 0.64532,-0.39882 1.17331,0.0848 1.17331,1.07471 0,2.02789 -0.69275,2.32647 -1.68241,0.72515 z m 82.4963,-0.72515 c 0,-0.98992 0.52799,-1.47353 1.17331,-1.07471 0.64532,0.39883 0.87442,1.20877 0.5091,1.79986 -0.98966,1.60132 -1.68241,1.30274 -1.68241,-0.72515 z m 81.96836,0.64538 c 0,-0.63496 0.51951,-1.15448 1.15448,-1.15448 0.63497,0 1.15449,0.51952 1.15449,1.15448 0,0.63497 -0.51952,1.15448 -1.15449,1.15448 -0.63497,0 -1.15448,-0.51951 -1.15448,-1.15448 z m 83.12285,-0.64538 c 0,-0.98992 0.51951,-1.47878 1.15448,-1.08634 0.63496,0.39243 1.15449,1.20237 1.15449,1.79986 0,0.59749 -0.51953,1.08634 -1.15449,1.08634 -0.63497,0 -1.15448,-0.80993 -1.15448,-1.79986 z M 54.371459,285.99025 c -0.365315,-0.5911 -0.136215,-1.40103 0.509107,-1.79987 0.645325,-0.39882 1.173317,0.0848 1.173317,1.07471 0,2.02789 -0.692754,2.32647 -1.682424,0.72516 z m 165.710291,-0.75322 c 0.0554,-1.34491 0.32897,-1.61847 0.6975,-0.69751 0.3335,0.83339 0.29249,1.82914 -0.0911,2.21277 -0.38364,0.38363 -0.65648,-0.29825 -0.60636,-1.51526 z m -83.21399,-0.48104 c 0,-0.63497 0.51952,-1.15448 1.15449,-1.15448 0.63496,0 1.15448,0.51951 1.15448,1.15448 0,0.63497 -0.51952,1.15449 -1.15448,1.15449 -0.63497,0 -1.15449,-0.51952 -1.15449,-1.15449 z m 165.09122,0 c 0,-0.63497 0.51951,-1.15448 1.15447,-1.15448 0.63498,0 1.15449,0.51951 1.15449,1.15448 0,0.63497 -0.51951,1.15449 -1.15449,1.15449 -0.63496,0 -1.15447,-0.51952 -1.15447,-1.15449 z M 109.7867,282.5268 c -0.36533,-0.59109 -0.13622,-1.40104 0.5091,-1.79986 0.64532,-0.39883 1.17331,0.0848 1.17331,1.0747 0,2.02789 -0.69275,2.32647 -1.68241,0.72516 z m 82.4963,-0.72516 c 0,-0.98992 0.52799,-1.47353 1.17331,-1.0747 0.64532,0.39882 0.87442,1.20877 0.5091,1.79986 -0.98966,1.60131 -1.68241,1.30273 -1.68241,-0.72516 z m 81.96836,0.64538 c 0,-0.63496 0.51951,-1.15448 1.15448,-1.15448 0.63497,0 1.15449,0.51952 1.15449,1.15448 0,0.63497 -0.51952,1.15449 -1.15449,1.15449 -0.63497,0 -1.15448,-0.51952 -1.15448,-1.15449 z m 83.12285,0 c 0,-0.63496 0.51951,-1.15448 1.15448,-1.15448 0.63496,0 1.15449,0.51952 1.15449,1.15448 0,0.63497 -0.51953,1.15449 -1.15449,1.15449 -0.63497,0 -1.15448,-0.51952 -1.15448,-1.15449 z M 54.371459,280.21783 c -0.365315,-0.59109 -0.136215,-1.40104 0.509107,-1.79986 0.645325,-0.39883 1.173317,0.0848 1.173317,1.07471 0,2.02788 -0.692754,2.32647 -1.682424,0.72515 z m 82.496301,-0.65702 c 0,-0.95244 0.51952,-1.73173 1.15449,-1.73173 0.63496,0 1.15448,0.77929 1.15448,1.73173 0,0.95246 -0.51952,1.73173 -1.15448,1.73173 -0.63497,0 -1.15449,-0.77927 -1.15449,-1.73173 z m 83.21399,-0.0961 c 0.0554,-1.34491 0.32897,-1.61846 0.6975,-0.6975 0.3335,0.83339 0.29249,1.82914 -0.0911,2.21277 -0.38364,0.38362 -0.65648,-0.29826 -0.60636,-1.51527 z m 81.87723,0.0961 c 0,-0.95244 0.51951,-1.73173 1.15447,-1.73173 0.63498,0 1.15449,0.77929 1.15449,1.73173 0,0.95246 -0.51951,1.73173 -1.15449,1.73173 -0.63496,0 -1.15447,-0.77927 -1.15447,-1.73173 z m -27.70762,-2.24083 c 0,-0.98992 0.51951,-1.79987 1.15448,-1.79987 0.63497,0 1.15449,0.48887 1.15449,1.08636 0,0.59749 -0.51952,1.40743 -1.15449,1.79986 -0.63497,0.39244 -1.15448,-0.0965 -1.15448,-1.08635 z m 83.12285,0 c 0,-0.98992 0.51951,-1.79987 1.15448,-1.79987 0.63496,0 1.15449,0.48887 1.15449,1.08636 0,0.59749 -0.51953,1.40743 -1.15449,1.79986 -0.63497,0.39244 -1.15448,-0.0965 -1.15448,-1.08635 z m -248.21406,-0.57724 c 0,-0.59749 0.51951,-1.40743 1.15448,-1.79986 0.63497,-0.39244 1.15448,0.0965 1.15448,1.08634 0,0.98993 -0.51951,1.79986 -1.15448,1.79986 -0.63497,0 -1.15448,-0.48885 -1.15448,-1.08634 z m 83.12285,-0.0682 c 0,-0.63496 0.51951,-1.15449 1.15448,-1.15449 0.63497,0 1.15448,0.51953 1.15448,1.15449 0,0.63497 -0.51951,1.15448 -1.15448,1.15448 -0.63497,0 -1.15448,-0.51951 -1.15448,-1.15448 z m -138.538085,-2.3089 c 0,-0.63497 0.519517,-1.15449 1.154484,-1.15449 0.634966,0 1.154484,0.51952 1.154484,1.15449 0,0.63496 -0.519518,1.15447 -1.154484,1.15447 -0.634967,0 -1.154484,-0.51951 -1.154484,-1.15447 z m 83.122845,0.0682 c 0,-0.59749 0.51952,-1.40743 1.15449,-1.79986 0.63496,-0.39244 1.15448,0.0965 1.15448,1.08635 0,0.98992 -0.51952,1.79986 -1.15448,1.79986 -0.63497,0 -1.15449,-0.48886 -1.15449,-1.08635 z m 83.21399,-0.74159 c 0.0554,-1.34491 0.32897,-1.61846 0.6975,-0.6975 0.3335,0.83339 0.29249,1.82915 -0.0911,2.21277 -0.38364,0.38363 -0.65648,-0.29825 -0.60636,-1.51527 z m 81.87723,0.0962 c 0,-0.95246 0.51951,-1.73173 1.15447,-1.73173 0.63498,0 1.15449,0.77927 1.15449,1.73173 0,0.95244 -0.51951,1.73172 -1.15449,1.73172 -0.63496,0 -1.15447,-0.77928 -1.15447,-1.73172 z M 192.283,271.41133 c 0,-0.98992 0.52799,-1.47354 1.17331,-1.07471 0.64532,0.39883 0.87442,1.20877 0.5091,1.79987 -0.98966,1.60131 -1.68241,1.30273 -1.68241,-0.72516 z m 81.96836,0.0682 c 0,-0.95245 0.51951,-1.73173 1.15448,-1.73173 0.63497,0 1.15449,0.77928 1.15449,1.73173 0,0.95244 -0.51952,1.73172 -1.15449,1.73172 -0.63497,0 -1.15448,-0.77928 -1.15448,-1.73172 z m 83.12285,-0.0682 c 0,-0.98992 0.52799,-1.47354 1.17331,-1.07471 0.64532,0.39883 0.87443,1.20877 0.50911,1.79987 -0.98967,1.60131 -1.68242,1.30273 -1.68242,-0.72516 z m -248.21406,-0.50915 c 0,-0.63496 0.51951,-1.15448 1.15448,-1.15448 0.63497,0 1.15448,0.51952 1.15448,1.15448 0,0.63497 -0.51951,1.15449 -1.15448,1.15449 -0.63497,0 -1.15448,-0.51952 -1.15448,-1.15449 z m 111.01275,-2.30897 c 0,-1.58741 0.26204,-2.2368 0.5823,-1.4431 0.32027,0.79371 0.32027,2.09251 0,2.88621 -0.32026,0.7937 -0.5823,0.14431 -0.5823,-1.44311 z m -166.427985,0 c 0,-0.63496 0.519517,-1.15448 1.154484,-1.15448 0.634966,0 1.154484,0.51952 1.154484,1.15448 0,0.63497 -0.519518,1.15449 -1.154484,1.15449 -0.634967,0 -1.154484,-0.51952 -1.154484,-1.15449 z m 83.122845,0 c 0,-0.63496 0.51952,-1.15448 1.15449,-1.15448 0.63496,0 1.15448,0.51952 1.15448,1.15448 0,0.63497 -0.51952,1.15449 -1.15448,1.15449 -0.63497,0 -1.15449,-0.51952 -1.15449,-1.15449 z m 165.09122,0 c 0,-0.63496 0.51951,-1.15448 1.15447,-1.15448 0.63498,0 1.15449,0.51952 1.15449,1.15448 0,0.63497 -0.51951,1.15449 -1.15449,1.15449 -0.63496,0 -1.15447,-0.51952 -1.15447,-1.15449 z m -192.12583,-2.15402 c -0.49731,-0.80467 -0.59243,-1.77482 -0.21137,-2.15589 1.03323,-1.03322 2.15977,0.48638 1.60172,2.16056 -0.39105,1.17315 -0.66299,1.17224 -1.39035,-0.004 z m 82.44985,-0.80032 c 0,-0.98993 0.52799,-1.47354 1.17331,-1.07471 0.64532,0.39882 0.87442,1.20877 0.5091,1.79986 -0.98966,1.60132 -1.68241,1.30273 -1.68241,-0.72515 z m 81.96836,0.64537 c 0,-0.63496 0.51951,-1.15448 1.15448,-1.15448 0.63497,0 1.15449,0.51952 1.15449,1.15448 0,0.63498 -0.51952,1.15449 -1.15449,1.15449 -0.63497,0 -1.15448,-0.51951 -1.15448,-1.15449 z m 83.12285,0 c 0,-0.63496 0.51951,-1.15448 1.15448,-1.15448 0.63496,0 1.15449,0.51952 1.15449,1.15448 0,0.63498 -0.51953,1.15449 -1.15449,1.15449 -0.63497,0 -1.15448,-0.51951 -1.15448,-1.15449 z M 55.837417,264.34113 c 0.833393,-0.3335 1.829135,-0.2925 2.212761,0.0911 0.383625,0.38362 -0.298243,0.65649 -1.51526,0.60636 -1.344908,-0.0554 -1.618471,-0.32895 -0.697501,-0.6975 z m 5.77242,0 c 0.833393,-0.3335 1.829135,-0.2925 2.212761,0.0911 0.383625,0.38362 -0.298242,0.65649 -1.51526,0.60636 -1.344908,-0.0554 -1.618472,-0.32895 -0.697501,-0.6975 z m 5.772419,0 c 0.833388,-0.3335 1.82913,-0.2925 2.212766,0.0911 0.383623,0.38362 -0.29825,0.65649 -1.515261,0.60636 -1.344916,-0.0554 -1.618471,-0.32895 -0.697505,-0.6975 z m 4.617937,0 c 0.833387,-0.3335 1.829129,-0.2925 2.212765,0.0911 0.383623,0.38362 -0.298249,0.65649 -1.515261,0.60636 -1.344916,-0.0554 -1.618471,-0.32895 -0.697504,-0.6975 z m 5.77242,0 c 0.833387,-0.3335 1.82913,-0.2925 2.212764,0.0911 0.383624,0.38362 -0.298249,0.65649 -1.515259,0.60636 -1.344917,-0.0554 -1.618472,-0.32895 -0.697505,-0.6975 z M 91.529121,244.9545 c 9.288679,-18.61337 9.911649,-20.28967 8.047146,-21.65302 -1.840259,-1.34563 -1.40914,-2.08321 4.821263,-8.2486 4.25946,-4.21502 7.36785,-6.44601 8.23465,-5.91029 1.06039,0.65536 1.01891,1.08973 -0.17395,1.82159 -0.8615,0.52857 -2.08994,4.23013 -2.72987,8.22569 -1.02181,6.37999 -1.47493,7.26468 -3.72081,7.26468 -2.1456,0 -4.04351,2.95416 -11.78922,18.35034 -5.07756,10.09268 -8.957353,18.7946 -8.621756,19.3376 0.335585,0.543 -0.457626,0.98727 -1.762701,0.98727 -2.100607,0 -1.217646,-2.31492 7.695248,-20.17526 z m -3.366153,19.38663 c 0.833388,-0.3335 1.829131,-0.2925 2.212766,0.0911 0.383623,0.38362 -0.29825,0.65649 -1.515261,0.60636 -1.344916,-0.0554 -1.618471,-0.32895 -0.697505,-0.6975 z m 5.77242,0 c 0.833388,-0.3335 1.82913,-0.2925 2.212766,0.0911 0.383623,0.38362 -0.29825,0.65649 -1.515261,0.60636 -1.344916,-0.0554 -1.618471,-0.32895 -0.697505,-0.6975 z m 5.772421,0 c 0.833391,-0.3335 1.829131,-0.2925 2.212761,0.0911 0.38363,0.38362 -0.29825,0.65649 -1.51526,0.60636 -1.344913,-0.0554 -1.618468,-0.32895 -0.697501,-0.6975 z m 5.772421,0 c 0.83339,-0.3335 1.82913,-0.2925 2.21276,0.0911 0.38363,0.38362 -0.29825,0.65649 -1.51526,0.60636 -1.34491,-0.0554 -1.61847,-0.32895 -0.6975,-0.6975 z m 33.48004,0 c 0.83339,-0.3335 1.82912,-0.2925 2.21276,0.0911 0.38362,0.38362 -0.29825,0.65649 -1.51526,0.60636 -1.34492,-0.0554 -1.61848,-0.32895 -0.6975,-0.6975 z m 4.61793,0 c 0.83338,-0.3335 1.82913,-0.2925 2.21277,0.0911 0.38362,0.38362 -0.29825,0.65649 -1.51526,0.60636 -1.34493,-0.0554 -1.61848,-0.32895 -0.69751,-0.6975 z m 5.77242,0 c 0.83339,-0.3335 1.82913,-0.2925 2.21277,0.0911 0.38362,0.38362 -0.29825,0.65649 -1.51527,0.60636 -1.34491,-0.0554 -1.61846,-0.32895 -0.6975,-0.6975 z m 5.77242,0 c 0.83338,-0.3335 1.82913,-0.2925 2.21277,0.0911 0.38362,0.38362 -0.29825,0.65649 -1.51526,0.60636 -1.34492,-0.0554 -1.61848,-0.32895 -0.69751,-0.6975 z m 6.27751,-0.0785 c 1.11119,-0.25116 2.02034,-0.68444 2.02034,-0.96284 0,-0.27839 -4.15612,-8.80622 -9.23585,-18.95072 -8.04973,-16.07579 -9.56607,-18.40923 -11.80707,-18.16954 -2.34739,0.25107 -2.68258,-0.45335 -3.85077,-8.09252 -0.70376,-4.60214 -1.0187,-8.6284 -0.69984,-8.94725 1.09313,-1.09314 2.50386,-0.57951 2.50386,0.91163 0,0.82025 2.35458,3.8022 5.23239,6.62656 4.79027,4.70129 5.06175,5.25998 3.21285,6.61193 -1.86328,1.36246 -1.26679,2.99059 7.70955,21.04312 5.35101,10.76153 10.52908,19.76731 11.50682,20.01285 0.97775,0.24552 -0.56011,0.43 -3.41745,0.40992 -2.85735,-0.0201 -4.28602,-0.24199 -3.17483,-0.49314 z m 9.88527,0.0785 c 0.83338,-0.3335 1.82913,-0.2925 2.21276,0.0911 0.38362,0.38362 -0.29825,0.65649 -1.51526,0.60636 -1.34492,-0.0554 -1.61847,-0.32895 -0.6975,-0.6975 z m 5.77241,0 c 0.8334,-0.3335 1.82913,-0.2925 2.21277,0.0911 0.38362,0.38362 -0.29825,0.65649 -1.51526,0.60636 -1.34491,-0.0554 -1.61847,-0.32895 -0.69751,-0.6975 z m 5.77243,0 c 0.83338,-0.3335 1.82913,-0.2925 2.21276,0.0911 0.38363,0.38362 -0.29825,0.65649 -1.51526,0.60636 -1.34492,-0.0554 -1.61847,-0.32895 -0.6975,-0.6975 z m 4.54578,0.024 c 0.7937,-0.32027 2.0925,-0.32027 2.88621,0 0.7937,0.32026 0.14431,0.58231 -1.44311,0.58231 -1.58741,0 -2.23681,-0.26205 -1.4431,-0.58231 z m 33.55219,-0.024 c 0.83339,-0.3335 1.82913,-0.2925 2.21277,0.0911 0.38361,0.38362 -0.29826,0.65649 -1.51527,0.60636 -1.34491,-0.0554 -1.61846,-0.32895 -0.6975,-0.6975 z m 5.77242,0 c 0.83338,-0.3335 1.82913,-0.2925 2.21276,0.0911 0.38363,0.38362 -0.29824,0.65649 -1.51525,0.60636 -1.34492,-0.0554 -1.61848,-0.32895 -0.69751,-0.6975 z m 5.77242,0 c 0.83339,-0.3335 1.82913,-0.2925 2.21277,0.0911 0.38361,0.38362 -0.29826,0.65649 -1.51527,0.60636 -1.34491,-0.0554 -1.61846,-0.32895 -0.6975,-0.6975 z m 5.77242,0 c 0.83338,-0.3335 1.82913,-0.2925 2.21276,0.0911 0.38363,0.38362 -0.29824,0.65649 -1.51525,0.60636 -1.34492,-0.0554 -1.61848,-0.32895 -0.69751,-0.6975 z m 4.61794,0 c 0.83338,-0.3335 1.82913,-0.2925 2.21276,0.0911 0.38363,0.38362 -0.29825,0.65649 -1.51527,0.60636 -1.34491,-0.0554 -1.61846,-0.32895 -0.69749,-0.6975 z m 4.8344,-0.45525 c 0,-0.68414 4.15613,-9.41283 9.23587,-19.39709 5.07973,-9.98426 9.23586,-18.58867 9.23586,-19.12094 0,-0.53224 -0.79276,-1.54741 -1.76172,-2.25593 -1.48958,-1.08922 -0.68875,-2.34999 5.18433,-8.16178 5.43248,-5.3758 7.2503,-6.56934 8.34228,-5.47735 1.09199,1.09199 1.00108,1.39623 -0.41722,1.39623 -1.40194,0 -1.99649,1.85764 -2.62011,8.1864 -0.7713,7.82736 -0.92398,8.15695 -3.48145,7.51508 -2.46451,-0.61857 -3.4118,0.78753 -12.05012,17.8863 -5.15643,10.2067 -9.0812,19.0336 -8.72168,19.61531 0.35952,0.5817 -0.15626,1.05765 -1.14618,1.05765 -0.98992,0 -1.79986,-0.55975 -1.79986,-1.24388 z m 6.71043,0.45525 c 0.83339,-0.3335 1.82915,-0.2925 2.21277,0.0911 0.38363,0.38362 -0.29825,0.65649 -1.51527,0.60636 -1.34491,-0.0554 -1.61846,-0.32895 -0.6975,-0.6975 z m 5.77242,0 c 0.8334,-0.3335 1.82915,-0.2925 2.21277,0.0911 0.38362,0.38362 -0.29825,0.65649 -1.51526,0.60636 -1.34492,-0.0554 -1.61848,-0.32895 -0.69751,-0.6975 z m 4.61794,0 c 0.83338,-0.3335 1.82914,-0.2925 2.21277,0.0911 0.38362,0.38362 -0.29825,0.65649 -1.51526,0.60636 -1.34493,-0.0554 -1.61848,-0.32895 -0.69751,-0.6975 z m 5.77242,0 c 0.83339,-0.3335 1.82914,-0.2925 2.21276,0.0911 0.38363,0.38362 -0.29824,0.65649 -1.51526,0.60636 -1.34491,-0.0554 -1.61847,-0.32895 -0.6975,-0.6975 z m 33.48004,0 c 0.83338,-0.3335 1.82914,-0.2925 2.21276,0.0911 0.38362,0.38362 -0.29825,0.65649 -1.51526,0.60636 -1.34492,-0.0554 -1.61847,-0.32895 -0.6975,-0.6975 z m 5.77241,0 c 0.8334,-0.3335 1.82914,-0.2925 2.21277,0.0911 0.38362,0.38362 -0.29825,0.65649 -1.51526,0.60636 -1.34491,-0.0554 -1.61847,-0.32895 -0.69751,-0.6975 z m 4.61794,0 c 0.83339,-0.3335 1.82914,-0.2925 2.21277,0.0911 0.38362,0.38362 -0.29826,0.65649 -1.51527,0.60636 -1.34491,-0.0554 -1.61846,-0.32895 -0.6975,-0.6975 z m 5.77243,0 c 0.83338,-0.3335 1.82914,-0.2925 2.21275,0.0911 0.38363,0.38362 -0.29824,0.65649 -1.51525,0.60636 -1.34492,-0.0554 -1.61848,-0.32895 -0.6975,-0.6975 z m 6.27749,-0.0785 c 1.1112,-0.25116 2.02035,-0.68444 2.02035,-0.96284 0,-0.27839 -4.1739,-8.8417 -9.27535,-19.02959 -7.88464,-15.74613 -9.60106,-18.42005 -11.44768,-17.83397 -2.89417,0.91857 -3.1896,0.23221 -4.16633,-9.67997 -0.6367,-6.46149 -0.50063,-8.38576 0.56775,-8.02963 0.77281,0.25761 1.38371,0.9749 1.35758,1.594 -0.0261,0.61909 2.32748,3.53687 5.23025,6.48397 4.83952,4.91339 5.09991,5.46061 3.13578,6.58998 -1.98809,1.14311 -1.48116,2.53893 7.05401,19.4232 5.05781,10.00537 10.09009,19.08565 11.18285,20.1784 1.87943,1.87944 1.72559,1.97969 -2.84637,1.85495 -2.65825,-0.0725 -3.92402,-0.33735 -2.81284,-0.5885 z m 15.6577,0.0785 c 0.83339,-0.3335 1.82914,-0.2925 2.21277,0.0911 0.38361,0.38362 -0.29826,0.65649 -1.51527,0.60636 -1.34491,-0.0554 -1.61846,-0.32895 -0.6975,-0.6975 z m 5.77242,0 c 0.83338,-0.3335 1.82914,-0.2925 2.21276,0.0911 0.38363,0.38362 -0.29824,0.65649 -1.51525,0.60636 -1.34492,-0.0554 -1.61848,-0.32895 -0.69751,-0.6975 z m 5.77242,0 c 0.83339,-0.3335 1.82914,-0.2925 2.21277,0.0911 0.38361,0.38362 -0.29826,0.65649 -1.51527,0.60636 -1.34491,-0.0554 -1.61846,-0.32895 -0.6975,-0.6975 z M 83.184256,209.71453 c 0.392432,-0.63496 1.202372,-1.15448 1.799864,-1.15448 0.597492,0 1.086347,0.51952 1.086347,1.15448 0,0.63496 -0.809941,1.15449 -1.799865,1.15449 -0.989924,0 -1.478778,-0.51953 -1.086346,-1.15449 z m 5.195178,0 c 0,-0.63496 0.488855,-1.15448 1.086347,-1.15448 0.597492,0 1.407432,0.51952 1.799864,1.15448 0.392432,0.63496 -0.0964,1.15449 -1.086347,1.15449 -0.989923,0 -1.799864,-0.51953 -1.799864,-1.15449 z m 5.77242,0 c 0,-0.63496 0.519518,-1.15448 1.154484,-1.15448 0.634967,0 1.154484,0.51952 1.154484,1.15448 0,0.63496 -0.519517,1.15449 -1.154484,1.15449 -0.634966,0 -1.154484,-0.51953 -1.154484,-1.15449 z m 5.195178,0 c 0.392433,-0.63496 1.202368,-1.15448 1.799868,-1.15448 0.59749,0 1.08634,0.51952 1.08634,1.15448 0,0.63496 -0.80994,1.15449 -1.79986,1.15449 -0.989925,0 -1.47878,-0.51953 -1.086348,-1.15449 z m 5.195178,0 c 0,-0.63496 0.77928,-1.15448 1.73173,-1.15448 0.95244,0 1.73172,0.51952 1.73172,1.15448 0,0.63496 -0.77928,1.15449 -1.73172,1.15449 -0.95245,0 -1.73173,-0.51953 -1.73173,-1.15449 z m 11.54484,0 c 0,-0.63496 0.51952,-1.15448 1.15448,-1.15448 0.63497,0 1.15449,0.51952 1.15449,1.15448 0,0.63496 -0.51952,1.15449 -1.15449,1.15449 -0.63496,0 -1.15448,-0.51953 -1.15448,-1.15449 z m 5.77242,0 c 0,-0.63496 0.51952,-1.15448 1.15448,-1.15448 0.63497,0 1.15449,0.51952 1.15449,1.15448 0,0.63496 -0.51952,1.15449 -1.15449,1.15449 -0.63496,0 -1.15448,-0.51953 -1.15448,-1.15449 z m 4.61794,0 c 0,-0.63496 0.48885,-1.15448 1.08634,-1.15448 0.59749,0 1.40743,0.51952 1.79987,1.15448 0.39243,0.63496 -0.0965,1.15449 -1.08635,1.15449 -0.98992,0 -1.79986,-0.51953 -1.79986,-1.15449 z m 5.77242,0 c 0,-0.63496 0.51951,-1.15448 1.15448,-1.15448 0.63497,0 1.15448,0.51952 1.15448,1.15448 0,0.63496 -0.51951,1.15449 -1.15448,1.15449 -0.63497,0 -1.15448,-0.51953 -1.15448,-1.15449 z m 10.9676,0 c 0.39243,-0.63496 1.20237,-1.15448 1.79986,-1.15448 0.59749,0 1.08634,0.51952 1.08634,1.15448 0,0.63496 -0.80993,1.15449 -1.79986,1.15449 -0.98993,0 -1.47878,-0.51953 -1.08634,-1.15449 z m 5.19517,0 c 0,-0.63496 0.77928,-1.15448 1.73173,-1.15448 0.95245,0 1.73172,0.51952 1.73172,1.15448 0,0.63496 -0.77927,1.15449 -1.73172,1.15449 -0.95245,0 -1.73173,-0.51953 -1.73173,-1.15449 z m 5.77242,0 c 0,-0.63496 0.48886,-1.15448 1.08635,-1.15448 0.59749,0 1.40743,0.51952 1.79987,1.15448 0.39243,0.63496 -0.0964,1.15449 -1.08636,1.15449 -0.98991,0 -1.79986,-0.51953 -1.79986,-1.15449 z m 5.77242,0 c 0,-0.63496 0.51952,-1.15448 1.15448,-1.15448 0.63498,0 1.15449,0.51952 1.15449,1.15448 0,0.63496 -0.51951,1.15449 -1.15449,1.15449 -0.63496,0 -1.15448,-0.51953 -1.15448,-1.15449 z m 4.61794,-0.50911 c 0,-0.98992 0.51951,-1.79986 1.15448,-1.79986 0.63497,0 1.15449,0.48886 1.15449,1.08635 0,0.59749 -0.51952,1.40744 -1.15449,1.79986 -0.63497,0.39243 -1.15448,-0.0964 -1.15448,-1.08635 z m 83.12285,0.50911 c 0,-0.63496 0.77927,-1.15448 1.73172,-1.15448 0.95245,0 1.73173,0.51952 1.73173,1.15448 0,0.63496 -0.77928,1.15449 -1.73173,1.15449 -0.95245,0 -1.73172,-0.51953 -1.73172,-1.15449 z m 5.77242,0 c 0,-0.63496 0.48885,-1.15448 1.08634,-1.15448 0.59749,0 1.40743,0.51952 1.79986,1.15448 0.39244,0.63496 -0.0964,1.15449 -1.08634,1.15449 -0.98993,0 -1.79986,-0.51953 -1.79986,-1.15449 z m 5.77242,0 c 0,-0.63496 0.51952,-1.15448 1.15448,-1.15448 0.63496,0 1.15449,0.51952 1.15449,1.15448 0,0.63496 -0.51953,1.15449 -1.15449,1.15449 -0.63496,0 -1.15448,-0.51953 -1.15448,-1.15449 z m 5.19518,0 c 0.39243,-0.63496 1.20237,-1.15448 1.79986,-1.15448 0.59749,0 1.08634,0.51952 1.08634,1.15448 0,0.63496 -0.80993,1.15449 -1.79986,1.15449 -0.98993,0 -1.47878,-0.51953 -1.08634,-1.15449 z m 5.19517,0 c 0,-0.63496 0.77928,-1.15448 1.73173,-1.15448 0.95245,0 1.73172,0.51952 1.73172,1.15448 0,0.63496 -0.77927,1.15449 -1.73172,1.15449 -0.95245,0 -1.73173,-0.51953 -1.73173,-1.15449 z m 11.54484,0 c 0,-0.63496 0.51952,-1.15448 1.15448,-1.15448 0.63497,0 1.15449,0.51952 1.15449,1.15448 0,0.63496 -0.51952,1.15449 -1.15449,1.15449 -0.63496,0 -1.15448,-0.51953 -1.15448,-1.15449 z m 5.19518,0 c 0.39243,-0.63496 1.20237,-1.15448 1.79986,-1.15448 0.59749,0 1.08635,0.51952 1.08635,1.15448 0,0.63496 -0.80994,1.15449 -1.79987,1.15449 -0.98991,0 -1.47877,-0.51953 -1.08634,-1.15449 z m 5.77242,0 c 0.39244,-0.63496 1.20237,-1.15448 1.79987,-1.15448 0.59749,0 1.08634,0.51952 1.08634,1.15448 0,0.63496 -0.80994,1.15449 -1.79986,1.15449 -0.98993,0 -1.47878,-0.51953 -1.08635,-1.15449 z m 5.19518,0 c 0,-0.63496 0.77927,-1.15448 1.73173,-1.15448 0.95244,0 1.73172,0.51952 1.73172,1.15448 0,0.63496 -0.77928,1.15449 -1.73172,1.15449 -0.95246,0 -1.73173,-0.51953 -1.73173,-1.15449 z m 11.54484,0 c 0,-0.63496 0.51952,-1.15448 1.15448,-1.15448 0.63497,0 1.15449,0.51952 1.15449,1.15448 0,0.63496 -0.51952,1.15449 -1.15449,1.15449 -0.63496,0 -1.15448,-0.51953 -1.15448,-1.15449 z m 5.19518,0 c 0.39243,-0.63496 1.20237,-1.15448 1.79986,-1.15448 0.59749,0 1.08634,0.51952 1.08634,1.15448 0,0.63496 -0.80993,1.15449 -1.79986,1.15449 -0.98993,0 -1.47878,-0.51953 -1.08634,-1.15449 z m 5.19517,0 c 0,-0.63496 0.77928,-1.15448 1.73173,-1.15448 0.95244,0 1.73173,0.51952 1.73173,1.15448 0,0.63496 -0.77929,1.15449 -1.73173,1.15449 -0.95245,0 -1.73173,-0.51953 -1.73173,-1.15449 z m 5.77243,0 c 0,-0.63496 0.48885,-1.15448 1.08634,-1.15448 0.59749,0 1.40743,0.51952 1.79986,1.15448 0.39244,0.63496 -0.0965,1.15449 -1.08634,1.15449 -0.98993,0 -1.79986,-0.51953 -1.79986,-1.15449 z m 4.61793,-1.15448 c 0,-0.63497 0.51952,-1.15449 1.15448,-1.15449 0.63496,0 1.15449,0.51952 1.15449,1.15449 0,0.63496 -0.51953,1.15448 -1.15449,1.15448 -0.63496,0 -1.15448,-0.51952 -1.15448,-1.15448 z m -247.58751,-2.2292 c -0.365324,-0.59109 -0.136217,-1.40103 0.509105,-1.79986 0.645321,-0.39883 1.173314,0.0848 1.173314,1.07471 0,2.02788 -0.69276,2.32647 -1.682419,0.72515 z m 165.09121,0 c -0.36533,-0.59109 -0.13621,-1.40103 0.50911,-1.79986 0.64532,-0.39883 1.17331,0.0848 1.17331,1.07471 0,2.02788 -0.69276,2.32647 -1.68242,0.72515 z m -82.59491,-2.89784 c 0,-0.98993 0.51951,-1.79986 1.15448,-1.79986 0.63497,0 1.15449,0.48885 1.15449,1.08634 0,0.59749 -0.51952,1.40743 -1.15449,1.79986 -0.63497,0.39244 -1.15448,-0.0963 -1.15448,-1.08634 z m 165.09121,-0.64538 c 0,-0.63497 0.51952,-1.15448 1.15448,-1.15448 0.63496,0 1.15449,0.51951 1.15449,1.15448 0,0.63497 -0.51953,1.15448 -1.15449,1.15448 -0.63496,0 -1.15448,-0.51951 -1.15448,-1.15448 z M 82.07908,200.55844 c -0.365324,-0.59111 -0.136217,-1.40104 0.509105,-1.79987 0.645321,-0.39883 1.173314,0.0848 1.173314,1.07471 0,2.02789 -0.69276,2.32647 -1.682419,0.72516 z m 165.09121,0 c -0.36533,-0.59111 -0.13621,-1.40104 0.50911,-1.79987 0.64532,-0.39883 1.17331,0.0848 1.17331,1.07471 0,2.02789 -0.69276,2.32647 -1.68242,0.72516 z m -82.59491,-3.03413 c 0,-0.98992 0.52799,-1.47354 1.17331,-1.07471 0.64532,0.39883 0.87444,1.20877 0.50911,1.79987 -0.98966,1.60131 -1.68242,1.30273 -1.68242,-0.72516 z m 165.09121,0.13627 c 0,-0.98992 0.51952,-1.79986 1.15448,-1.79986 0.63496,0 1.15449,0.48886 1.15449,1.08634 0,0.5975 -0.51953,1.40745 -1.15449,1.79988 -0.63496,0.39242 -1.15448,-0.0965 -1.15448,-1.08636 z M 82.029772,194.70624 c -0.392432,-0.63496 -0.163336,-1.15449 0.509105,-1.15449 0.672441,0 1.222622,0.51953 1.222622,1.15449 0,0.63497 -0.229097,1.15448 -0.509105,1.15448 -0.280009,0 -0.83019,-0.51951 -1.222622,-1.15448 z m 165.091208,0 c -0.39243,-0.63496 -0.16333,-1.15449 0.50911,-1.15449 0.67244,0 1.22262,0.51953 1.22262,1.15449 0,0.63497 -0.22909,1.15448 -0.50911,1.15448 -0.28001,0 -0.83019,-0.51951 -1.22262,-1.15448 z m -82.5456,-2.30897 c 0,-0.63496 0.51951,-1.15449 1.15448,-1.15449 0.63497,0 1.15449,0.51953 1.15449,1.15449 0,0.63497 -0.51952,1.15448 -1.15449,1.15448 -0.63497,0 -1.15448,-0.51951 -1.15448,-1.15448 z m 165.09121,-0.64538 c 0,-0.98993 0.51952,-1.47878 1.15448,-1.08634 0.63496,0.39243 1.15449,1.20237 1.15449,1.79986 0,0.59749 -0.51953,1.08634 -1.15449,1.08634 -0.63496,0 -1.15448,-0.80993 -1.15448,-1.79986 z m -82.44984,-1.50869 c -0.49731,-0.80467 -0.59243,-1.77482 -0.21138,-2.1559 1.03323,-1.03321 2.15977,0.48639 1.60173,2.16057 -0.39106,1.17314 -0.663,1.17224 -1.39035,-0.004 z M 81.452531,188.93382 c 0,-0.63497 0.519517,-1.15448 1.154484,-1.15448 0.634965,0 1.154484,0.51951 1.154484,1.15448 0,0.63497 -0.519519,1.15449 -1.154484,1.15449 -0.634967,0 -1.154484,-0.51952 -1.154484,-1.15449 z m 83.122849,-2.30897 c 0,-0.63496 0.51951,-1.15448 1.15448,-1.15448 0.63497,0 1.15449,0.51952 1.15449,1.15448 0,0.63497 -0.51952,1.15449 -1.15449,1.15449 -0.63497,0 -1.15448,-0.51952 -1.15448,-1.15449 z m 165.09121,-0.64538 c 0,-0.98992 0.51952,-1.47877 1.15448,-1.08634 0.63496,0.39242 1.15449,1.20237 1.15449,1.79986 0,0.59749 -0.51953,1.08635 -1.15449,1.08635 -0.63496,0 -1.15448,-0.80994 -1.15448,-1.79987 z M 82.07908,184.39566 c -0.365324,-0.5911 -0.136217,-1.40104 0.509105,-1.79986 0.645321,-0.39884 1.173314,0.0848 1.173314,1.07471 0,2.02788 -0.69276,2.32646 -1.682419,0.72515 z m 165.09121,0 c -0.36533,-0.5911 -0.13621,-1.40104 0.50911,-1.79986 0.64532,-0.39884 1.17331,0.0848 1.17331,1.07471 0,2.02788 -0.69276,2.32646 -1.68242,0.72515 z M 86.070467,182.00691 c 0,-0.63496 0.519517,-1.15448 1.154483,-1.15448 0.634966,0 1.154484,0.51952 1.154484,1.15448 0,0.63498 -0.519518,1.15449 -1.154484,1.15449 -0.634966,0 -1.154483,-0.51951 -1.154483,-1.15449 z m 5.772419,0 c 0,-0.63496 0.519519,-1.15448 1.154484,-1.15448 0.634967,0 1.154484,0.51952 1.154484,1.15448 0,0.63498 -0.519517,1.15449 -1.154484,1.15449 -0.634965,0 -1.154484,-0.51951 -1.154484,-1.15449 z m 5.206815,-0.0188 c 0.398829,-0.64533 1.208768,-0.87443 1.799864,-0.5091 1.601315,0.98965 1.302735,1.68241 -0.725154,1.68241 -0.989924,0 -1.473538,-0.52799 -1.07471,-1.17331 z m 5.183539,0.0188 c 0,-0.63496 0.48886,-1.15448 1.08635,-1.15448 0.59749,0 1.40743,0.51952 1.79986,1.15448 0.39243,0.63498 -0.0964,1.15449 -1.08634,1.15449 -0.98993,0 -1.79987,-0.51951 -1.79987,-1.15449 z m 5.77242,0 c 0,-0.63496 0.51952,-1.15448 1.15449,-1.15448 0.63496,0 1.15448,0.51952 1.15448,1.15448 0,0.63498 -0.51952,1.15449 -1.15448,1.15449 -0.63497,0 -1.15449,-0.51951 -1.15449,-1.15449 z m 5.77242,0 c 0,-0.63496 0.51952,-1.15448 1.15449,-1.15448 0.63496,0 1.15448,0.51952 1.15448,1.15448 0,0.63498 -0.51952,1.15449 -1.15448,1.15449 -0.63497,0 -1.15449,-0.51951 -1.15449,-1.15449 z m 5.19518,0 c 0.39243,-0.63496 1.20237,-1.15448 1.79986,-1.15448 0.5975,0 1.08635,0.51952 1.08635,1.15448 0,0.63498 -0.80994,1.15449 -1.79986,1.15449 -0.98993,0 -1.47878,-0.51951 -1.08635,-1.15449 z m 5.78406,-0.0188 c 0.39883,-0.64533 1.20876,-0.87443 1.79986,-0.5091 1.60132,0.98965 1.30273,1.68241 -0.72515,1.68241 -0.98993,0 -1.47354,-0.52799 -1.07471,-1.17331 z m 5.18354,0.0188 c 0,-0.63496 0.51951,-1.15448 1.15449,-1.15448 0.63496,0 1.15448,0.51952 1.15448,1.15448 0,0.63498 -0.51952,1.15449 -1.15448,1.15449 -0.63498,0 -1.15449,-0.51951 -1.15449,-1.15449 z m 5.77242,0.0847 c 0,-0.68149 0.45563,-1.23911 1.01253,-1.23911 0.84828,0 27.65354,-34.62887 28.80596,-37.2135 0.20852,-0.46769 -15.37702,-0.9879 -34.63452,-1.15602 L 95.883581,142.17722 95.585019,79.546461 95.286458,16.915704 H 220.56785 345.84924 l -0.29856,62.630757 -0.29856,62.630759 -48.76763,0.57723 -48.76762,0.57725 14.31264,19.04899 c 9.715,12.92991 13.93046,19.41984 13.12293,20.20347 -0.79696,0.77337 -1.36853,0.66564 -1.73141,-0.32632 -0.46709,-1.27687 -20.41485,-28.66373 -26.66824,-36.61363 l -2.16911,-2.75756 -37.94867,0.22253 -37.94868,0.22252 -14.663,19.62623 c -13.08013,17.50755 -18.31005,22.97272 -18.31005,19.13363 z m 29.94356,-43.46579 c -0.96746,-1.16571 -1.09461,-2.09928 -0.3538,-2.59759 0.63603,-0.42782 3.20021,-2.07666 5.69817,-3.66408 l 4.54177,-2.88618 -12.12209,-0.57724 -12.12208,-0.57724 -0.32312,-14.71968 -0.3231,-14.71967 h 56.06145 56.06145 l -0.32309,14.71967 -0.32312,14.71968 -12.12208,0.57724 -12.12209,0.57724 4.04069,2.57653 c 7.91711,5.04831 7.50004,4.57768 5.83484,6.58414 -1.38558,1.66952 2.77969,1.80569 46.83083,1.5311 l 48.35168,-0.30142 0.29892,-60.321787 0.29892,-60.321789 H 220.57815 97.615306 v 59.840754 c 0,32.912412 0.346346,60.187102 0.76966,60.610412 0.423303,0.42331 16.072444,0.76966 34.775884,0.76966 30.82765,0 33.86505,-0.17009 32.49599,-1.81973 z M 123.51512,85.825535 c -0.31949,-0.832532 -0.43305,-7.456383 -0.2524,-14.719671 l 0.32848,-13.205978 h 55.41523 55.41523 l 0.32312,14.719671 0.32311,14.71967 h -55.48596 c -44.70375,0 -55.59883,-0.294143 -56.06681,-1.513692 z M 233.84442,72.330936 V 59.631612 H 179.58367 125.32292 V 72.330936 85.03026 h 54.26075 54.26075 z m 13.20602,13.509032 c -0.32253,-0.840469 -0.43859,-7.470816 -0.25793,-14.734104 l 0.32847,-13.205978 h 42.13867 42.13866 v 14.43105 14.431049 l -41.88074,0.303051 c -33.89591,0.245279 -41.99253,0.01167 -42.46713,-1.225068 z M 329.66659,72.330936 V 59.631612 H 289.25965 248.85271 V 72.330936 85.03026 h 40.40694 40.40694 z m -92.35872,66.805394 c 0,-0.72004 -0.60175,-3.31763 -1.33723,-5.77242 l -1.33722,-4.46325 H 206.66836 178.7033 l -1.29155,5.12916 c -0.71034,2.82104 -1.29153,5.41863 -1.29153,5.77241 0,0.3538 13.76722,0.64327 30.59382,0.64327 22.03602,0 30.59383,-0.36621 30.59383,-1.30917 z m 23.08968,-15.43086 c 0,0 -0.0247,-6.07284 7.6e-4,-18.18311 l -7.6e-4,-4.32932 h -53.68351 c -52.91378,0 -53.6835,0.43864 -53.6835,0.43864 0.10921,9.72013 0.0654,16.73506 0,22.07379 v 2.88622 h 53.6835 53.68351 z m -119.48909,58.30144 c 0.39243,-0.63496 1.20237,-1.15448 1.79986,-1.15448 0.59749,0 1.08635,0.51952 1.08635,1.15448 0,0.63498 -0.80994,1.15449 -1.79987,1.15449 -0.98992,0 -1.47877,-0.51951 -1.08634,-1.15449 z m 5.19517,0 c 0,-0.63496 0.48886,-1.15448 1.08635,-1.15448 0.59749,0 1.40743,0.51952 1.79986,1.15448 0.39243,0.63498 -0.0964,1.15449 -1.08634,1.15449 -0.98993,0 -1.79987,-0.51951 -1.79987,-1.15449 z m 5.77242,0 c 0,-0.63496 0.48886,-1.15448 1.08635,-1.15448 0.5975,0 1.40743,0.51952 1.79987,1.15448 0.39243,0.63498 -0.0965,1.15449 -1.08636,1.15449 -0.98991,0 -1.79986,-0.51951 -1.79986,-1.15449 z m 5.77242,0 c 0,-0.63496 0.51952,-1.15448 1.15448,-1.15448 0.63498,0 1.15449,0.51952 1.15449,1.15448 0,0.63498 -0.51951,1.15449 -1.15449,1.15449 -0.63496,0 -1.15448,-0.51951 -1.15448,-1.15449 z m 5.19518,0 c 0.39243,-0.63496 1.20237,-1.15448 1.79986,-1.15448 0.5975,0 1.08635,0.51952 1.08635,1.15448 0,0.63498 -0.80994,1.15449 -1.79987,1.15449 -0.98991,0 -1.47877,-0.51951 -1.08634,-1.15449 z m 88.31803,0 c 0,-0.63496 0.51951,-1.15448 1.15449,-1.15448 0.63496,0 1.15448,0.51952 1.15448,1.15448 0,0.63498 -0.51952,1.15449 -1.15448,1.15449 -0.63498,0 -1.15449,-0.51951 -1.15449,-1.15449 z m 5.19517,0 c 0.39244,-0.63496 1.20237,-1.15448 1.79987,-1.15448 0.59749,0 1.08635,0.51952 1.08635,1.15448 0,0.63498 -0.80995,1.15449 -1.79986,1.15449 -0.98993,0 -1.47879,-0.51951 -1.08636,-1.15449 z m 5.19519,0 c 0,-0.63496 0.77927,-1.15448 1.73172,-1.15448 0.95245,0 1.73173,0.51952 1.73173,1.15448 0,0.63498 -0.77928,1.15449 -1.73173,1.15449 -0.95245,0 -1.73172,-0.51951 -1.73172,-1.15449 z m 5.77241,0 c 0,-0.63496 0.48886,-1.15448 1.08635,-1.15448 0.59749,0 1.40743,0.51952 1.79986,1.15448 0.39243,0.63498 -0.0963,1.15449 -1.08634,1.15449 -0.98993,0 -1.79987,-0.51951 -1.79987,-1.15449 z m 11.54484,0 c 0,-0.63496 0.51952,-1.15448 1.15448,-1.15448 0.63498,0 1.15449,0.51952 1.15449,1.15448 0,0.63498 -0.51951,1.15449 -1.15449,1.15449 -0.63496,0 -1.15448,-0.51951 -1.15448,-1.15449 z m 5.20681,-0.0188 c 0.39884,-0.64533 1.20878,-0.87443 1.79987,-0.5091 1.60131,0.98965 1.30273,1.68241 -0.72516,1.68241 -0.98991,0 -1.47353,-0.52799 -1.07471,-1.17331 z m 5.18355,0.0188 c 0,-0.63496 0.48886,-1.15448 1.08635,-1.15448 0.59748,0 1.40743,0.51952 1.79986,1.15448 0.39244,0.63498 -0.0963,1.15449 -1.08635,1.15449 -0.98992,0 -1.79986,-0.51951 -1.79986,-1.15449 z m 5.77242,0 c 0,-0.63496 0.51952,-1.15448 1.15448,-1.15448 0.63497,0 1.15449,0.51952 1.15449,1.15448 0,0.63498 -0.51952,1.15449 -1.15449,1.15449 -0.63496,0 -1.15448,-0.51951 -1.15448,-1.15449 z m 5.77242,0 c 0,-0.63496 0.51952,-1.15448 1.15449,-1.15448 0.63496,0 1.15447,0.51952 1.15447,1.15448 0,0.63498 -0.51951,1.15449 -1.15447,1.15449 -0.63497,0 -1.15449,-0.51951 -1.15449,-1.15449 z m 5.19518,0 c 0.39242,-0.63496 1.20237,-1.15448 1.79987,-1.15448 0.59748,0 1.08634,0.51952 1.08634,1.15448 0,0.63498 -0.80994,1.15449 -1.79986,1.15449 -0.98993,0 -1.47878,-0.51951 -1.08635,-1.15449 z m 5.19518,0 c 0,-0.63496 0.48885,-1.15448 1.08634,-1.15448 0.59749,0 1.40743,0.51952 1.79987,1.15448 0.39243,0.63498 -0.0964,1.15449 -1.08635,1.15449 -0.98992,0 -1.79986,-0.51951 -1.79986,-1.15449 z m 5.77241,0 c 0,-0.63496 0.51953,-1.15448 1.15449,-1.15448 0.63497,0 1.15448,0.51952 1.15448,1.15448 0,0.63498 -0.51951,1.15449 -1.15448,1.15449 -0.63496,0 -1.15449,-0.51951 -1.15449,-1.15449 z m 5.77243,0 c 0,-0.63496 0.51951,-1.15448 1.15448,-1.15448 0.63497,0 1.15449,0.51952 1.15449,1.15448 0,0.63498 -0.51952,1.15449 -1.15449,1.15449 -0.63497,0 -1.15448,-0.51951 -1.15448,-1.15449 z m 5.19517,0 c 0.39244,-0.63496 1.20237,-1.15448 1.79987,-1.15448 0.59749,0 1.08634,0.51952 1.08634,1.15448 0,0.63498 -0.80994,1.15449 -1.79986,1.15449 -0.98993,0 -1.47878,-0.51951 -1.08635,-1.15449 z m 98.08853,192.51401 c -0.30267,-0.7958 -0.4169,-84.56975 -0.25385,-186.16434 L 426.066,3.6391383 597.799,3.3467329 769.53199,3.0543264 769.23986,189.21866 768.94775,375.38298 597.76073,375.6754 c -136.34225,0.23291 -171.29905,-0.002 -171.73734,-1.15448 z M 767.21602,188.93382 V 5.3708648 H 597.50688 427.79773 V 188.93382 372.49677 h 169.70915 169.70914 z m -65.57469,171.78722 c -1.45298,-1.45299 -2.01213,-23.34561 -0.68461,-26.80505 0.58463,-1.52356 2.97582,-1.82615 14.43104,-1.82615 h 13.73029 V 320.545 c 0,-10.77518 -0.15392,-11.54484 -2.30897,-11.54484 -2.87644,0 -2.88564,-1.42584 -0.0623,-9.63238 1.86839,-5.4306 1.96561,-6.5304 0.57724,-6.5304 -0.91821,0 -1.66951,-0.51952 -1.66951,-1.15449 0,-1.52844 3.12262,-1.48548 4.07535,0.0562 0.51746,0.83726 1.21876,0.81997 2.27432,-0.0562 1.05556,-0.87603 1.75685,-0.89332 2.27433,-0.056 0.41147,0.66581 -0.0617,1.21055 -1.05171,1.21055 -2.3042,0 -2.27005,0.58088 0.50911,8.65863 1.26992,3.69112 2.30897,6.88955 2.30897,7.10764 0,0.21808 -1.03905,0.3965 -2.30897,0.3965 -2.15505,0 -2.30897,0.76966 -2.30897,11.54484 v 11.54484 h 13.27657 13.27656 v 15.00829 15.0083 h -27.47672 c -19.83147,0 -27.86219,-0.38547 -28.8621,-1.38539 z m 54.93477,-13.91153 0.32768,-12.4107 H 730.3116 703.7194 v 12.72099 12.721 l 26.26451,-0.3103 26.26452,-0.31029 z M 618.28758,278.40633 v -14.43106 h 12.69291 12.69291 l 9.74127,-19.45709 c 8.74263,-17.46238 9.56025,-19.63813 7.97542,-21.22296 -1.58484,-1.58484 -1.09038,-2.43065 4.82321,-8.25051 6.41746,-6.31575 8.64401,-7.68871 8.64401,-5.33018 0,0.63496 -0.47825,1.15449 -1.06275,1.15449 -1.06664,0 -1.64367,2.15221 -3.01706,11.25288 -0.64841,4.29655 -1.04887,4.82844 -3.23664,4.2988 -2.23125,-0.54017 -3.44967,1.33183 -11.46117,17.60921 -4.93048,10.0175 -8.95674,18.60328 -8.94725,19.07951 0.009,0.47622 6.51122,0.86585 14.4483,0.86585 h 14.43105 v 14.43106 14.43105 h -28.8621 -28.86211 z m 55.41524,-0.59891 v -12.721 l -26.26451,0.31029 -26.26451,0.31029 -0.32768,12.41071 -0.32768,12.4107 h 26.59219 26.59219 z m 30.60547,13.85665 c 0.39882,-0.64532 1.20876,-0.87444 1.79986,-0.50911 1.60131,0.98966 1.30273,1.68242 -0.72515,1.68242 -0.98993,0 -1.47355,-0.52799 -1.07471,-1.17331 z m 5.18354,0.0188 c 0,-0.63496 0.51951,-1.15448 1.15448,-1.15448 0.63496,0 1.15449,0.51952 1.15449,1.15448 0,0.63497 -0.51953,1.15449 -1.15449,1.15449 -0.63497,0 -1.15448,-0.51952 -1.15448,-1.15449 z m 5.20681,-0.0188 c 0.39882,-0.64532 1.20877,-0.87443 1.79986,-0.50911 1.60132,0.98966 1.30273,1.68242 -0.72515,1.68242 -0.98993,0 -1.47354,-0.52799 -1.07471,-1.17331 z m 5.77242,0 c 0.39883,-0.64532 1.20877,-0.87443 1.79987,-0.50911 1.60131,0.98966 1.30273,1.68242 -0.72516,1.68242 -0.98992,0 -1.47354,-0.52799 -1.07471,-1.17331 z m 17.31726,0 c 0.39882,-0.64532 1.20877,-0.87443 1.79986,-0.50911 1.60132,0.98966 1.30273,1.68242 -0.72515,1.68242 -0.98993,0 -1.47354,-0.52799 -1.07471,-1.17331 z m 5.77241,0 c 0.39884,-0.64532 1.20878,-0.87443 1.79988,-0.50911 1.60131,0.98966 1.30272,1.68242 -0.72517,1.68242 -0.98991,0 -1.47353,-0.52799 -1.07471,-1.17331 z m 4.02907,0.71957 c 0,-0.24955 0.77927,-0.75276 1.73172,-1.11825 0.95245,-0.36549 1.73172,-0.16131 1.73172,0.45373 0,0.61503 -0.77927,1.11825 -1.73172,1.11825 -0.95245,0 -1.73172,-0.20418 -1.73172,-0.45373 z m 5.77241,-0.63261 c 0,-0.5975 0.51953,-1.40743 1.15449,-1.79987 0.63496,-0.39243 1.15448,0.0964 1.15448,1.08635 0,0.98992 -0.51952,1.79986 -1.15448,1.79986 -0.63496,0 -1.15449,-0.48886 -1.15449,-1.08634 z m -51.95178,-2.44525 c 0,-0.67245 0.51952,-0.90154 1.15449,-0.50911 0.63497,0.39244 1.15448,0.94262 1.15448,1.22263 0,0.28001 -0.51951,0.5091 -1.15448,0.5091 -0.63497,0 -1.15449,-0.55018 -1.15449,-1.22262 z m 51.95178,-3.32718 c 0,-0.59749 0.51953,-1.40743 1.15449,-1.79986 0.63496,-0.39244 1.15448,0.0965 1.15448,1.08634 0,0.98993 -0.51952,1.79987 -1.15448,1.79987 -0.63496,0 -1.15449,-0.48886 -1.15449,-1.08635 z m -51.86062,-1.89606 c 0.0554,-1.34492 0.32895,-1.61848 0.69749,-0.69751 0.3335,0.83338 0.29249,1.82914 -0.0911,2.21276 -0.38361,0.38363 -0.65648,-0.29824 -0.60635,-1.51525 z m 52.53363,-2.63507 c -0.49731,-0.80467 -0.59243,-1.77483 -0.21137,-2.1559 1.03323,-1.03321 2.15977,0.48639 1.60172,2.16056 -0.39105,1.17316 -0.66299,1.17225 -1.39035,-0.004 z m -52.53363,-3.13736 c 0.0554,-1.34491 0.32895,-1.61846 0.69749,-0.6975 0.3335,0.83339 0.29249,1.82914 -0.0911,2.21277 -0.38361,0.38361 -0.65648,-0.29826 -0.60635,-1.51527 z m 52.53363,-2.63506 c -0.49731,-0.80468 -0.59243,-1.77482 -0.21137,-2.15589 1.03323,-1.03322 2.15977,0.48638 1.60172,2.16056 -0.39105,1.17315 -0.66299,1.17224 -1.39035,-0.004 z m -52.53363,-3.13735 c 0.0554,-1.34492 0.32895,-1.61848 0.69749,-0.69751 0.3335,0.83338 0.29249,1.82913 -0.0911,2.21276 -0.38361,0.38363 -0.65648,-0.29824 -0.60635,-1.51525 z m 52.48717,-2.7103 c -0.36532,-0.59109 -0.13621,-1.40102 0.50911,-1.79986 0.64533,-0.39882 1.17331,0.0848 1.17331,1.07471 0,2.02789 -0.69275,2.32647 -1.68242,0.72515 z m -52.57833,-2.38868 c 0,-0.63496 0.55018,-1.15449 1.22263,-1.15449 0.67244,0 0.90154,0.51953 0.5091,1.15449 -0.39243,0.63497 -0.94261,1.15448 -1.22262,1.15448 -0.28001,0 -0.50911,-0.51951 -0.50911,-1.15448 z m 2.09251,-3.0976 c 0.83339,-0.3335 1.82914,-0.2925 2.21277,0.0911 0.38361,0.38362 -0.29826,0.65649 -1.51527,0.60636 -1.34491,-0.0554 -1.61846,-0.32895 -0.6975,-0.6975 z m 5.77242,0 c 0.83338,-0.3335 1.82914,-0.2925 2.21276,0.0911 0.38363,0.38362 -0.29824,0.65649 -1.51525,0.60636 -1.34492,-0.0554 -1.61848,-0.32895 -0.69751,-0.6975 z m 5.77242,0 c 0.83339,-0.3335 1.82914,-0.2925 2.21277,0.0911 0.38361,0.38362 -0.29826,0.65649 -1.51527,0.60636 -1.34492,-0.0554 -1.61846,-0.32895 -0.6975,-0.6975 z m 4.61793,0 c 0.8334,-0.3335 1.82915,-0.2925 2.21277,0.0911 0.38362,0.38362 -0.29825,0.65649 -1.51526,0.60636 -1.34492,-0.0554 -1.61848,-0.32895 -0.69751,-0.6975 z m 5.22782,-0.65448 c 0.0753,-0.7937 -3.99174,-9.60706 -9.03782,-19.58523 -8.29291,-16.39855 -9.42099,-18.08033 -11.73759,-17.4989 -2.186,0.54865 -2.65989,0.0757 -3.22231,-3.21582 -1.33473,-7.81153 -1.23845,-13.9931 0.226,-14.50986 0.79371,-0.28006 1.44311,0.20794 1.44311,1.08443 0,0.87649 2.07808,3.62282 4.61794,6.10292 4.92432,4.80847 5.66997,6.85341 2.88818,7.92089 -1.37094,0.52607 0.30542,4.68021 8.08139,20.02621 5.39613,10.64936 9.81114,19.75757 9.81114,20.24047 0,0.4829 -0.72156,0.878 -1.60345,0.878 -0.8819,0 -1.54187,-0.64939 -1.46659,-1.44311 z m 6.31702,0.65448 c 0.8334,-0.3335 1.82915,-0.2925 2.21277,0.0911 0.38362,0.38362 -0.29825,0.65649 -1.51526,0.60636 -1.34492,-0.0554 -1.61848,-0.32895 -0.69751,-0.6975 z m 5.77242,0 c 0.83339,-0.3335 1.82914,-0.2925 2.21277,0.0911 0.38363,0.38362 -0.29825,0.65649 -1.51527,0.60636 -1.34491,-0.0554 -1.61846,-0.32895 -0.6975,-0.6975 z m 5.77243,0 c 0.83338,-0.3335 1.82914,-0.2925 2.21276,0.0911 0.38362,0.38362 -0.29825,0.65649 -1.51526,0.60636 -1.34492,-0.0554 -1.61848,-0.32895 -0.6975,-0.6975 z m 4.61793,0 c 0.83338,-0.3335 1.82914,-0.2925 2.21277,0.0911 0.38362,0.38362 -0.29825,0.65649 -1.51526,0.60636 -1.34493,-0.0554 -1.61848,-0.32895 -0.69751,-0.6975 z m 5.77242,0 c 0.83339,-0.3335 1.82914,-0.2925 2.21277,0.0911 0.38362,0.38362 -0.29826,0.65649 -1.51527,0.60636 -1.34491,-0.0554 -1.61846,-0.32895 -0.6975,-0.6975 z M 478.59503,195.86071 v -15.00829 l 27.99624,-0.0259 27.99623,-0.026 13.97789,-18.73445 13.9779,-18.73445 -33.60412,-0.57725 -33.60412,-0.57723 -0.29857,-62.630761 -0.29856,-62.630756 H 619.43213 744.12634 V 79.835032 142.7544 h -50.26248 -50.26248 l 14.47348,19.10649 c 7.96041,10.50857 14.47348,19.60013 14.47348,20.20347 0,1.99927 -3.18403,1.13576 -3.74676,-1.01614 -0.30391,-1.16221 -6.71149,-10.23181 -14.23903,-20.15468 l -13.68643,-18.04156 h -37.6124 -37.61239 l -14.08382,18.71158 -14.08383,18.71158 12.69434,0.32643 12.69434,0.32643 v 14.97048 14.97049 h -42.13867 -42.13866 z m 81.96836,0 V 183.16139 H 520.73369 480.904 v 12.69932 12.69933 h 39.82969 39.8297 z m 1.78098,-57.56901 c -0.52291,-1.64752 0.61212,-3.00116 4.82876,-5.75884 l 5.51234,-3.60506 -11.25622,-0.0136 -11.25622,-0.0136 V 113.89236 98.88407 H 606.2 662.22696 l -0.3231,14.71967 -0.32312,14.71967 -13.56619,0.57725 -13.56617,0.57724 5.23294,3.30409 c 4.04264,2.55256 5.07468,3.80273 4.53718,5.49626 -0.67701,2.13308 0.63643,2.18404 48.74017,1.89108 l 49.43595,-0.30108 0.29892,-60.321789 0.29891,-60.321789 H 620.02961 497.06677 v 60.61041 60.610418 h 32.98059 c 31.66309,0 32.95328,-0.086 32.29701,-2.15379 z m -39.62483,-65.672153 0.32312,-14.719671 h 55.41523 55.41523 l 0.32312,14.719671 0.32311,14.71967 H 578.45789 522.39644 Z M 632.14139,72.330936 V 59.631612 h -53.6835 -53.68351 V 72.330936 85.03026 h 53.68351 53.6835 z m 14.10783,0.302881 0.32323,-14.733931 39.8297,-0.322158 c 21.90633,-0.177188 41.01448,-0.03343 42.46257,0.319473 2.58509,0.629986 2.62699,0.897733 2.30895,14.753207 l -0.32389,14.111577 -42.46189,0.302883 -42.46188,0.302883 z m 82.86883,-0.302881 V 59.631612 H 688.71111 648.30417 V 72.330936 85.03026 h 40.40694 40.40694 z m -94.66769,67.742974 c 0,-0.20436 -0.82811,-2.80195 -1.84024,-5.77242 l -1.84025,-5.40083 h -27.41635 -27.41635 l -1.41225,4.3293 c -0.77672,2.38113 -1.68153,4.97872 -2.01068,5.77243 -0.47012,1.13369 6.10552,1.44311 30.66886,1.44311 17.19699,0 31.26726,-0.16722 31.26726,-0.37159 z m 25.39865,-15.79119 c 0,0 -0.0145,-5.06124 7.6e-4,-18.18312 l -7.6e-4,-4.90656 h -54.26075 -54.26074 v 2.88621 c 0,0 0.32492,5.7738 0,20.20347 0,2.27621 0.76966,2.30897 54.26074,2.30897 53.49109,0 54.26075,-0.0328 54.26075,-2.30897 z m -15.00829,85.43181 c 0,-0.63496 0.51952,-1.15448 1.15448,-1.15448 0.63497,0 1.15449,0.51952 1.15449,1.15448 0,0.63496 -0.51952,1.15449 -1.15449,1.15449 -0.63496,0 -1.15448,-0.51953 -1.15448,-1.15449 z m 5.19518,0 c 0.39243,-0.63496 1.20237,-1.15448 1.79986,-1.15448 0.59749,0 1.08634,0.51952 1.08634,1.15448 0,0.63496 -0.80993,1.15449 -1.79986,1.15449 -0.98991,0 -1.47878,-0.51953 -1.08634,-1.15449 z m 5.19517,0 c 0,-0.63496 0.77929,-1.15448 1.73173,-1.15448 0.95246,0 1.73173,0.51952 1.73173,1.15448 0,0.63496 -0.77927,1.15449 -1.73173,1.15449 -0.95244,0 -1.73173,-0.51953 -1.73173,-1.15449 z m 5.77243,0 c 0,-0.63496 0.48885,-1.15448 1.08634,-1.15448 0.59749,0 1.40743,0.51952 1.79987,1.15448 0.39243,0.63496 -0.0964,1.15449 -1.08635,1.15449 -0.98992,0 -1.79986,-0.51953 -1.79986,-1.15449 z m 5.77241,0 c 0,-0.63496 0.51953,-1.15448 1.15449,-1.15448 0.63497,0 1.15448,0.51952 1.15448,1.15448 0,0.63496 -0.51951,1.15449 -1.15448,1.15449 -0.63496,0 -1.15449,-0.51953 -1.15449,-1.15449 z m 10.39036,0 c 0,-0.63496 0.77928,-1.15448 1.73172,-1.15448 0.95246,0 1.73173,0.51952 1.73173,1.15448 0,0.63496 -0.77927,1.15449 -1.73173,1.15449 -0.95244,0 -1.73172,-0.51953 -1.73172,-1.15449 z m 5.77242,0 c 0,-0.63496 0.77928,-1.15448 1.73173,-1.15448 0.95244,0 1.73173,0.51952 1.73173,1.15448 0,0.63496 -0.77929,1.15449 -1.73173,1.15449 -0.95245,0 -1.73173,-0.51953 -1.73173,-1.15449 z m 5.77242,0 c 0,-0.63496 0.48886,-1.15448 1.08635,-1.15448 0.59749,0 1.40743,0.51952 1.79986,1.15448 0.39244,0.63496 -0.0963,1.15449 -1.08634,1.15449 -0.98993,0 -1.79987,-0.51953 -1.79987,-1.15449 z m 5.77242,0 c 0,-0.63496 0.51952,-1.15448 1.15449,-1.15448 0.63496,0 1.15448,0.51952 1.15448,1.15448 0,0.63496 -0.51952,1.15449 -1.15448,1.15449 -0.63497,0 -1.15449,-0.51953 -1.15449,-1.15449 z m 10.39036,0 c 0,-0.63496 0.77927,-1.15448 1.73172,-1.15448 0.95246,0 1.73173,0.51952 1.73173,1.15448 0,0.63496 -0.77927,1.15449 -1.73173,1.15449 -0.95245,0 -1.73172,-0.51953 -1.73172,-1.15449 z m 5.77242,0 c 0,-0.63496 0.48885,-1.15448 1.08634,-1.15448 0.59749,0 1.40743,0.51952 1.79986,1.15448 0.39244,0.63496 -0.0964,1.15449 -1.08634,1.15449 -0.98993,0 -1.79986,-0.51953 -1.79986,-1.15449 z m 5.77242,0 c 0,-0.63496 0.51952,-1.15448 1.15448,-1.15448 0.63496,0 1.15449,0.51952 1.15449,1.15448 0,0.63496 -0.51953,1.15449 -1.15449,1.15449 -0.63496,0 -1.15448,-0.51953 -1.15448,-1.15449 z m 5.19518,0 c 0.39243,-0.63496 1.20237,-1.15448 1.79986,-1.15448 0.59749,0 1.08635,0.51952 1.08635,1.15448 0,0.63496 -0.80994,1.15449 -1.79987,1.15449 -0.98992,0 -1.47878,-0.51953 -1.08634,-1.15449 z m 5.37746,-1.15448 c 0,-1.58742 0.26204,-2.23681 0.5823,-1.44311 0.32027,0.79371 0.32027,2.0925 0,2.88621 -0.32026,0.79371 -0.5823,0.14431 -0.5823,-1.4431 z m -83.30514,-2.88622 c 0,-0.95244 0.51953,-1.73172 1.15449,-1.73172 0.63496,0 1.15448,0.77928 1.15448,1.73172 0,0.95246 -0.51952,1.73173 -1.15448,1.73173 -0.63496,0 -1.15449,-0.77927 -1.15449,-1.73173 z m 83.21401,-2.40516 c 0.0554,-1.34492 0.32895,-1.61847 0.69748,-0.69751 0.3335,0.83339 0.2925,1.82913 -0.0911,2.21277 -0.38362,0.38362 -0.65648,-0.29826 -0.60635,-1.51526 z m -83.21401,-3.36725 c 0,-0.95245 0.51953,-1.73173 1.15449,-1.73173 0.63496,0 1.15448,0.77928 1.15448,1.73173 0,0.95244 -0.51952,1.73173 -1.15448,1.73173 -0.63496,0 -1.15449,-0.77929 -1.15449,-1.73173 z m 83.21401,-2.40517 c 0.0554,-1.34492 0.32895,-1.61848 0.69748,-0.6975 0.3335,0.83338 0.2925,1.82912 -0.0911,2.21275 -0.38362,0.38363 -0.65648,-0.29824 -0.60635,-1.51525 z m -83.21401,-2.79001 c 0,-0.63496 0.51953,-1.15449 1.15449,-1.15449 0.63496,0 1.15448,0.51953 1.15448,1.15449 0,0.63497 -0.51952,1.15448 -1.15448,1.15448 -0.63496,0 -1.15449,-0.51951 -1.15449,-1.15448 z m 83.21401,-2.98242 c 0.0554,-1.34491 0.32895,-1.61846 0.69748,-0.6975 0.3335,0.83339 0.2925,1.82913 -0.0911,2.21277 -0.38362,0.38362 -0.65648,-0.29826 -0.60635,-1.51527 z m -83.21401,-2.79 c 0,-0.63497 0.51953,-1.15448 1.15449,-1.15448 0.63496,0 1.15448,0.51951 1.15448,1.15448 0,0.63497 -0.51952,1.15449 -1.15448,1.15449 -0.63496,0 -1.15449,-0.51952 -1.15449,-1.15449 z m 83.21401,-2.98241 c 0.0554,-1.34492 0.32895,-1.61848 0.69748,-0.69751 0.3335,0.83339 0.2925,1.82913 -0.0911,2.21276 -0.38362,0.38363 -0.65648,-0.29824 -0.60635,-1.51525 z m -83.21401,-2.14463 c 0,-0.98992 0.51953,-1.79987 1.15449,-1.79987 0.63496,0 1.15448,0.48886 1.15448,1.08636 0,0.59748 -0.51952,1.40743 -1.15448,1.79986 -0.63496,0.39242 -1.15449,-0.0965 -1.15449,-1.08635 z m 4.05233,-1.81869 c 0.39884,-0.64533 1.20878,-0.87443 1.79987,-0.50911 1.60131,0.98966 1.30273,1.68242 -0.72516,1.68242 -0.98991,0 -1.47353,-0.52799 -1.07471,-1.17331 z m 5.18354,0.0188 c 0,-0.63496 0.48887,-1.15448 1.08636,-1.15448 0.59748,0 1.40743,0.51952 1.79986,1.15448 0.39244,0.63498 -0.0963,1.15449 -1.08635,1.15449 -0.98992,0 -1.79987,-0.51951 -1.79987,-1.15449 z m 5.77243,0 c 0,-0.63496 0.51952,-1.15448 1.15448,-1.15448 0.63497,0 1.15449,0.51952 1.15449,1.15448 0,0.63498 -0.51952,1.15449 -1.15449,1.15449 -0.63496,0 -1.15448,-0.51951 -1.15448,-1.15449 z m 5.19518,0 c 0.39243,-0.63496 1.20237,-1.15448 1.79986,-1.15448 0.59749,0 1.08634,0.51952 1.08634,1.15448 0,0.63498 -0.80993,1.15449 -1.79986,1.15449 -0.98993,0 -1.47878,-0.51951 -1.08634,-1.15449 z m 10.9676,0 c 0,-0.63496 0.48885,-1.15448 1.08634,-1.15448 0.59749,0 1.40743,0.51952 1.79986,1.15448 0.39244,0.63498 -0.0963,1.15449 -1.08634,1.15449 -0.98993,0 -1.79986,-0.51951 -1.79986,-1.15449 z m 5.77241,0 c 0,-0.63496 0.51952,-1.15448 1.15449,-1.15448 0.63496,0 1.15448,0.51952 1.15448,1.15448 0,0.63498 -0.51952,1.15449 -1.15448,1.15449 -0.63497,0 -1.15449,-0.51951 -1.15449,-1.15449 z m 5.77243,0 c 0,-0.63496 0.51951,-1.15448 1.15448,-1.15448 0.63496,0 1.15448,0.51952 1.15448,1.15448 0,0.63498 -0.51952,1.15449 -1.15448,1.15449 -0.63497,0 -1.15448,-0.51951 -1.15448,-1.15449 z m 5.19517,0 c 0.39244,-0.63496 1.20237,-1.15448 1.79987,-1.15448 0.59749,0 1.08634,0.51952 1.08634,1.15448 0,0.63498 -0.80994,1.15449 -1.79986,1.15449 -0.98993,0 -1.47878,-0.51951 -1.08635,-1.15449 z m 5.19518,0 c 0,-0.63496 0.48886,-1.15448 1.08634,-1.15448 0.5975,0 1.40743,0.51952 1.79987,1.15448 0.39243,0.63498 -0.0964,1.15449 -1.08635,1.15449 -0.98992,0 -1.79986,-0.51951 -1.79986,-1.15449 z m 5.77242,0 c 0,-0.63496 0.51952,-1.15448 1.15448,-1.15448 0.63497,0 1.15449,0.51952 1.15449,1.15448 0,0.63498 -0.51952,1.15449 -1.15449,1.15449 -0.63496,0 -1.15448,-0.51951 -1.15448,-1.15449 z m 5.77242,0 c 0,-0.63496 0.51951,-1.15448 1.15449,-1.15448 0.63496,0 1.15448,0.51952 1.15448,1.15448 0,0.63498 -0.51952,1.15449 -1.15448,1.15449 -0.63498,0 -1.15449,-0.51951 -1.15449,-1.15449 z m 5.19517,0 c 0.39244,-0.63496 1.20239,-1.15448 1.79987,-1.15448 0.59749,0 1.08635,0.51952 1.08635,1.15448 0,0.63498 -0.80995,1.15449 -1.79986,1.15449 -0.98993,0 -1.47879,-0.51951 -1.08636,-1.15449 z m 5.78406,-0.0188 c 0.39883,-0.64533 1.20878,-0.87443 1.79987,-0.5091 1.60131,0.98965 1.30273,1.68241 -0.72516,1.68241 -0.98992,0 -1.47353,-0.52799 -1.07471,-1.17331 z m 5.18355,0.0188 c 0,-0.63496 0.51951,-1.15448 1.15448,-1.15448 0.63497,0 1.15448,0.51952 1.15448,1.15448 0,0.63498 -0.51951,1.15449 -1.15448,1.15449 -0.63497,0 -1.15448,-0.51951 -1.15448,-1.15449 z" />
  </g>
</svg>
