<?xml version="1.0" encoding="UTF-8" standalone="no"?>
<svg xmlns="http://www.w3.org/2000/svg" viewBox="0 0 800 315" height="315" width="800">
  <style>
    .svgText {
      font-family: "Courier New", Courier, monospace;";
      font-size: 16px;
      line-height: 1.25;
      text-align: center;
    }
  </style>
  <g>
    <text class="svgText" x="375.61801" y="51.485504">transakcija</text>
    <text class="svgText" x="330.10818" y="118.58253">ulaz</text>
    <text class="svgText" x="334.29993" y="181.6017">ulaz</text>
    <text class="svgText" x="437.56741" y="117.87229">izlaz</text>
    <path d="m 282.33239,276.76496 v -30.51017 h -59.11345 c -51.27404,0 -59.11345,-0.37932 -59.11345,-2.86032 0,-2.48102 7.83941,-2.86034 59.11345,-2.86034 h 59.11345 v -29.55672 -29.55673 h -59.11345 c -51.27404,0 -59.11345,-0.37933 -59.11345,-2.86033 0,-2.48102 7.83941,-2.86033 59.11345,-2.86033 h 59.11345 v -30.51017 -30.51018 h -59.11345 c -51.27404,0 -59.11345,-0.37932 -59.11345,-2.86032 0,-2.48101 7.83941,-2.86033 59.11345,-2.86033 h 59.11345 V 57.473106 5.9871908 H 404.37308 526.41377 V 57.473106 108.95902 h 49.57903 c 48.30777,0 49.57903,-0.0979 49.57903,-3.81377 0,-2.09758 0.89228,-3.81378 1.98286,-3.81378 3.43187,0 17.08599,7.61935 17.08599,9.53443 0,1.91509 -13.65412,9.53444 -17.08599,9.53444 -1.09058,0 -1.98286,-1.28716 -1.98286,-2.86034 0,-2.46917 -6.78005,-2.86033 -49.57903,-2.86033 h -49.57903 v 30.51018 30.51017 h 49.57903 c 48.30777,0 49.57903,-0.0979 49.57903,-3.81378 0,-2.09757 0.89228,-3.81377 1.98286,-3.81377 3.43187,0 17.08599,7.61935 17.08599,9.53444 0,1.91508 -13.65412,9.53442 -17.08599,9.53442 -1.09058,0 -1.98286,-1.28715 -1.98286,-2.86033 0,-2.46917 -6.78005,-2.86032 -49.57903,-2.86032 h -49.57903 v 62.92723 62.92722 H 404.37308 282.33239 Z m 238.36072,-35.27739 v -60.06689 h -8.58099 -8.58098 v 12.39476 12.39474 h -45.76526 -45.76525 v -28.60327 -28.60329 h 45.76525 45.76526 v 13.3482 13.3482 h 8.58098 8.58099 v -30.51017 -30.51018 h -8.58099 -8.58098 v 13.34821 13.3482 H 457.76588 412.00063 V 112.77279 84.169499 h 45.76525 45.76526 v 12.394761 12.39476 h 8.58098 8.58099 V 60.333432 11.707848 H 404.37308 288.05306 v 44.458645 44.458637 l 6.73879,3.2135 c 3.70635,1.76742 7.13874,3.21351 7.62755,3.21351 0.48881,0 0.88875,-5.1486 0.88875,-11.441322 V 84.169499 h 45.76525 45.76526 v 28.603291 28.60329 H 349.0734 303.30815 v -13.3482 c 0,-7.34152 -0.39994,-13.34821 -0.88875,-13.34821 -0.48881,0 -3.9212,1.44609 -7.62755,3.21351 l -6.73879,3.2135 v 23.12973 23.12972 l 6.73879,3.2135 c 3.70635,1.76742 7.13874,3.21351 7.62755,3.21351 0.48881,0 0.88875,-5.57765 0.88875,-12.39476 v -12.39476 h 45.76525 45.76526 v 28.60329 28.60327 H 349.0734 303.30815 v -12.39474 c 0,-6.81713 -0.39994,-12.39476 -0.88875,-12.39476 -0.48881,0 -3.9212,1.44608 -7.62755,3.21349 l -6.73879,3.21351 v 22.17629 22.17627 l 6.73879,3.21351 c 3.70635,1.76741 7.13874,3.21349 7.62755,3.21349 0.48881,0 0.88875,-5.57763 0.88875,-12.39474 v -12.39477 h 45.76525 45.76526 v 28.60328 28.60329 H 349.0734 303.30815 v -12.39476 c 0,-6.81711 -0.39994,-12.39475 -0.88875,-12.39475 -0.48881,0 -3.9212,1.44609 -7.62755,3.2135 l -6.73879,3.21351 v 24.43634 24.43634 h 116.32002 116.32003 z m -131.57512,0.95344 V 219.55839 H 349.0734 309.0288 v 22.88262 22.88264 h 40.0446 40.04459 z m -53.3928,2.86034 c 0,-1.57318 1.28716,-2.86034 2.86034,-2.86034 1.57318,0 2.86033,1.28716 2.86033,2.86034 0,1.57318 -1.28715,2.86033 -2.86033,2.86033 -1.57318,0 -2.86034,-1.28715 -2.86034,-2.86033 z m 9.53444,0 c 0,-1.57318 1.28714,-2.86034 2.86032,-2.86034 1.57318,0 2.86033,1.28716 2.86033,2.86034 0,1.57318 -1.28715,2.86033 -2.86033,2.86033 -1.57318,0 -2.86032,-1.28715 -2.86032,-2.86033 z m 9.53442,0 c 0,-1.57318 1.28716,-2.86034 2.86034,-2.86034 1.57318,0 2.86033,1.28716 2.86033,2.86034 0,1.57318 -1.28715,2.86033 -2.86033,2.86033 -1.57318,0 -2.86034,-1.28715 -2.86034,-2.86033 z m 34.32394,-67.69444 V 154.72427 H 349.0734 309.0288 v 22.88264 22.88262 h 40.0446 40.04459 z m 108.6925,0 v -22.88264 h -40.04461 -40.0446 v 22.88264 22.88262 h 40.0446 40.04461 z m -53.3928,0.95344 c 0,-1.57318 1.28714,-2.86033 2.86033,-2.86033 1.57318,0 2.86032,1.28715 2.86032,2.86033 0,1.57318 -1.28714,2.86033 -2.86032,2.86033 -1.57319,0 -2.86033,-1.28715 -2.86033,-2.86033 z m 9.53442,0 c 0,-1.57318 1.28715,-2.86033 2.86033,-2.86033 1.57318,0 2.86032,1.28715 2.86032,2.86033 0,1.57318 -1.28714,2.86033 -2.86032,2.86033 -1.57318,0 -2.86033,-1.28715 -2.86033,-2.86033 z m 9.53443,0 c 0,-1.57318 1.28715,-2.86033 2.86033,-2.86033 1.57318,0 2.86033,1.28715 2.86033,2.86033 0,1.57318 -1.28715,2.86033 -2.86033,2.86033 -1.57318,0 -2.86033,-1.28715 -2.86033,-2.86033 z M 389.11799,112.77279 V 89.890165 H 349.0734 309.0288 v 22.882625 22.88262 h 40.0446 40.04459 z m 108.6925,0 V 89.890165 h -40.04461 -40.0446 v 22.882625 22.88262 h 40.0446 40.04461 z" />
  </g>
</svg>
