<?xml version="1.0" encoding="UTF-8" standalone="no"?>
<svg xmlns="http://www.w3.org/2000/svg" viewBox="0 0 800 315" height="315" width="800">
  <style>
    .svgText {
      font-family: "Courier New", Courier, monospace;";
      font-size: 16px;
      line-height: 1.25;
      text-align: center;
    }
  </style>
  <g>
    <text class="svgText" x="15.761046" y="42.566734">tradicionalni model privatnosti</text>
    <text class="svgText" x="14.528866" y="168.08514">novi model privatnosti</text>
    <text class="svgText" x="25" y="95">identiteti</text>
    <text class="svgText" x="172" y="95">transakcije</text>
    <text class="svgText" x="335" y="86.144524">3. partija
    <tspan x="328" y="101.14452">od poverenja</tspan></text>
    <text class="svgText" x="500" y="95">kaunterpart</text>
    <text class="svgText" x="677" y="95">javnost</text>
    <text class="svgText" x="25" y="229">identiteti</text>
    <text class="svgText" x="172" y="229">transakcije</text>
    <text class="svgText" x="352" y="229">javnost</text>
    <path d="m 147,224 c 0,-36.66667 0.19048,-42 1.5,-42 1.30952,0 1.5,5.33333 1.5,42 0,36.66667 -0.19048,42 -1.5,42 -1.30952,0 -1.5,-5.33333 -1.5,-42 z M 14,224.5 V 197 H 72.5 131 V 224.5 252 H 72.5 14 Z m 114,0 V 200 H 72.5 17 V 224.5 249 H 72.5 128 Z m 38,0 V 197 h 58.5 58.5 v 13 13 h 17.5 c 14.88889,0 17.5,-0.22381 17.5,-1.5 0,-1.86302 1.74098,-1.86302 5,0 1.375,0.78602 2.8375,1.44508 3.25,1.46456 C 326.6625,222.98405 327,217.15 327,210 V 197 H 385.5 444 V 224.5 252 H 385.5 327 v -12.5 c 0,-6.875 -0.3375,-12.48405 -0.75,-12.46456 -0.4125,0.0195 -1.875,0.67854 -3.25,1.46456 -3.48135,1.99012 -5,1.83825 -5,-0.5 0,-1.92381 -0.66667,-2 -17.5,-2 H 283 v 13 13 H 224.5 166 Z m 114,0 V 200 H 224.5 169 v 24.5 24.5 h 55.5 55.5 z m 161,0 V 200 H 385.5 330 v 24.5 24.5 h 55.5 55.5 z m 190,-134 c 0,-39.777778 0.18864,-45.5 1.5,-45.5 1.31136,0 1.5,5.722222 1.5,45.5 0,39.77778 -0.18864,45.5 -1.5,45.5 -1.31136,0 -1.5,-5.72222 -1.5,-45.5 z M 14,89.5 V 62 H 72.5 131 V 74.5 87 h 17 17 V 74.5 62 H 223.5 282 V 74.5 87 h 17.5 c 14.88889,0 17.5,-0.22381 17.5,-1.5 0,-1.863023 1.74098,-1.863023 5,0 1.375,0.786021 2.8375,1.445075 3.25,1.464565 C 325.6625,86.984054 326,81.375 326,74.5 V 62 H 384.5 443 V 75.5 89 h 21 c 20.33333,0 21,-0.06349 21,-2 0,-2.338252 1.51865,-2.490118 5,-0.5 1.375,0.786021 2.8375,1.445075 3.25,1.464565 C 493.6625,87.984054 494,82.15 494,75 V 62 H 552.5 611 V 89.5 117 H 552.5 494 v -12.5 c 0,-6.875 -0.3375,-12.484054 -0.75,-12.464565 -0.4125,0.01949 -1.875,0.678544 -3.25,1.464565 -3.25902,1.863023 -5,1.863023 -5,0 0,-1.285714 -3,-1.5 -21,-1.5 H 443 V 104.5 117 H 384.5 326 v -13 c 0,-7.15 -0.3375,-12.984054 -0.75,-12.964565 -0.4125,0.01949 -1.875,0.678544 -3.25,1.464565 -3.48135,1.990118 -5,1.838252 -5,-0.5 0,-1.92381 -0.66667,-2 -17.5,-2 H 282 V 103.5 117 H 223.5 165 V 103.5 90 H 148 131 V 103.5 117 H 72.5 14 Z m 114,0 V 65 H 72.5 17 V 89.5 114 H 72.5 128 Z m 151,0 V 65 H 223.5 168 V 89.5 114 h 55.5 55.5 z m 161,0 V 65 H 384.5 329 V 89.5 114 h 55.5 55.5 z m 168,0 V 65 H 552.5 497 V 89.5 114 h 55.5 55.5 z m 44,0 V 62 H 710.5 769 V 89.5 117 H 710.5 652 Z m 114,0 V 65 H 710.5 655 V 89.5 114 h 55.5 55.5 z" />
  </g>
</svg>
