<?xml version="1.0" encoding="UTF-8" standalone="no"?>
<svg xmlns="http://www.w3.org/2000/svg" viewBox="0 0 800 248" height="248" width="800">
  <style>
    .svgText {
      font-family: "Courier New", Courier, monospace;";
      font-size: 16px;
      line-height: 1.25;
      text-align: center;
    }
  </style>
  <g>
    <path d="M 84.113895,168.94091 V 118.98483 H 44.149033 c -34.6917214,0 -39.9648624,-0.24718 -39.9648624,-1.87335 0,-1.62617 5.273141,-1.87335 39.9648624,-1.87335 H 84.113895 V 75.897716 36.557305 h 159.234995 159.235 v 39.340411 39.340414 h 38.09151 38.09151 V 75.897716 36.557305 h 159.23499 159.235 v 91.169835 91.16985 H 638.0019 478.76691 V 168.94091 118.98483 H 440.6754 402.58389 v 49.95608 49.95608 H 243.34889 84.113895 Z M 398.83718,127.72714 V 40.304011 H 243.34889 87.860603 v 37.467058 37.467061 h 11.240112 c 10.407515,0 11.240125,-0.18503 11.240125,-2.49781 0,-2.99036 1.15478,-3.09247 7.06159,-0.62445 2.46596,1.03035 4.69593,1.87335 4.95549,1.87335 0.25957,0 0.47193,-3.09103 0.47193,-6.86896 v -6.86895 h 82.42753 82.42753 v 18.10907 18.10908 h -82.42753 -82.42753 v -8.74232 c 0,-4.80827 -0.4215,-8.72239 -0.93667,-8.69805 -0.51517,0.0243 -2.3417,0.84743 -4.05894,1.8291 -4.09632,2.34167 -7.4934,2.34167 -7.4934,0 0,-1.52644 -2.08151,-1.87336 -11.240125,-1.87336 H 87.860603 v 48.08272 48.08273 H 243.34889 398.83718 Z M 122.82985,158.9497 v -17.48463 h 26.8514 26.85138 v 17.48463 17.48462 h -26.85138 -26.8514 z m 49.95609,0 v -13.73792 h -23.10469 -23.10469 v 13.73792 13.73791 h 23.10469 23.10469 z m 9.99121,0 v -17.48463 h 26.85139 26.85139 v 17.48463 17.48462 h -26.85139 -26.85139 z m 49.95608,0 v -13.73792 h -23.10469 -23.10468 v 13.73792 13.73791 h 23.10468 23.10469 z m 8.74231,0 v -17.48463 h 26.85139 26.85139 v 17.48463 17.48462 h -26.85139 -26.85139 z m 49.95608,0 v -13.73792 h -23.10469 -23.10468 v 13.73792 13.73791 h 23.10468 23.10469 z m 8.74231,0 v -17.48463 h 26.85139 26.85139 v 17.48463 17.48462 h -26.85139 -26.85139 z m 49.95608,0 v -13.73792 h -23.10469 -23.10468 v 13.73792 13.73791 h 23.10468 23.10469 z m -36.60051,6.69476 c -0.99778,-0.99779 0.13012,-2.94806 1.70497,-2.94806 0.64635,0 1.17518,0.84301 1.17518,1.87336 0,1.93131 -1.47365,2.48119 -2.88015,1.0747 z m 7.49341,0 c -0.99779,-0.99779 0.13012,-2.94806 1.70496,-2.94806 0.64636,0 1.1752,0.84301 1.1752,1.87336 0,1.93131 -1.47366,2.48119 -2.88016,1.0747 z m 7.49341,0 c -0.99778,-0.99779 0.13013,-2.94806 1.70497,-2.94806 0.64636,0 1.17519,0.84301 1.17519,1.87336 0,1.93131 -1.47365,2.48119 -2.88016,1.0747 z m -35.8358,-47.28408 v -18.10907 h 35.59371 35.5937 v 18.10907 18.10908 h -35.5937 -35.59371 z m 67.4407,0 v -14.36237 h -31.84699 -31.84701 v 14.36237 14.36237 h 31.84701 31.84699 z m 433.36897,9.36676 V 40.304011 H 638.0019 482.51361 v 37.467058 37.467061 h 11.24012 c 10.40751,0 11.24012,-0.18503 11.24012,-2.49781 0,-2.99036 1.15479,-3.09247 7.06159,-0.62445 2.46596,1.03035 4.69594,1.87335 4.95549,1.87335 0.25957,0 0.47194,-3.09103 0.47194,-6.86896 v -6.86895 h 82.42752 82.42753 v 18.10907 18.10908 h -82.42753 -82.42752 v -8.74232 c 0,-4.80827 -0.42151,-8.72239 -0.93668,-8.69805 -0.51517,0.0243 -2.34169,0.84743 -4.05892,1.8291 -4.09634,2.34167 -7.49342,2.34167 -7.49342,0 0,-1.52644 -2.08151,-1.87336 -11.24012,-1.87336 h -11.24012 v 48.08272 48.08273 H 638.0019 793.49019 Z M 517.48287,158.9497 v -17.48463 h 26.85139 26.8514 v 17.48463 17.48462 h -26.8514 -26.85139 z m 49.95608,0 v -13.73792 h -23.10469 -23.10469 v 13.73792 13.73791 h 23.10469 23.10469 z m 9.99121,0 v -17.48463 h 26.85139 26.8514 v 17.48463 17.48462 h -26.8514 -26.85139 z m 49.95608,0 v -13.73792 h -23.10469 -23.10468 v 13.73792 13.73791 h 23.10468 23.10469 z m 8.74231,0 v -17.48463 h 26.85139 26.8514 v 17.48463 17.48462 h -26.8514 -26.85139 z m 49.95608,0 v -13.73792 h -23.10469 -23.10468 v 13.73792 13.73791 h 23.10468 23.10469 z m 8.74231,0 v -17.48463 h 26.85139 26.8514 v 17.48463 17.48462 h -26.8514 -26.85139 z m 49.95608,0 v -13.73792 h -23.10469 -23.10468 v 13.73792 13.73791 h 23.10468 23.10469 z m -36.60051,6.69476 c -0.99778,-0.99779 0.13013,-2.94806 1.70497,-2.94806 0.64636,0 1.17519,0.84301 1.17519,1.87336 0,1.93131 -1.47365,2.48119 -2.88016,1.0747 z m 7.49342,0 c -0.99779,-0.99779 0.13011,-2.94806 1.70495,-2.94806 0.64636,0 1.1752,0.84301 1.1752,1.87336 0,1.93131 -1.47366,2.48119 -2.88015,1.0747 z m 7.4934,0 c -0.99778,-0.99779 0.13013,-2.94806 1.70497,-2.94806 0.64636,0 1.17519,0.84301 1.17519,1.87336 0,1.93131 -1.47365,2.48119 -2.88016,1.0747 z m -35.8358,-47.28408 v -18.10907 h 35.59371 35.5937 v 18.10907 18.10908 h -35.5937 -35.59371 z m 67.4407,0 v -14.36237 h -31.84699 -31.847 v 14.36237 14.36237 h 31.847 31.84699 z m -470.83602,0 v -14.36237 h -78.68083 -78.68082 v 14.36237 14.36237 h 78.68082 78.68083 z m 394.65301,0 v -14.36237 h -78.68083 -78.68082 v 14.36237 14.36237 h 78.68082 78.68083 z" />
    <text class="svgText" y="92.905991" x="129.35143">blok</text>
    <text class="svgText" x="129.54645" y="123.64493">prethodni haš</text>
    <text class="svgText" x="303.84644" y="123.32861">nons</text>
    <text class="svgText" x="136.39485" y="165.96794">tx</text>
    <text class="svgText" y="167.38374" x="198.00528">tx</text>
    <text class="svgText" y="166.15129" x="256.81049">tx</text>
    <text class="svgText" x="524.37408" y="92.110092">blok</text>
    <text class="svgText" y="122.84904" x="524.56909">prethodni haš</text>
    <text class="svgText" y="122.53271" x="698.86902">nons</text>
    <text class="svgText" y="165.17204" x="531.41748">tx</text>
    <text class="svgText" x="593.02783" y="166.58784">tx</text>
    <text class="svgText" x="651.83313" y="165.35538">tx</text>
  </g>
</svg>
