<?xml version="1.0" encoding="UTF-8" standalone="no"?>
<svg xmlns="http://www.w3.org/2000/svg" width="800" height="454" viewBox="0 0 800 454">
  <style>
    .svgText {
      font-family: "Courier New", Courier, monospace;";
      font-size: 16px;
      line-height: 1.25;
      text-align: center;
    }
  </style>
  <g>
    <path d="M 89.235337,399.75 89.5,369.5 156.75,369.24296 224,368.98592 v 6.92371 c 0,4.56118 0.42653,7.12275 1.25,7.50704 1,0.46666 1,0.7 0,1.16666 -0.94548,0.44123 -1.25,6.04445 -1.25,23 V 430 H 156.48534 88.970674 Z M 223,400 V 371 H 157 91 v 29 29 h 66 66 z m 104,-0.50704 v -30.50704 l 67.25,0.25704 67.25,0.25704 0.30353,6.47407 c 0.16695,3.56074 0.84195,6.8575 1.5,7.32613 0.92127,0.65608 0.90896,0.96872 -0.0535,1.35926 -0.94774,0.38456 -1.25,5.92771 -1.25,22.92387 L 462,430 H 394.5 327 Z M 460,400 v -29 h -66 -66 v 29 29 h 66 66 z M 564.23534,399.75 564.5,369.5 h 67.5 67.5 l 0.26466,30.25 0.26467,30.25 H 632 563.97067 Z M 698,400 v -29 h -66 -66 v 29 29 h 66 66 z M 228,381.19032 c 0,-0.53699 0.7126,-1.24979 1.58356,-1.58401 0.97391,-0.37373 1.43108,-0.15024 1.1875,0.58051 -0.49828,1.49484 -2.77106,2.31789 -2.77106,1.0035 z m 238,0 c 0,-0.53699 0.7126,-1.24979 1.58356,-1.58401 0.97391,-0.37373 1.43108,-0.15024 1.1875,0.58051 -0.49828,1.49484 -2.77106,2.31789 -2.77106,1.0035 z m -233,-3.00886 c 0,-1.20855 1.8972,-2.61759 2.5907,-1.9241 0.2517,0.2517 -0.22824,1.02686 -1.06653,1.72258 C 233.57378,378.76869 233,378.84456 233,378.18146 Z m 237.52565,-0.13996 c -0.35883,-0.5806 0.0705,-1.33304 0.9541,-1.6721 2.19989,-0.84418 2.88424,0.0836 1.13344,1.53666 -0.98557,0.81795 -1.6395,0.86038 -2.08754,0.13544 z m -232.29671,-4.22832 c 0.49828,-1.49484 2.77106,-2.31789 2.77106,-1.0035 0,0.53699 -0.7126,1.24979 -1.58356,1.58401 -0.97391,0.37373 -1.43108,0.15024 -1.1875,-0.58051 z M 475,374.19032 c 0,-0.53699 0.7126,-1.24979 1.58356,-1.58401 0.97391,-0.37373 1.43108,-0.15024 1.1875,0.58051 -0.49828,1.49484 -2.77106,2.31789 -2.77106,1.0035 z m -232.00914,-4.67931 c 0.67967,-0.81894 1.68281,-1.21269 2.22921,-0.875 0.60346,0.37296 0.46084,0.95147 -0.36331,1.47368 -2.15703,1.36676 -3.21528,1.02722 -1.8659,-0.59868 z m 238.0292,-0.0352 c 0.69572,-0.83829 1.47088,-1.31823 1.72258,-1.06653 0.69349,0.6935 -0.71555,2.5907 -1.9241,2.5907 -0.6631,0 -0.58723,-0.57378 0.20152,-1.52417 z M 247.1875,366.9375 c 0.24062,-0.72188 1.02812,-1.50937 1.75,-1.75 0.75,-0.25 1.125,0.125 0.875,0.875 -0.24063,0.72187 -1.02813,1.50937 -1.75,1.75 -0.75,0.25 -1.125,-0.125 -0.875,-0.875 z m 238.04144,-0.12432 c 0.49828,-1.49484 2.77106,-2.31789 2.77106,-1.0035 0,0.53699 -0.7126,1.24979 -1.58356,1.58401 -0.97391,0.37373 -1.43108,0.15024 -1.1875,-0.58051 z M 252,363.19032 c 0,-0.53699 0.7126,-1.24979 1.58356,-1.58401 0.97391,-0.37373 1.43108,-0.15024 1.1875,0.58051 C 254.27278,363.68166 252,364.50471 252,363.19032 Z M 489.5,363 c 0.33992,-0.55 1.29303,-1 2.11803,-1 0.825,0 1.22189,0.45 0.88197,1 -0.33992,0.55 -1.29303,1 -2.11803,1 -0.825,0 -1.22189,-0.45 -0.88197,-1 z M 295.22894,330.81318 c 0.49828,-1.49484 2.77106,-2.31789 2.77106,-1.0035 0,0.53699 -0.7126,1.24979 -1.58356,1.58401 -0.97391,0.37373 -1.43108,0.15024 -1.1875,-0.58051 z M 300,327 c 0,-0.55 0.70156,-1 1.55902,-1 0.85746,0 1.2809,0.45 0.94098,1 -0.33992,0.55 -1.04148,1 -1.55902,1 C 300.42344,328 300,327.55 300,327 Z m 238.02006,-0.52417 c 0.69572,-0.83829 1.47088,-1.31823 1.72258,-1.06653 0.69349,0.6935 -0.71555,2.5907 -1.9241,2.5907 -0.6631,0 -0.58723,-0.57378 0.20152,-1.52417 z M 74.672475,326.33914 C 74.302614,325.96928 74,285.69167 74,236.83333 V 148 H 51.940983 C 37.489616,148 30.095112,147.65512 30.5,147 c 0.38093,-0.61636 8.843718,-1 22.059017,-1 H 74 V 87 28 h 82.5 82.5 v 59 59 H 275.5 312 V 87 28 h 82.5 82.5 v 59 59 H 513.5 550 V 87 28 h 82.50327 82.50327 L 714.75327,177.25 714.5,326.5 632.25,326.75581 550,327.01162 v -3.47442 c 0,-2.67754 -0.34404,-3.34241 -1.5,-2.89883 -0.825,0.31659 -1.5,0.12561 -1.5,-0.42439 0,-0.55 0.675,-1.25902 1.5,-1.57561 1.31706,-0.5054 1.5,-10.94602 1.5,-85.60699 V 148 H 513.50537 477.01075 L 476.75537,237.25 476.5,326.5 h -82 -82 l -0.30932,-3.19585 c -0.24356,-2.51645 -0.66874,-3.06502 -2,-2.58044 -1.54795,0.56347 -1.54294,0.44672 0.0593,-1.38289 1.63715,-1.86944 1.75,-7.45819 1.75,-86.66956 L 312,148 h -36.49463 -36.49462 l -0.25538,89.25 -0.25537,89.25 -81.57753,0.25581 C 112.05484,326.8965 75.042336,326.709 74.672475,326.33914 Z M 238,273.2 c 0,-40.06667 -0.28314,-52.10013 -1.25,-53.125 -1,-1.06 -1,-1.41667 0,-1.78333 0.98794,-0.36225 1.25,-20.25278 1.25,-94.875 V 29 H 157 76 v 58.484895 58.484895 l 29.25,0.26511 29.25,0.2651 0.29772,6.25 c 0.28041,5.88663 0.44029,6.25 2.75,6.25 3.05125,0 3.05232,0.88551 0.0119,9.82485 L 135.11915,176 h 13.94042 C 156.72681,176 163,175.85382 163,175.67515 163,175.49649 161.875,172.04267 160.5,168 159.125,163.95733 158,160.27851 158,159.82485 158,159.37118 159.125,159 160.5,159 H 163 V 146 133 H 126 89 V 102.5 72 h 67.5 67.5 v 30.5 30.5 h -6.63976 c -5.15084,0 -6.93765,0.39242 -7.96819,1.75 -1.26518,1.66667 -1.32996,1.66667 -1.36025,0 C 208.00252,133.13858 206.29741,133 186.5,133 H 165 v 13 13 h 2.5 c 1.375,0 2.5,0.37118 2.5,0.82485 0,0.45366 -1.125,4.13248 -2.5,8.17515 -1.375,4.04267 -2.5,7.47677 -2.5,7.63134 0,0.15457 3.2625,0.41326 7.25,0.57485 L 179.5,176.5 v 15.5 15.5 l -14.75,0.27673 -14.75,0.27674 V 220.52673 233 h 2.5 c 3.10347,0 3.10913,0.85878 0.0646,9.81007 l -2.4354,7.16037 29.6854,0.26478 L 209.5,250.5 V 281 311.5 H 157 104.5 V 281 250.5 l 21.75,-0.2695 c 11.9625,-0.14823 21.75,-0.63191 21.75,-1.07485 0,-0.44294 -1.125,-4.11298 -2.5,-8.15565 -1.375,-4.04267 -2.5,-7.49649 -2.5,-7.67515 C 143,233.14618 144.125,233 145.5,233 H 148 V 220.5 208 H 133.5 119 v -16 -16 h 7.43659 7.43659 L 131,167.5 128.12682,159 h 2.93659 C 133.95625,159 134,158.918 134,153.5 V 148 H 105 76 v 88.5 88.5 h 81 81 z M 230.5,217 c -0.33992,-0.55 0.057,-1 0.88197,-1 0.825,0 1.77811,0.45 2.11803,1 0.33992,0.55 -0.057,1 -0.88197,1 -0.825,0 -1.77811,-0.45 -2.11803,-1 z m -4.83333,-1.66667 c -1.21466,-1.21466 -0.69095,-2.27988 0.83333,-1.69496 0.825,0.31659 1.5,0.97746 1.5,1.46862 0,1.0484 -1.37764,1.18204 -2.33333,0.22634 z M 219,212 c 0,-1.25292 1.06124,-1.25292 3,0 1.21296,0.78387 1.06944,0.9723 -0.75,0.98469 C 220.0125,212.99311 219,212.55 219,212 Z m -4.5,-2 c -0.33992,-0.55 0.0835,-1 0.94098,-1 0.85746,0 1.55902,0.45 1.55902,1 0,0.55 -0.42344,1 -0.94098,1 -0.51754,0 -1.2191,-0.45 -1.55902,-1 z m -5.25,-1.66228 C 207.7687,207.74 207.55315,204 209,204 c 0.55,0 1,0.675 1,1.5 0,0.825 0.45,1.5 1,1.5 0.55,0 1,0.45 1,1 0,1.06391 -0.72858,1.15338 -2.75,0.33772 z M 208,199.5 c 0,-0.825 0.45,-1.5 1,-1.5 0.55,0 1,0.675 1,1.5 0,0.825 -0.45,1.5 -1,1.5 -0.55,0 -1,-0.675 -1,-1.5 z m 0,-6 c 0,-0.825 0.45,-1.5 1,-1.5 0.55,0 1,0.675 1,1.5 0,0.825 -0.45,1.5 -1,1.5 -0.55,0 -1,-0.675 -1,-1.5 z m 0,-6 c 0,-0.825 0.45,-1.5 1,-1.5 0.55,0 1,0.675 1,1.5 0,0.825 -0.45,1.5 -1,1.5 -0.55,0 -1,-0.675 -1,-1.5 z m 0,-6 c 0,-0.825 0.45,-1.5 1,-1.5 0.55,0 1,0.675 1,1.5 0,0.825 -0.45,1.5 -1,1.5 -0.55,0 -1,-0.675 -1,-1.5 z m 0,-6 c 0,-0.825 0.45,-1.5 1,-1.5 0.55,0 1,0.675 1,1.5 0,0.825 -0.45,1.5 -1,1.5 -0.55,0 -1,-0.675 -1,-1.5 z m 0,-6 c 0,-0.825 0.45,-1.5 1,-1.5 0.55,0 1,0.675 1,1.5 0,0.825 -0.45,1.5 -1,1.5 -0.55,0 -1,-0.675 -1,-1.5 z m 0,-6 c 0,-0.825 0.45,-1.5 1,-1.5 0.55,0 1,0.675 1,1.5 0,0.825 -0.45,1.5 -1,1.5 -0.55,0 -1,-0.675 -1,-1.5 z m 0,-5.44098 C 208,156.92656 208.45,156 209,156 c 0.55,0 1,0.64844 1,1.44098 0,0.79254 -0.45,1.7191 -1,2.05902 -0.55,0.33992 -1,-0.30852 -1,-1.44098 z m 0,-6 C 208,150.92656 208.45,150 209,150 c 0.55,0 1,0.64844 1,1.44098 0,0.79254 -0.45,1.7191 -1,2.05902 -0.55,0.33992 -1,-0.30852 -1,-1.44098 z m 0,-6 C 208,144.92656 208.45,144 209,144 c 0.55,0 1,0.64844 1,1.44098 0,0.79254 -0.45,1.7191 -1,2.05902 -0.55,0.33992 -1,-0.30852 -1,-1.44098 z m 0,-6 C 208,138.92656 208.45,138 209,138 c 0.55,0 1,0.64844 1,1.44098 0,0.79254 -0.45,1.7191 -1,2.05902 -0.55,0.33992 -1,-0.30852 -1,-1.44098 z m 267,132.52431 c 0,-40.95555 -0.27332,-52.54421 -1.25,-53 -1,-0.46666 -1,-0.7 0,-1.16666 0.98706,-0.46063 1.25,-20.44445 1.25,-95 V 29 H 394.5 314 v 58.484895 58.484895 l 29.25,0.26511 29.25,0.2651 0.29772,6.25 c 0.28041,5.88663 0.44029,6.25 2.75,6.25 3.01835,0 3.01843,-0.0149 -0.0477,9 -1.375,4.04267 -2.5,7.49649 -2.5,7.67515 0,0.17867 6.3,0.32485 14,0.32485 7.7,0 14,-0.14618 14,-0.32485 0,-0.17866 -1.125,-3.63248 -2.5,-7.67515 -1.375,-4.04267 -2.5,-7.72149 -2.5,-8.17515 C 396,159.37118 397.125,159 398.5,159 H 401 V 146 133 H 364 327 V 102.5 72 h 67.5 67.5 v 30.5 30.5 h -7.5 c -6.432,0 -7.51652,0.2492 -7.616,1.75 -0.11048,1.66667 -0.13778,1.66667 -0.57333,0 -0.41759,-1.59799 -2.31852,-1.75 -21.88399,-1.75 H 403 v 13 13 h 2.5 c 1.375,0 2.5,0.14618 2.5,0.32485 0,0.17866 -1.125,3.63248 -2.5,7.67515 -1.375,4.04267 -2.5,7.70177 -2.5,8.13134 0,0.42957 3.2625,0.91326 7.25,1.07485 L 417.5,176.5 v 15.5 15.5 l -14.75,0.27673 -14.75,0.27674 V 220.52673 233 h 2.5 c 1.375,0 2.5,0.37118 2.5,0.82485 0,0.45366 -1.125,4.13248 -2.5,8.17515 -1.375,4.04267 -2.5,7.48969 -2.5,7.66005 0,0.17036 13.1625,0.42904 29.25,0.57485 l 29.25,0.2651 0.26445,30.75 0.26445,30.75 h -52.47064 -52.47064 l -0.29381,-7.13448 -0.29381,-7.13448 -4.5,6.61068 c -2.475,3.63587 -4.78329,6.62139 -5.12954,6.63448 -0.34624,0.0131 -2.28867,-2.00096 -4.31651,-4.47566 l -3.68697,-4.49947 2.31651,-0.84128 c 1.27408,-0.46271 5.35401,-1.89617 9.06651,-3.18547 l 6.75,-2.34418 v -14.34646 c 0,-10.5978 -0.32662,-14.45066 -1.25,-14.74525 -0.6875,-0.21935 -4.76427,-0.69613 -9.05949,-1.05951 l -7.80949,-0.66071 0.63894,-2.9091 C 324.91753,260.099 324.75111,259 324.07946,259 323.48575,259 323,258.53027 323,257.95616 c 0,-0.57411 0.64993,-0.91161 1.44429,-0.75 0.79436,0.16161 2.08911,-0.58022 2.87723,-1.64851 1.37315,-1.8613 1.70738,-1.7014 8.01024,3.83221 l 6.5773,5.77454 0.29547,-7.3322 0.29547,-7.3322 21.75,-0.2695 c 11.9625,-0.14823 21.75,-0.40691 21.75,-0.57485 0,-0.16794 -1.125,-3.61298 -2.5,-7.65565 -1.375,-4.04267 -2.5,-7.72149 -2.5,-8.17515 C 381,233.37118 382.125,233 383.5,233 H 386 V 220.52673 208.05347 L 371.25,207.77673 356.5,207.5 V 192 176.5 l 7.25,-0.29381 c 3.9875,-0.16159 7.25,-0.64528 7.25,-1.07485 0,-0.42957 -1.125,-4.08867 -2.5,-8.13134 -1.375,-4.04267 -2.5,-7.49649 -2.5,-7.67515 0,-0.17867 1.125,-0.32485 2.5,-0.32485 2.36364,0 2.5,-0.3 2.5,-5.5 V 148 h -28.49804 -28.49805 l 0.0136,83.96265 c 0.0128,79.2509 0.11091,83.92718 1.74804,83.33044 1.63556,-0.59617 1.63467,-0.51827 -0.0155,1.36609 -0.9625,1.09906 -1.75,3.42537 -1.75,5.16956 V 325 h 80.5 80.5 v -52.41667 z m -155.77106,40.22985 c 0.49828,-1.49484 2.77106,-2.31789 2.77106,-1.0035 0,0.53699 -0.7126,1.24979 -1.58356,1.58401 -0.97391,0.37373 -1.43108,0.15024 -1.1875,-0.58051 z M 323.5,309 c 0.33992,-0.55 1.29303,-1 2.11803,-1 0.825,0 1.22189,0.45 0.88197,1 -0.33992,0.55 -1.29303,1 -2.11803,1 -0.825,0 -1.22189,-0.45 -0.88197,-1 z m -6,-53 c -0.33992,-0.55 0.30852,-1 1.44098,-1 1.13246,0 2.05902,0.45 2.05902,1 0,0.55 -0.64844,1 -1.44098,1 -0.79254,0 -1.7191,-0.45 -2.05902,-1 z m 151,-39 c -0.33992,-0.55 -0.16803,-1 0.38197,-1 0.55,0 1.27811,0.45 1.61803,1 0.33992,0.55 0.16803,1 -0.38197,1 -0.55,0 -1.27811,-0.45 -1.61803,-1 z m -4.83333,-1.66667 c -1.21466,-1.21466 -0.69095,-2.27988 0.83333,-1.69496 0.825,0.31659 1.5,0.97746 1.5,1.46862 0,1.0484 -1.37764,1.18204 -2.33333,0.22634 z M 458,213 c -0.79314,-0.49019 -1.11011,-1.22322 -0.70437,-1.62896 0.40574,-0.40574 1.2627,-0.21271 1.90437,0.42896 1.51091,1.51091 0.66759,2.35423 -1.2,1.2 z m -6,-3 c -1.29269,-0.8354 -1.26629,-0.97149 0.19098,-0.98469 0.93004,-0.008 1.9691,0.43469 2.30902,0.98469 0.78218,1.2656 -0.54163,1.2656 -2.5,0 z m -4.75,-1.72024 c -0.6875,-0.24553 -1.25,-1.40905 -1.25,-2.5856 0,-2.12397 0.0114,-2.12292 1.602,0.148 1.72475,2.46242 1.6263,3.14414 -0.352,2.4376 z m -1.17105,-8.86309 c 0.048,-1.16495 0.28494,-1.4019 0.60416,-0.60417 0.28887,0.72187 0.25335,1.58437 -0.0789,1.91667 -0.33229,0.33229 -0.56864,-0.25834 -0.52522,-1.3125 z m 0,-6 c 0.048,-1.16495 0.28494,-1.4019 0.60416,-0.60417 0.28887,0.72187 0.25335,1.58437 -0.0789,1.91667 -0.33229,0.33229 -0.56864,-0.25834 -0.52522,-1.3125 z m 0,-6 c 0.048,-1.16495 0.28494,-1.4019 0.60416,-0.60417 0.28887,0.72187 0.25335,1.58437 -0.0789,1.91667 -0.33229,0.33229 -0.56864,-0.25834 -0.52522,-1.3125 z m 0,-6 c 0.048,-1.16495 0.28494,-1.4019 0.60416,-0.60417 0.28887,0.72187 0.25335,1.58437 -0.0789,1.91667 -0.33229,0.33229 -0.56864,-0.25834 -0.52522,-1.3125 z m 0,-6 c 0.048,-1.16495 0.28494,-1.4019 0.60416,-0.60417 0.28887,0.72187 0.25335,1.58437 -0.0789,1.91667 -0.33229,0.33229 -0.56864,-0.25834 -0.52522,-1.3125 z m 0,-6 c 0.048,-1.16495 0.28494,-1.4019 0.60416,-0.60417 0.28887,0.72187 0.25335,1.58437 -0.0789,1.91667 -0.33229,0.33229 -0.56864,-0.25834 -0.52522,-1.3125 z M 446.15789,164 c 0,-1.375 0.22698,-1.9375 0.50439,-1.25 0.27741,0.6875 0.27741,1.8125 0,2.5 -0.27741,0.6875 -0.50439,0.125 -0.50439,-1.25 z m 0,-6 c 0,-1.375 0.22698,-1.9375 0.50439,-1.25 0.27741,0.6875 0.27741,1.8125 0,2.5 -0.27741,0.6875 -0.50439,0.125 -0.50439,-1.25 z m 0,-6 c 0,-1.375 0.22698,-1.9375 0.50439,-1.25 0.27741,0.6875 0.27741,1.8125 0,2.5 -0.27741,0.6875 -0.50439,0.125 -0.50439,-1.25 z m 0,-6 c 0,-1.375 0.22698,-1.9375 0.50439,-1.25 0.27741,0.6875 0.27741,1.8125 0,2.5 -0.27741,0.6875 -0.50439,0.125 -0.50439,-1.25 z m 0,-6 c 0,-1.375 0.22698,-1.9375 0.50439,-1.25 0.27741,0.6875 0.27741,1.8125 0,2.5 -0.27741,0.6875 -0.50439,0.125 -0.50439,-1.25 z M 713,177 V 29 h -81 -81 v 58.485119 58.485121 l 29.75,0.26488 29.75,0.26488 0.29772,6.25 c 0.28041,5.88663 0.44029,6.25 2.75,6.25 1.34875,0 2.45228,0.14618 2.45228,0.32485 0,0.17866 -1.125,3.63248 -2.5,7.67515 -1.375,4.04267 -2.5,7.72149 -2.5,8.17515 0,0.45367 6.27147,0.82485 13.93659,0.82485 h 13.93659 L 636,167.5 633.12682,159 H 636.06341 639 V 146.01217 133.02434 L 601.75,132.76217 564.5,132.5 v -30 -30 h 67.5 67.5 l 0.26466,30.25 0.26467,30.25 H 670.01466 640 v 13 13 h 3 c 1.65,0 3,0.13887 3,0.3086 0,0.16972 -1.34527,3.99472 -2.98949,8.5 L 640.02102,176 H 647.51051 655 v 16 16 H 640.5 626 v 12.5 12.5 h 2.5 c 1.375,0 2.5,0.14618 2.5,0.32485 0,0.17866 -1.125,3.63248 -2.5,7.67515 -1.375,4.04267 -2.5,7.71469 -2.5,8.16005 0,0.44536 13.1625,0.92904 29.25,1.07485 L 684.5,250.5 V 281 311.5 H 632 579.5 l -0.5,-6.34008 -0.5,-6.34008 -4.28446,6.09008 c -2.35645,3.34954 -4.60645,6.07253 -5,6.05108 -0.39355,-0.0215 -2.19565,-2.05089 -4.00467,-4.50987 l -3.28914,-4.47087 2.28914,-0.85773 c 1.25902,-0.47175 5.10163,-1.8776 8.53913,-3.12412 l 6.25,-2.26639 v -14.73703 -14.73702 l -8.94627,-0.69986 -8.94627,-0.69985 1.18451,-2.59972 c 0.92635,-2.03312 0.91464,-2.68967 -0.0537,-3.01246 -1.73679,-0.57893 -1.55307,-2.3978 0.20605,-2.03992 0.79436,0.16161 2.08853,-0.57942 2.87593,-1.64673 1.37329,-1.86148 1.67105,-1.72685 7.30571,3.30328 l 5.87407,5.24386 0.5,-6.80329 0.5,-6.80328 22.15712,-0.5 22.15712,-0.5 -2.39373,-7.5 c -2.95309,-9.25259 -2.95532,-9 0.0795,-9 h 2.5 v -12.47327 -12.47326 l -14.75,-0.27674 -14.75,-0.27673 -0.27539,-15.75 -0.2754,-15.75 h 7.5254 c 4.13896,0 7.52539,-0.14618 7.52539,-0.32485 0,-0.17866 -1.125,-3.63248 -2.5,-7.67515 -1.375,-4.04267 -2.5,-7.72149 -2.5,-8.17515 0,-0.45367 1.125,-0.82485 2.5,-0.82485 2.36364,0 2.5,-0.3 2.5,-5.5 V 148 h -29 -29 v 52.5 c 0,34.33333 0.34603,52.5 1,52.5 0.55,0 1,0.47656 1,1.05902 0,0.58246 -0.45,0.7809 -1,0.44098 -0.65951,-0.4076 -1,11.48962 -1,34.94098 L 551,325 h 81 81 z M 552,317.18146 c 0,-1.20855 1.8972,-2.61759 2.5907,-1.9241 0.2517,0.2517 -0.22824,1.02686 -1.06653,1.72258 C 552.57378,317.76869 552,317.84456 552,317.18146 Z M 557,312.5 c 0.68469,-0.825 1.69489,-1.5 2.24489,-1.5 0.55783,0 0.44954,0.66326 -0.24489,1.5 -0.68469,0.825 -1.69489,1.5 -2.24489,1.5 -0.55783,0 -0.44954,-0.66326 0.24489,-1.5 z m 4.5,-3.5 c 0.33992,-0.55 1.04148,-1 1.55902,-1 0.51754,0 0.94098,0.45 0.94098,1 0,0.55 -0.70156,1 -1.55902,1 -0.85746,0 -1.2809,-0.45 -0.94098,-1 z m -6,-53 c -0.33992,-0.55 0.0835,-1 0.94098,-1 0.85746,0 1.55902,0.45 1.55902,1 0,0.55 -0.42344,1 -0.94098,1 -0.51754,0 -1.2191,-0.45 -1.55902,-1 z M 208,290.37756 c 0.34536,-23.67443 0.18379,-25.94492 0,-34.87756 V 252 h -51 c -50.33333,0 -44.58041,-0.0908 -51,0 0.31783,13.75031 0.005,27.59433 0,37.5 V 310 h 51 51 z M 446,281 V 252 H 394.5 343 v 29 29 h 51.5 51.5 z m 237,0 v -29 h -51 -51 v 29 29 h 51 51 z M 178,192 v -14 h -29 -29 v 14 14 h 29 29 z m 238,0 v -14 h -29 -29 v 14 14 h 29 29 z m 238,0 v -14 h -29 -29 v 14 14 h 29 29 z M 222.76534,102.75 223.03067,74 H 157.01534 91 v 29.00719 29.00719 L 156.75,131.75719 222.5,131.5 Z M 460,103 V 74 h -66 -66 v 29 29 h 66 66 z m 238,0 V 74 h -66 -66 v 29 29 h 66 66 z M 305,323.5 c 0.68469,-0.825 1.69489,-1.5 2.24489,-1.5 0.55783,0 0.44954,0.66326 -0.24489,1.5 -0.68469,0.825 -1.69489,1.5 -2.24489,1.5 -0.55783,0 -0.44954,-0.66326 0.24489,-1.5 z m 237.1875,0.4375 c 0.24063,-0.72188 1.02813,-1.50937 1.75,-1.75 0.75,-0.25 1.125,0.125 0.875,0.875 -0.24063,0.72187 -1.02813,1.50937 -1.75,1.75 -0.75,0.25 -1.125,-0.125 -0.875,-0.875 z M 307,251 c 0,-0.55 0.42344,-1 0.94098,-1 0.51754,0 1.2191,0.45 1.55902,1 0.33992,0.55 -0.0835,1 -0.94098,1 C 307.70156,252 307,251.55 307,251 Z m 237.5,0 c -0.33992,-0.55 0.057,-1 0.88197,-1 0.825,0 1.77811,0.45 2.11803,1 0.33992,0.55 -0.057,1 -0.88197,1 -0.825,0 -1.77811,-0.45 -2.11803,-1 z m -4.5,-2 c -0.79314,-0.49019 -1.21708,-1.11625 -0.94208,-1.39125 0.275,-0.275 1.14894,-0.0989 1.94208,0.39125 0.79314,0.49019 1.21708,1.11625 0.94208,1.39125 -0.275,0.275 -1.14894,0.0989 -1.94208,-0.39125 z M 248,225 c -0.79314,-0.49019 -1.21708,-1.11625 -0.94208,-1.39125 0.275,-0.275 1.14894,-0.0989 1.94208,0.39125 0.79314,0.49019 1.21708,1.11625 0.94208,1.39125 -0.275,0.275 -1.14894,0.0989 -1.94208,-0.39125 z m 236.98121,-0.0116 c -1.99473,-1.23281 -0.50982,-2.3836 1.5722,-1.21844 0.93688,0.52431 1.28665,1.21086 0.77726,1.52568 -0.50939,0.31482 -1.56664,0.17656 -2.34946,-0.30724 z M 241.5,222 c -0.33992,-0.55 0.057,-1 0.88197,-1 0.825,0 1.77811,0.45 2.11803,1 0.33992,0.55 -0.057,1 -0.88197,1 -0.825,0 -1.77811,-0.45 -2.11803,-1 z m 237.5,0 c 0,-0.55 0.675,-1 1.5,-1 0.825,0 1.5,0.45 1.5,1 0,0.55 -0.675,1 -1.5,1 -0.825,0 -1.5,-0.45 -1.5,-1 z" />
    <text x="105" y="53.753361" class="svgText">transakcija</text>
    <text x="345" y="53.527817" class="svgText">transakcija</text>
    <text x="575" y="53.256477" class="svgText">transakcija</text>
    <text x="135" y="197.13087" class="svgText">haš</text>
    <text x="372" y="196.49904" class="svgText">haš</text>
    <text x="610" y="196.57408" class="svgText">haš</text>
    <text x="249.84499" y="350.7998" class="svgText">potpis</text>
    <text x="488.92572" y="351.45322" class="svgText">potpis</text>
    <text x="240" y="244.0871" class="svgText">verifik</text>
    <text x="480" y="242.24939" class="svgText">verifik</text>
    <text x="105" y="99.45578" class="svgText">javni ključ<tspan x="105" y="114.45578">1. vlasnika</tspan></text>
    <text x="340" y="100.42917" class="svgText">javni ključ<tspan x="340" y="115.42917">2. vlasnika</tspan></text>
    <text x="580" y="101.45631" class="svgText">javni ključ<tspan x="580" y="116.45631">3. vlasnika</tspan></text>
    <text x="128" y="267" class="svgText">potpis
    <tspan x="132" y="285">0-tog</tspan>
    <tspan x="120" y="301">vlasnika</tspan></text>
    <text x="351" y="276.9317" class="svgText">potpis 1.<tspan x="353" y="291.9317">vlasnika</tspan></text>
    <text x="590" y="277.3981" class="svgText">potpis 2.<tspan x="592" y="292.3981">vlasnika</tspan></text>
    <text x="120" y="386" class="svgText">privatni
    <tspan x="135" y="405">ključ</tspan>
    <tspan x="105" y="423">1. vlasnika</tspan></text>
    <text x="355" y="386" class="svgText">privatni
    <tspan x="367" y="405">ključ</tspan>
    <tspan x="342" y="423">2. vlasnika</tspan></text>
    <text x="593" y="386" class="svgText">privatni
    <tspan x="607" y="405">ključ</tspan>
    <tspan x="580" y="423">3. vlasnika</tspan></text>
  </g>
</svg>
