<?xml version="1.0" encoding="UTF-8" standalone="no"?>
<svg xmlns="http://www.w3.org/2000/svg" width="512" viewBox="0 0 512 404" height="404">
  <g>
    <path d="m 249.51283,394.05656 c -5.97119,-1.35392 -9.96884,-6.18947 -10.79002,-13.05158 -0.34916,-2.91774 -0.49713,-42.00008 -0.32882,-86.84964 0.34067,-90.78192 -0.15569,-84.56896 7.11034,-88.99934 3.05831,-1.86477 5.40924,-1.94852 54.69567,-1.94852 49.23411,0 51.64018,0.0855 54.68618,1.94275 4.42556,2.69845 5.70676,5.4538 6.30048,13.54977 l 0.51334,7 65.04469,0.5 c 71.62493,0.55058 67.92329,0.20601 72.19138,6.71995 1.64548,2.51132 1.76393,7.7096 1.76393,77.41274 0,74.39672 -0.009,74.73289 -2.10453,77.54398 -1.15749,1.55283 -3.63249,3.72333 -5.5,4.82333 -3.33964,1.96711 -5.3358,2.00252 -121.39547,2.15299 -71.46643,0.0926 -119.65122,-0.22142 -122.18717,-0.79643 z M 490,384 c 0.90516,-0.90516 1.2,-15.15556 1.2,-58 v -56.8 h -38.5 c -21.175,0 -38.5,0.20502 -38.5,0.45559 0,0.25058 1.125,2.11337 2.5,4.13955 l 2.5,3.68395 -0.022,35.11046 c -0.0244,39.05188 -0.20536,40.25816 -6.88081,45.87518 -5.43636,4.5744 -8.34281,4.89647 -41.09723,4.55409 -34.0406,-0.35583 -34.29035,-0.40293 -39.69831,-7.48649 -2.57933,-3.37851 -2.82876,-4.48974 -3.14271,-14.00105 L 328.01795,331.2 h -7.18647 c -11.65204,0 -11.63148,0.0335 -11.63148,-18.93426 0,-11.7449 0.33425,-16.09825 1.29738,-16.89758 0.71357,-0.59221 4.87607,-1.20981 9.25,-1.37245 L 327.7,293.7 v -12 -12 l -39.75,-0.26147 -39.75,-0.26148 v 56.81148 c 0,42.85336 0.29483,57.1063 1.2,58.01147 1.7425,1.7425 238.8575,1.7425 240.6,0 z M 407.28332,350.43422 410.2,347.16845 v -31.9128 c 0,-27.6783 -0.20851,-32.12131 -1.57143,-33.48422 -1.23585,-1.23585 -3.89311,-1.57143 -12.44329,-1.57143 -10.10107,0 -10.98224,-0.15757 -12.42858,-2.22251 -0.85618,-1.22237 -1.5567,-3.69737 -1.5567,-5.5 V 269.2 h -23.03078 -23.03078 l 0.28078,12.25 0.28078,12.25 28.41664,0.26586 c 18.9253,0.17706 28.862,0.63546 29.75,1.37244 1.00833,0.83684 1.33336,4.96321 1.33336,16.92744 0,15.2152 -0.0851,15.88045 -2.22251,17.37756 -1.88252,1.31857 -6.4874,1.5567 -30.10261,1.5567 h -27.88011 l 0.35261,8.42003 c 0.30187,7.20824 0.69432,8.78367 2.72689,10.94674 1.30585,1.38968 3.33085,2.72381 4.5,2.96473 1.16915,0.24092 15.32572,0.37739 31.45905,0.30326 L 404.36664,353.7 Z m -77.3936,-26.44072 c 1.48764,-1.64123 1.87005,-4.1302 2.14562,-13.96507 l 0.33534,-11.96788 -3.33534,0.31973 L 325.7,298.7 l -0.5,10.5 c -0.49825,10.46323 -0.50926,10.50107 -3.14417,10.80621 -3.46028,0.40072 -4.67754,4.95427 -1.62614,6.08306 3.01333,1.1147 7.43866,0.13432 9.46003,-2.09577 z m 18.11282,-2.44207 c 0.2804,-3.8449 0.55171,-4.19531 3.70667,-4.78718 9.33781,-1.75178 10.25988,-15.82721 1.18601,-18.10461 -1.2956,-0.32517 -4.34455,-0.44912 -6.77543,-0.27543 L 341.7,298.7 l -0.27865,13.81549 -0.27864,13.8155 3.27864,-0.3155 c 3.06954,-0.29537 3.29795,-0.58008 3.58119,-4.46406 z M 348.2,307.62668 c 0,-2.86357 0.3476,-3.50708 1.75,-3.23979 2.13808,0.40751 2.93618,4.76291 1.08749,5.93471 -2.31929,1.47009 -2.83749,0.97793 -2.83749,-2.69492 z m 36.78978,17.93263 c 2.16684,-0.58044 2.27422,-1.02265 2,-8.23634 L 386.7,309.7 l -4.75,-0.30479 -4.75,-0.30479 v 3.55479 c 0,2.49315 0.44798,3.55479 1.5,3.55479 0.83333,0 1.5,0.88889 1.5,2 0,1.33333 -0.66667,2 -2,2 -5.96262,0 -8.32664,-10.0247 -3.297,-13.98102 2.12754,-1.67353 3.50297,-1.99103 6.46056,-1.49135 3.46719,0.58578 3.8097,0.42708 4.43235,-2.05373 0.84853,-3.38081 -0.66821,-4.43819 -6.39557,-4.45859 -8.65567,-0.0308 -14.18979,5.5375 -14.1966,14.28435 -0.005,5.78075 2.05804,10.12693 5.75883,12.13495 2.82267,1.53157 9.99637,2.00447 14.02721,0.9247 z m -56.28183,-69.70412 c 1.69306,-4.92562 4.95575,-8.44075 9.99205,-10.76515 3.48201,-1.60705 6.71947,-1.84848 25,-1.86434 24.19423,-0.021 22.65907,-0.4885 33.91612,10.32852 L 404.53225,260.2 H 447.86612 491.2 v -11.3 c 0,-7.45556 -0.40826,-11.70826 -1.2,-12.5 -0.9092,-0.9092 -17.26667,-1.2 -67.5,-1.2 -77.77072,0 -70.3,1.30711 -70.3,-12.3 0,-5.12222 -0.45944,-8.75944 -1.2,-9.5 -1.72935,-1.72935 -99.87065,-1.72935 -101.6,0 -0.86319,0.86319 -1.2,7.60255 -1.2,24.01147 v 22.81148 L 287.7932,259.96147 327.38639,259.7 Z M 382.2,257.4 c 0,-4.94958 -0.98614,-5.2 -20.47749,-5.2 -15.33991,0 -18.45193,0.25624 -20.55,1.69204 -2.88105,1.97161 -3.93591,3.3199 -3.9572,5.05796 -0.0118,0.96342 5.14319,1.25 22.48469,1.25 h 22.5 z M 21.512832,201.05656 c -5.971193,-1.35392 -9.968841,-6.18947 -10.79002,-13.05158 -0.349162,-2.91774 -0.497134,-42.00008 -0.328826,-86.84964 0.340679,-90.781921 -0.155688,-84.56896 7.110348,-88.999343 3.05831,-1.86477 5.409232,-1.948521 54.695666,-1.948521 49.23411,0 51.64018,0.08548 54.68618,1.942751 4.42556,2.698456 5.70676,5.453808 6.30048,13.549773 l 0.51334,7 65.04469,0.5 c 71.62493,0.550583 67.92329,0.206015 72.19138,6.719948 1.64548,2.511319 1.76393,7.709598 1.76393,77.412742 0,74.39672 -0.009,74.73289 -2.10453,77.54398 -1.15749,1.55283 -3.63249,3.72333 -5.5,4.82333 -3.33964,1.96711 -5.3358,2.00252 -121.39547,2.15299 -71.466425,0.0927 -119.65122,-0.22142 -122.187168,-0.79643 z M 262,191 c 0.90516,-0.90516 1.2,-15.15556 1.2,-58 V 76.2 h -40 c -22.27922,0 -40,0.388774 -40,0.877555 0,0.482656 0.74471,1.495156 1.6549,2.25 C 188.87386,82.66055 189.2,85.8035 189.2,121.2 c 0,37.52768 -0.12545,38.42523 -6.25632,44.75978 -1.73523,1.79287 -4.74993,3.70286 -6.69932,4.24442 -1.97633,0.54904 -17.03766,0.9774 -34.04436,0.96826 -34.44929,-0.0185 -36.10915,-0.31893 -41.61609,-7.53233 -2.67613,-3.50541 -2.90848,-4.5219 -3.22493,-14.10885 L 97.01795,139.2 H 89.83148 C 78.17944,139.2 78.2,139.2335 78.2,120.26574 c 0,-11.7449 0.33425,-16.09825 1.29738,-16.89758 0.71356,-0.59221 4.87606,-1.20981 9.25,-1.37245 L 96.7,101.7 V 89.2 76.7 L 58.45,76.438117 20.2,76.176235 v 56.811885 c 0,42.85368 0.29483,57.10671 1.2,58.01188 1.742497,1.7425 238.8575,1.7425 240.6,0 z m -85.56578,-31.71682 3.26578,-2.91682 0.29034,-32.20987 C 180.2529,95.02769 180.1185,91.76743 178.58535,90.07331 177.13505,88.47075 175.38535,88.2 166.47927,88.2 153.32929,88.2 152.2,87.64361 152.2,81.16482 V 76.2 h -23 -23 v 13 13 h 33.3 c 24.56667,0 33.61471,0.31471 34.5,1.2 0.82992,0.82992 1.2,5.97139 1.2,16.67126 0,12.99284 -0.26512,15.76421 -1.65499,17.3 -1.53933,1.70094 -3.95028,1.82874 -34.5,1.82874 H 106.2 v 8.27749 c 0,8.85461 1.25693,12.07635 5.357,13.73093 1.17865,0.47564 15.5234,0.89333 31.87722,0.92819 l 29.73423,0.0634 3.26577,-2.91682 z M 93.2,128.2 c 0,-4.33333 0.26667,-5 2,-5 1.73333,0 2,0.66667 2,5 0,4.89985 0.0607,5 3.02988,5 h 3.02987 L 102.97988,120.45 102.7,107.7 99.95,107.38358 c -2.67978,-0.30834 -2.75,-0.18705 -2.75,4.75 0,4.39975 -0.26317,5.06642 -2,5.06642 -1.73333,0 -2,-0.66667 -2,-5 0,-4.66667 -0.16667,-5 -2.5,-5 h -2.5 v 13 13 h 2.5 c 2.33333,0 2.5,-0.33333 2.5,-5 z m 25,-5 c 0,-9.33333 0.13333,-10 2,-10 1.55556,0 2,-0.66667 2,-3 v -3 h -7 -7 v 3 c 0,2.33333 0.44444,3 2,3 1.86667,0 2,0.66667 2,10 v 10 h 3 3 z m 14.88411,5 0.38412,-4.5 1.16371,4.5 c 1.55814,6.02519 4.50603,6.27476 6.12115,0.51823 l 1.11717,-3.98176 0.67669,4.23176 c 0.56184,3.51355 1.05655,4.23181 2.91487,4.232 2.20356,2.2e-4 2.22803,-0.14285 1.58212,-9.25 -0.36083,-5.08763 -0.69833,-11.16273 -0.75,-13.50023 -0.0886,-4.00726 -0.26055,-4.25 -3.01108,-4.25 -2.69471,0 -2.9997,0.38499 -4,5.04922 -0.59557,2.77707 -1.08286,6.01707 -1.08286,7.2 0,3.63877 -1.60805,0.60355 -2.91347,-5.49922 -1.08744,-5.08371 -1.51135,-5.75 -3.65825,-5.75 -2.12521,0 -2.4382,0.46803 -2.5078,3.75 -0.0437,2.0625 -0.41938,7.575 -0.83477,12.25 -0.41539,4.675 -0.56215,8.86323 -0.32612,9.30719 0.23602,0.44395 1.39917,0.66895 2.58477,0.5 1.77235,-0.25257 2.22394,-1.10733 2.53975,-4.80719 z M 166.2,130.7 c 0,-2.11111 -0.46667,-2.5 -3,-2.5 h -3 v -10.5 -10.5 h -3 -3 v 13 13 h 6 c 5.73333,0 6,-0.11111 6,-2.5 z M 97.66945,64.45 c 1.08066,-4.33041 5.42515,-9.298206 9.91446,-11.336884 3.60664,-1.637839 6.77718,-1.871448 25.61609,-1.887416 24.69029,-0.02093 23.39608,-0.397048 33.75663,9.810231 L 173.21325,67.2 H 218.20663 263.2 V 55.9 c 0,-7.455556 -0.40826,-11.70826 -1.2,-12.5 -0.9092,-0.909201 -17.26667,-1.2 -67.5,-1.2 -77.77072,0 -70.3,1.30711 -70.3,-12.3 0,-5.122222 -0.45944,-8.759438 -1.2,-9.5 -1.72935,-1.72935 -99.87065,-1.72935 -101.6,0 -0.863158,0.863158 -1.2,7.6 -1.2,24 V 67.2 H 58.591592 96.98318 Z M 152.2,65.271429 c 0,-4.585497 -2.00478,-5.072378 -20.82143,-5.056687 -18.65219,0.01555 -21.16501,0.512529 -23.94255,4.735258 l -1.47996,2.25 h 23.12197 C 151.24788,67.2 152.2,67.120585 152.2,65.271429 Z" />
  </g>
</svg>
