<?xml version="1.0" encoding="UTF-8" standalone="no"?>
<svg  xmlns="http://www.w3.org/2000/svg" viewBox="0 0 512 378" height="590" width="800">
  <g>
    <path d="m 32.744545,365.73817 c -7.443624,-2.27758 -13.618305,-7.77881 -16.914986,-15.07015 -2.018495,-4.46434 -2.034616,-5.74795 -2.034616,-162 0,-156.252046 0.01612,-157.535646 2.034616,-161.999994 2.49062,-5.508555 7.105585,-10.463905 12.42146,-13.337629 l 4,-2.162371 93.431291,-0.270153 c 102.55291,-0.296528 98.63882,-0.505721 106.13402,5.672453 1.92606,1.587627 4.82884,5.296592 6.45062,8.242147 2.70099,4.905681 2.97998,6.341251 3.32124,17.089821 l 0.37256,11.73427 120.14513,0.26573 120.14514,0.26573 3.60652,2.24289 c 5.47212,3.40309 8.93682,7.23741 11.52733,12.75711 l 2.34661,5 -0.0122,135.999996 c -0.0121,134.61686 -0.0329,136.04577 -2.04681,140.5 -2.49062,5.50855 -7.10558,10.46391 -12.42146,13.33763 l -4,2.16237 -223,0.16853 c -122.64999,0.0927 -224.127904,-0.17658 -225.506465,-0.59838 z m 447.083395,-18.99323 2.92308,-2.92307 V 238.74494 133.66802 h -226 -226.000001 v 105.07692 105.07693 l 2.923077,2.92307 2.92308,2.92308 H 256.75102 476.90487 Z m -128.35942,-7.14709 c -8.43444,-2.03382 -16.29987,-8.30437 -20.52908,-16.36637 -2.48807,-4.74294 -2.67862,-6.06044 -3.01017,-20.81346 l -0.35397,-15.75 h -12.95759 c -12.42412,0 -13.05866,-0.10106 -15.41214,-2.45455 l -2.45455,-2.45454 0.0318,-25.79546 c 0.0231,-18.69961 0.36691,-26.23191 1.25,-27.38211 2.47553,-3.22428 5.58377,-3.91334 17.65246,-3.91334 h 12.06574 v -29.46249 c 0,-27.30462 0.15095,-29.86593 2.06099,-34.97098 2.49544,-6.66966 8.61515,-13.24835 15.45483,-16.61396 4.96665,-2.44394 5.10899,-2.45362 40.46261,-2.75119 31.41005,-0.26438 35.99693,-0.10386 40,1.39976 6.62159,2.48718 50.99629,46.8395 53.42581,53.39886 1.49819,4.0449 1.63788,10.41626 1.38126,63 -0.27983,57.33731 -0.32798,58.59187 -2.42283,63.1224 -3.0678,6.63474 -8.68357,12.39668 -15.20213,15.59782 l -5.66054,2.77978 -51,0.17096 c -28.05,0.094 -52.70212,-0.23948 -54.7825,-0.74113 z m 106.29267,-17.17983 c 7.41621,-5.04743 7.45076,-5.18878 7.83928,-32.07109 0.1922,-13.2984 0.0274,-37.81528 -0.36615,-54.48196 l -0.7156,-30.30305 -2.51713,-1.64929 c -2.03139,-1.33102 -5.98951,-1.73125 -20.5109,-2.074 -15.91169,-0.37556 -18.21049,-0.64143 -19.86672,-2.29766 -1.66256,-1.66256 -1.87784,-3.58601 -1.9165,-17.12295 -0.0493,-17.26407 -0.93574,-23.52806 -3.60705,-25.4892 -1.48469,-1.08998 -7.89938,-1.29888 -32.52813,-1.05927 -29.31526,0.28521 -30.80411,0.39144 -33.5,2.39042 -1.5517,1.15057 -3.83377,3.57962 -5.07127,5.39788 -2.20483,3.23957 -2.25,3.88459 -2.25,32.1298 v 28.82387 l 47.47292,0.27825 47.47292,0.27825 2.27708,2.27603 c 2.23323,2.23221 2.28282,2.76711 2.57535,27.77865 l 0.29828,25.50262 -2.97135,2.97135 -2.97135,2.97135 h -47.07693 -47.07692 l 0.002,13.25 c 0.002,15.05549 1.08937,18.60077 6.89633,22.48007 l 3.39744,2.26993 h 50.70423 50.70423 z M 327.66621,277.91647 c 6.2656,-3.20774 7.08481,-6.32775 7.08481,-26.98285 v -18.2656 h -5.5 -5.5 v 16.8 c 0,11.73333 -0.3619,17.1619 -1.2,18 -0.66,0.66 -2.86186,1.2 -4.89301,1.2 -2.44505,0 -3.89813,0.53452 -4.3,1.58179 -1.05784,2.75667 -0.65575,8.23187 0.64301,8.75593 2.84843,1.14936 10.48088,0.54097 13.66519,-1.08927 z m 96.33481,-0.1487 2.75,-1.05025 v -12.52475 -12.52475 h -8.55479 -8.55479 l 0.30479,4.75 c 0.27912,4.34991 0.53642,4.77665 3.05479,5.06642 2.40462,0.27668 2.75,0.74766 2.75,3.75 0,3.3111 -0.13602,3.43358 -3.81291,3.43358 -5.8473,0 -9.44786,-4.26081 -9.92835,-11.74898 -0.68033,-10.60247 5.845,-15.93723 16.50907,-13.49694 2.60108,0.59521 4.88237,0.92908 5.06952,0.74192 0.95792,-0.95791 2.13054,-8.92813 1.41834,-9.64033 -1.7479,-1.7479 -11.23428,-2.80796 -16.38563,-1.83102 -10.37021,1.96667 -16.23138,8.16482 -18.09685,19.13732 -0.89704,5.27626 -0.79417,7.30789 0.61401,12.12741 2.02911,6.94461 7.4681,12.92106 13.23269,14.5403 4.42873,1.24399 15.54375,0.8307 19.63011,-0.72993 z m -62.45619,-6.84975 c 0.27638,-6.81999 0.43064,-7.25 2.60078,-7.25 16.48121,0 22.94847,-22.03223 8.58548,-29.24845 -2.42436,-1.21804 -5.85104,-1.74891 -11.29581,-1.75 -12.43403,-0.002 -11.68426,-1.50191 -11.68426,23.36697 0,11.71398 0.32021,21.61836 0.71159,22.00973 0.39137,0.39138 2.97887,0.57888 5.75,0.41667 l 5.03841,-0.29492 z m 0.20619,-22.69098 c 0,-6.22148 0.87222,-7.20621 4.74594,-5.35814 5.15239,2.45808 3.03147,10.79912 -2.74594,10.79912 -1.75495,0 -2,-0.66667 -2,-5.44098 z M 43.063846,336.52458 c -5.97119,-1.35392 -9.968836,-6.18947 -10.790015,-13.05158 -0.349162,-2.91774 -0.497134,-42.00008 -0.328826,-86.84964 0.340679,-90.78192 -0.155688,-84.56896 7.110351,-88.99934 3.05831,-1.86477 5.40923,-1.94852 54.69566,-1.94852 49.234114,0 51.640184,0.0855 54.686184,1.94275 4.42556,2.69845 5.70676,5.4538 6.30048,13.54977 l 0.51334,7 65.04469,0.5 c 71.62493,0.55058 67.92329,0.20601 72.19138,6.71995 1.64548,2.51132 1.76393,7.7096 1.76393,77.41274 0,74.39672 -0.009,74.73289 -2.10453,77.54398 -1.15749,1.55283 -3.63249,3.72333 -5.5,4.82333 -3.33964,1.96711 -5.3358,2.00252 -121.39547,2.15299 -71.466424,0.0926 -119.651224,-0.22142 -122.187174,-0.79643 z M 283.55102,326.46802 c 0.90516,-0.90516 1.2,-15.15556 1.2,-58 v -56.8 h -40 c -22.27922,0 -40,0.38877 -40,0.87756 0,0.48265 0.74471,1.49515 1.6549,2.25 4.01896,3.33299 4.3451,6.47594 4.3451,41.87244 0,37.52768 -0.12545,38.42523 -6.25632,44.75978 -1.73523,1.79287 -4.74993,3.70286 -6.69932,4.24442 -1.97633,0.54904 -17.03766,0.9774 -34.04436,0.96826 -34.44929,-0.0185 -36.10915,-0.31893 -41.61609,-7.53233 -2.67613,-3.50541 -2.90848,-4.5219 -3.22493,-14.10885 l -0.34103,-10.33128 h -7.18647 c -11.65204,0 -11.63148,0.0335 -11.63148,-18.93426 0,-11.7449 0.33425,-16.09825 1.29738,-16.89758 0.71357,-0.59221 4.87607,-1.20981 9.25,-1.37245 l 7.95262,-0.29571 v -12.5 -12.5 l -38.250004,-0.26188 -38.25,-0.26189 v 56.81189 c 0,42.85368 0.29483,57.10671 1.2,58.01188 1.7425,1.7425 238.857504,1.7425 240.600004,0 z m -85.56578,-31.71682 3.26578,-2.91682 0.29034,-32.20987 c 0.26256,-29.1288 0.12816,-32.38906 -1.40499,-34.08318 -1.4503,-1.60256 -3.2,-1.87331 -12.10608,-1.87331 -13.14998,0 -14.27927,-0.55639 -14.27927,-7.03518 v -4.96482 h -23 -23 v 13 13 h 33.3 c 24.56667,0 33.61471,0.31471 34.5,1.2 0.82992,0.82992 1.2,5.97139 1.2,16.67126 0,12.99284 -0.26512,15.76421 -1.65499,17.3 -1.53933,1.70094 -3.95028,1.82874 -34.5,1.82874 h -32.84501 v 8.27749 c 0,8.85461 1.25693,12.07635 5.357,13.73093 1.17865,0.47564 15.5234,0.89333 31.87722,0.92819 l 29.73423,0.0634 3.26577,-2.91682 z m -83.23422,-31.08318 c 0,-4.33333 0.26667,-5 2,-5 1.73333,0 2,0.66667 2,5 0,4.89985 0.0607,5 3.02988,5 h 3.02987 l -0.27987,-12.75 -0.27988,-12.75 -2.75,-0.31642 c -2.67978,-0.30834 -2.75,-0.18705 -2.75,4.75 0,4.39975 -0.26317,5.06642 -2,5.06642 -1.73333,0 -2,-0.66667 -2,-5 0,-4.66667 -0.16667,-5 -2.5,-5 h -2.5 v 13 13 h 2.5 c 2.33333,0 2.5,-0.33333 2.5,-5 z m 25,-5 c 0,-9.33333 0.13333,-10 2,-10 1.55556,0 2,-0.66667 2,-3 v -3 h -7 -7 v 3 c 0,2.33333 0.44444,3 2,3 1.86667,0 2,0.66667 2,10 v 10 h 3 3 z m 14.88411,5 0.38412,-4.5 1.16371,4.5 c 1.55814,6.02519 4.50603,6.27476 6.12115,0.51823 l 1.11717,-3.98176 0.67669,4.23176 c 0.56184,3.51355 1.05655,4.23181 2.91487,4.232 2.20356,2.2e-4 2.22803,-0.14285 1.58212,-9.25 -0.36083,-5.08763 -0.69833,-11.16273 -0.75,-13.50023 -0.0886,-4.00726 -0.26055,-4.25 -3.01108,-4.25 -2.69471,0 -2.9997,0.38499 -4,5.04922 -0.59557,2.77707 -1.08286,6.01707 -1.08286,7.2 0,3.63877 -1.60805,0.60355 -2.91347,-5.49922 -1.08744,-5.08371 -1.51135,-5.75 -3.65825,-5.75 -2.12521,0 -2.4382,0.46803 -2.5078,3.75 -0.0437,2.0625 -0.41938,7.575 -0.83477,12.25 -0.41539,4.675 -0.56215,8.86323 -0.32612,9.30719 0.23602,0.44395 1.39917,0.66895 2.58477,0.5 1.77235,-0.25257 2.22394,-1.10733 2.53975,-4.80719 z m 33.11589,2.5 c 0,-2.11111 -0.46667,-2.5 -3,-2.5 h -3 v -10.5 -10.5 h -3 -3 v 13 13 h 6 c 5.73333,0 6,-0.11111 6,-2.5 z m -68.53055,-66.25 c 1.08066,-4.33041 5.42515,-9.29821 9.91446,-11.33688 3.60664,-1.63784 6.77718,-1.87145 25.61609,-1.88742 24.69029,-0.0209 23.39608,-0.39705 33.75663,9.81023 l 6.25662,6.16407 h 44.99338 44.99337 v -11.3 c 0,-7.45556 -0.40826,-11.70826 -1.2,-12.5 -0.9092,-0.9092 -17.26667,-1.2 -67.5,-1.2 -77.77072,0 -70.3,1.30711 -70.3,-12.3 0,-5.12222 -0.45944,-8.75944 -1.2,-9.5 -1.72935,-1.72935 -99.870654,-1.72935 -101.600004,0 -0.86316,0.86316 -1.2,7.6 -1.2,24 v 22.8 h 38.39159 38.391594 z m 54.53055,0.82143 c 0,-4.5855 -2.00478,-5.07238 -20.82143,-5.05669 -18.65219,0.0156 -21.16501,0.51253 -23.94255,4.73526 l -1.47996,2.25 h 23.12197 c 22.16985,0 23.12197,-0.0794 23.12197,-1.92857 z m 309,-104.43506 V 75.940754 l -2.63636,-2.63636 -2.63637,-2.63637 H 355.58254 c -130.56893,0 -127.08593,0.13018 -129.75103,-4.8496 -0.62777,-1.173 -1.08049,-7.93994 -1.08049,-16.1504 0,-14.61811 -0.5422,-17.12952 -4.36704,-20.227762 -1.98549,-1.608308 -8.41266,-1.729302 -92.95988,-1.75 l -90.826924,-0.02224 -2.92308,2.923078 -2.923077,2.92308 v 41.57692 41.57692 h 226.000001 226 z" />
  </g>
</svg>
