<?xml version="1.0" encoding="UTF-8" standalone="no"?>
<svg xmlns="http://www.w3.org/2000/svg" height="378" width="512" viewBox="0 0 512 378">
  <g>
    <path d="m 33.233071,365.21084 c -7.44363,-2.27758 -13.61831,-7.77881 -16.91499,-15.07015 -2.0185,-4.46434 -2.03462,-5.74795 -2.03462,-162 0,-156.252053 0.0161,-157.535653 2.03462,-162.000003 2.49062,-5.50855 7.10558,-10.4639 12.42146,-13.33763 l 4,-2.16237 93.431289,-0.27015 c 102.55291,-0.29653 98.63882,-0.5057204 106.13402,5.67245 1.92606,1.58763 4.82884,5.29659 6.45062,8.24215 2.70099,4.90568 2.97998,6.34125 3.32124,17.08982 l 0.37256,11.73427 120.14513,0.26573 120.14514,0.26573 3.60652,2.24289 c 5.47212,3.40309 8.93682,7.23741 11.52733,12.75711 l 2.34661,5 -0.0122,136.000003 c -0.0121,134.61686 -0.0329,136.04577 -2.04681,140.5 -2.49062,5.50855 -7.10558,10.46391 -12.42146,13.33763 l -4,2.16237 -223,0.16853 c -122.64999,0.0927 -224.127899,-0.17658 -225.506459,-0.59838 z m 447.083389,-18.99323 2.92308,-2.92307 V 238.21761 133.14069 h -226 -225.999999 v 105.07692 105.07693 l 2.92308,2.92307 2.92307,2.92308 H 257.23954 477.39339 Z M 93.739541,341.21945 c -9.43519,-2.36088 -19.37963,-11.56698 -21.99011,-20.35742 -1.02838,-3.46294 -1.50989,-9.49109 -1.50989,-18.90284 v -13.8185 h -13.04546 c -12.51739,0 -13.14481,-0.0994 -15.5,-2.45455 l -2.45454,-2.45454 V 257.821 c 0,-32.79579 -1.21167,-30.68031 17.57258,-30.68031 h 13.42742 v -29.3185 c 0,-23.23465 0.31331,-30.37354 1.50989,-34.40284 1.90267,-6.40698 8.9424,-14.42248 15.88251,-18.08397 l 5.1076,-2.69469 36.315759,-0.30737 c 35.72327,-0.30236 36.39218,-0.27127 41,1.90564 5.99538,2.83245 48.90286,45.43925 51.76449,51.40173 1.82667,3.80607 1.91975,6.88477 1.91975,63.5 0,58.66587 -0.03,59.5648 -2.13733,64.1224 -3.0678,6.63474 -8.68357,12.39668 -15.20213,15.59782 l -5.66054,2.77978 -52,0.16471 c -28.6,0.0906 -53.349999,-0.17308 -54.999999,-0.58595 z M 197.2839,326.14489 c 1.94939,-0.54156 5.09939,-2.58879 7,-4.54941 l 3.45564,-3.56476 0.2745,-55.40591 0.27451,-55.4059 -2.50369,-1.64048 c -2.00253,-1.31211 -6.20672,-1.74993 -21.00362,-2.1873 -16.6791,-0.493 -18.67424,-0.73902 -20.27082,-2.49967 -1.52185,-1.67824 -1.84119,-4.62323 -2.27088,-20.94235 -0.49016,-18.61566 -0.54776,-19.02812 -2.92634,-20.95203 -2.31044,-1.86881 -3.86276,-1.94808 -32.5,-1.65947 -34.425939,0.34694 -35.124329,0.50302 -39.323659,8.78785 -2.17569,4.29241 -2.25,5.37323 -2.25,32.72712 v 28.28811 h 55.389219 c 53.02961,0 55.48978,0.0814 57.75,1.9101 2.34762,1.89945 2.36246,2.04564 2.66278,26.22476 0.16609,13.37307 0.0422,25.34997 -0.27544,26.61534 -0.31759,1.26537 -1.46599,3.18923 -2.552,4.27524 -1.91864,1.91864 -3.54621,1.97456 -57.47456,1.97456 H 85.239541 l 0.022,12.75 c 0.0296,17.18815 1.97888,21.70203 10.71856,24.82069 4.630999,1.65252 95.515869,2.04144 101.303839,0.43351 z m -132.253919,-55.7542 0.29044,-8.25 h 2.95956 2.95956 v 8.5 8.5 h 4.5 4.5 V 257.5859 236.03111 l -4.75,0.30479 -4.75,0.30479 -0.29206,7.75 c -0.28067,7.44744 -0.38639,7.75 -2.70794,7.75 -2.32156,0 -2.42727,-0.30256 -2.70794,-7.75 l -0.29206,-7.75 -4.75,-0.30479 -4.75,-0.30479 v 21.60958 21.60958 l 4.75,-0.30479 4.75,-0.30479 z m 40.209559,-8.25 v -17 h 4 4 v -4.5 -4.5 h -12.5 -12.499999 v 4.5 4.5 h 4 4 v 17 17 h 4.499999 4.5 z m 49.59198,12.75 c -0.29182,-2.3375 -0.78336,-9.65 -1.09231,-16.25 -0.30896,-6.6 -0.8252,-14.8125 -1.1472,-18.25 l -0.58546,-6.25 h -4.40826 c -5.21128,0 -5.54045,0.55985 -7.38457,12.55926 -2.10515,13.69788 -2.34281,13.81283 -4.84383,2.34292 -3.29208,-15.09781 -2.76346,-14.0575 -6.96529,-13.70748 l -3.66506,0.3053 -1.15941,15 c -0.63767,8.25 -1.40824,17.8125 -1.71237,21.25 l -0.55297,6.25 h 4.46238 4.46237 v -5.91821 c 0,-9.67863 1.19687,-10.51871 2.94812,-2.06928 l 1.55188,7.48749 h 3.5 3.5 l 2.16796,-8 c 1.71564,-6.33089 2.1869,-7.26976 2.25869,-4.5 0.0499,1.925 0.3745,5.8625 0.72133,8.75 l 0.6306,5.25 h 3.92198 3.92199 z m 31.40802,-0.25 v -4.5 h -5.5 -5.5 v -17 -17 h -4.5 -4.5 v 21.5 21.5 h 10 10 z m 134.7175,66.42983 c -8.43444,-2.03382 -16.29987,-8.30437 -20.52908,-16.36637 -2.48807,-4.74294 -2.67862,-6.06044 -3.01017,-20.81346 l -0.35397,-15.75 h -12.95759 c -12.42412,0 -13.05866,-0.10106 -15.41214,-2.45455 l -2.45455,-2.45454 0.0318,-25.79546 c 0.0231,-18.69961 0.36691,-26.23191 1.25,-27.38211 2.47553,-3.22428 5.58377,-3.91334 17.65246,-3.91334 h 12.06574 V 196.6782 c 0,-27.30462 0.15095,-29.86593 2.06099,-34.97098 2.49544,-6.66966 8.61515,-13.24835 15.45483,-16.61396 4.96665,-2.44394 5.10899,-2.45362 40.46261,-2.75119 31.41005,-0.26438 35.99693,-0.10386 40,1.39976 6.62159,2.48718 50.99629,46.8395 53.42581,53.39886 1.49819,4.0449 1.63788,10.41626 1.38126,63 -0.27983,57.33731 -0.32798,58.59187 -2.42283,63.1224 -3.0678,6.63474 -8.68357,12.39668 -15.20213,15.59782 l -5.66054,2.77978 -51,0.17096 c -28.05,0.094 -52.70212,-0.23948 -54.7825,-0.74113 z m 106.29267,-17.17983 c 7.41621,-5.04743 7.45076,-5.18878 7.83928,-32.07109 0.1922,-13.2984 0.0274,-37.81528 -0.36615,-54.48196 l -0.7156,-30.30305 -2.51713,-1.64929 c -2.03139,-1.33102 -5.98951,-1.73125 -20.5109,-2.074 -15.91169,-0.37556 -18.21049,-0.64143 -19.86672,-2.29766 -1.66256,-1.66256 -1.87784,-3.58601 -1.9165,-17.12295 -0.0493,-17.26407 -0.93574,-23.52806 -3.60705,-25.4892 -1.48469,-1.08998 -7.89938,-1.29888 -32.52813,-1.05927 -29.31526,0.28521 -30.80411,0.39144 -33.5,2.39042 -1.5517,1.15057 -3.83377,3.57962 -5.07127,5.39788 -2.20483,3.23957 -2.25,3.88459 -2.25,32.1298 v 28.82387 l 47.47292,0.27825 47.47292,0.27825 2.27708,2.27603 c 2.23323,2.23221 2.28282,2.76711 2.57535,27.77865 l 0.29828,25.50262 -2.97135,2.97135 -2.97135,2.97135 h -47.07693 -47.07692 l 0.002,13.25 c 0.002,15.05549 1.08937,18.60077 6.89633,22.48007 l 3.39744,2.26993 h 50.70423 50.70423 z M 297.15473,279.38914 c 6.2656,-3.20774 7.08481,-6.32775 7.08481,-26.98285 v -18.2656 h -5.5 -5.5 v 16.8 c 0,11.73333 -0.3619,17.1619 -1.2,18 -0.66,0.66 -2.86186,1.2 -4.89301,1.2 -2.44505,0 -3.89813,0.53452 -4.3,1.58179 -1.05784,2.75667 -0.65575,8.23187 0.64301,8.75593 2.84843,1.14936 10.48088,0.54097 13.66519,-1.08927 z m 96.33481,-0.1487 2.75,-1.05025 v -12.52475 -12.52475 h -8.55479 -8.55479 l 0.30479,4.75 c 0.27912,4.34991 0.53642,4.77665 3.05479,5.06642 2.40462,0.27668 2.75,0.74766 2.75,3.75 0,3.3111 -0.13602,3.43358 -3.81291,3.43358 -5.8473,0 -9.44786,-4.26081 -9.92835,-11.74898 -0.68033,-10.60247 5.845,-15.93723 16.50907,-13.49694 2.60108,0.59521 4.88237,0.92908 5.06952,0.74192 0.95792,-0.95791 2.13054,-8.92813 1.41834,-9.64033 -1.7479,-1.7479 -11.23428,-2.80796 -16.38563,-1.83102 -10.37021,1.96667 -16.23138,8.16482 -18.09685,19.13732 -0.89704,5.27626 -0.79417,7.30789 0.61401,12.12741 2.02911,6.94461 7.4681,12.92106 13.23269,14.5403 4.42873,1.24399 15.54375,0.8307 19.63011,-0.72993 z m -62.45619,-6.84975 c 0.27638,-6.81999 0.43064,-7.25 2.60078,-7.25 16.48121,0 22.94847,-22.03223 8.58548,-29.24845 -2.42436,-1.21804 -5.85104,-1.74891 -11.29581,-1.75 -12.43403,-0.002 -11.68426,-1.50191 -11.68426,23.36697 0,11.71398 0.32021,21.61836 0.71159,22.00973 0.39137,0.39138 2.97887,0.57888 5.75,0.41667 l 5.03841,-0.29492 z m 0.20619,-22.69098 c 0,-6.22148 0.87222,-7.20621 4.74594,-5.35814 5.15239,2.45808 3.03147,10.79912 -2.74594,10.79912 -1.75495,0 -2,-0.66667 -2,-5.44098 z m 152,-153.922653 v -20.36364 l -2.63636,-2.63636 -2.63637,-2.63637 H 356.07106 c -130.56893,0 -127.08593,0.13018 -129.75103,-4.8496 -0.62777,-1.173 -1.08049,-7.93994 -1.08049,-16.1504 0,-14.61811 -0.5422,-17.12952 -4.36704,-20.22776 -1.98549,-1.60831 -8.41266,-1.7293 -92.95988,-1.75 l -90.826929,-0.0222 -2.92307,2.92308 -2.92308,2.92308 v 41.57692 41.576923 h 225.999999 226 z" />
  </g>
</svg>
