<?xml version="1.0" encoding="UTF-8" standalone="no"?>
<svg xmlns="http://www.w3.org/2000/svg" height="376" width="512" viewBox="0 0 512 376">
  <g>
    <path d="m 32.618015,365.82117 c -7.44362,-2.27758 -13.6183,-7.77881 -16.91498,-15.07015 -2.0185,-4.46434 -2.03462,-5.74795 -2.03462,-162 0,-156.252057 0.0161,-157.535657 2.03462,-161.999997 2.49062,-5.50856 7.10558,-10.46391 12.42146,-13.33763 l 4,-2.16237 93.431285,-0.27016 c 102.55291,-0.29652 98.63882,-0.50572 106.13402,5.67246 1.92606,1.58762 4.82884,5.29659 6.45062,8.24214 2.70099,4.90568 2.97998,6.34125 3.32124,17.08983 l 0.37256,11.73427 120.14513,0.26573 120.14514,0.26573 3.60652,2.24288 c 5.47212,3.4031 8.93682,7.23742 11.52733,12.75712 l 2.34661,5 -0.0122,135.999997 c -0.0121,134.61686 -0.0329,136.04577 -2.04681,140.5 -2.49062,5.50855 -7.10558,10.46391 -12.42146,13.33763 l -4,2.16237 -223,0.16853 c -122.64999,0.0927 -224.127905,-0.17658 -225.506465,-0.59838 z m 447.083395,-18.99323 2.92308,-2.92307 V 238.82794 133.75102 h -226 -225.999995 v 105.07692 105.07693 l 2.92307,2.92307 2.92308,2.92308 H 256.62449 476.77834 Z M 86.124495,339.82978 c -9.4352,-2.36088 -19.37964,-11.56698 -21.99012,-20.35742 -1.02838,-3.46294 -1.50988,-9.49109 -1.50988,-18.90284 v -13.8185 h -13.04546 c -12.5174,0 -13.14481,-0.0994 -15.5,-2.45455 l -2.45454,-2.45454 v -25.4106 c 0,-32.79579 -1.21168,-30.68031 17.57258,-30.68031 h 13.42742 v -29.3185 c 0,-23.23465 0.31331,-30.37354 1.50988,-34.40284 1.90267,-6.40698 8.9424,-14.42248 15.88252,-18.08397 l 5.1076,-2.69469 36.315755,-0.30737 c 35.72327,-0.30236 36.39218,-0.27127 41,1.90564 5.99538,2.83245 48.90286,45.43925 51.76449,51.40173 1.82667,3.80607 1.91975,6.88477 1.91975,63.5 0,58.66587 -0.03,59.5648 -2.13733,64.1224 -3.0678,6.63474 -8.68357,12.39668 -15.20213,15.59782 l -5.66054,2.77978 -52,0.16471 c -28.6,0.0906 -53.349995,-0.17308 -54.999995,-0.58595 z M 189.66885,324.75522 c 1.94939,-0.54156 5.09939,-2.58879 7,-4.54941 l 3.45564,-3.56476 0.2745,-55.40591 0.27451,-55.4059 -2.50369,-1.64048 c -2.00253,-1.31211 -6.20672,-1.74993 -21.00362,-2.1873 -16.6791,-0.493 -18.67424,-0.73902 -20.27082,-2.49967 -1.52185,-1.67824 -1.84119,-4.62323 -2.27088,-20.94235 -0.49016,-18.61566 -0.54776,-19.02812 -2.92634,-20.95203 -2.31044,-1.86881 -3.86276,-1.94808 -32.5,-1.65947 -34.425935,0.34694 -35.124335,0.50302 -39.323655,8.78785 -2.1757,4.29241 -2.25,5.37323 -2.25,32.72712 v 28.28811 h 55.389215 c 53.02961,0 55.48978,0.0814 57.75,1.9101 2.34762,1.89945 2.36246,2.04564 2.66278,26.22476 0.16609,13.37307 0.0422,25.34997 -0.27544,26.61534 -0.31759,1.26537 -1.46599,3.18923 -2.552,4.27524 -1.91864,1.91864 -3.54621,1.97456 -57.47456,1.97456 H 77.624495 l 0.022,12.75 c 0.0296,17.18815 1.97887,21.70203 10.71856,24.82069 4.631,1.65252 95.515865,2.04144 101.303835,0.43351 z m -132.253915,-55.7542 0.29044,-8.25 h 2.95956 2.95956 v 8.5 8.5 h 4.5 4.5 v -21.55479 -21.55479 l -4.75,0.30479 -4.75,0.30479 -0.29207,7.75 c -0.28066,7.44744 -0.38638,7.75 -2.70793,7.75 -2.32156,0 -2.42728,-0.30256 -2.70794,-7.75 l -0.29206,-7.75 -4.75,-0.30479 -4.75,-0.30479 v 21.60958 21.60958 l 4.75,-0.30479 4.75,-0.30479 z m 40.20956,-8.25 v -17 h 3.999995 4 v -4.5 -4.5 h -12.499995 -12.5 v 4.5 4.5 h 4 4 v 17 17 h 4.5 4.5 z m 49.591975,12.75 c -0.29182,-2.3375 -0.78336,-9.65 -1.09231,-16.25 -0.30896,-6.6 -0.8252,-14.8125 -1.1472,-18.25 l -0.58546,-6.25 h -4.40826 c -5.21128,0 -5.54045,0.55985 -7.38457,12.55926 -2.10515,13.69788 -2.34281,13.81283 -4.84383,2.34292 -3.29208,-15.09781 -2.76346,-14.0575 -6.96529,-13.70748 l -3.66506,0.3053 -1.15941,15 c -0.63767,8.25 -1.40824,17.8125 -1.71237,21.25 l -0.55297,6.25 h 4.46238 4.46237 v -5.91821 c 0,-9.67863 1.19687,-10.51871 2.94812,-2.06928 l 1.55188,7.48749 h 3.5 3.5 l 2.16796,-8 c 1.71564,-6.33089 2.1869,-7.26976 2.25869,-4.5 0.0499,1.925 0.3745,5.8625 0.72133,8.75 l 0.6306,5.25 h 3.92198 3.92199 z m 31.40802,-0.25 v -4.5 h -5.5 -5.5 v -17 -17 h -4.5 -4.5 v 21.5 21.5 h 10 10 z m 50.31283,64.35656 c -5.97119,-1.35392 -9.96884,-6.18947 -10.79002,-13.05158 -0.34916,-2.91774 -0.49713,-42.00008 -0.32882,-86.84964 0.34067,-90.78192 -0.15569,-84.56896 7.11034,-88.99934 3.05831,-1.86477 5.40924,-1.94852 54.69567,-1.94852 49.23411,0 51.64018,0.0855 54.68618,1.94275 4.42556,2.69845 5.70676,5.4538 6.30048,13.54977 l 0.51334,7 65.04469,0.5 c 71.62493,0.55058 67.92329,0.20601 72.19138,6.71995 1.64548,2.51132 1.76393,7.7096 1.76393,77.41274 0,74.39672 -0.009,74.73289 -2.10453,77.54398 -1.15749,1.55283 -3.63249,3.72333 -5.5,4.82333 -3.33964,1.96711 -5.3358,2.00252 -121.39547,2.15299 -71.46643,0.0926 -119.65122,-0.22142 -122.18717,-0.79643 z m 240.48717,-10.05656 c 0.90516,-0.90516 1.2,-15.15556 1.2,-58 v -56.8 h -38.5 c -21.175,0 -38.5,0.20502 -38.5,0.45559 0,0.25058 1.125,2.11337 2.5,4.13955 l 2.5,3.68395 -0.022,35.11046 c -0.0244,39.05188 -0.20536,40.25816 -6.88081,45.87518 -5.43636,4.5744 -8.34281,4.89647 -41.09723,4.55409 -34.0406,-0.35583 -34.29035,-0.40293 -39.69831,-7.48649 -2.57933,-3.37851 -2.82876,-4.48974 -3.14271,-14.00105 l -0.34099,-10.33128 h -7.18647 c -11.65204,0 -11.63148,0.0335 -11.63148,-18.93426 0,-11.7449 0.33425,-16.09825 1.29738,-16.89758 0.71357,-0.59221 4.87607,-1.20981 9.25,-1.37245 l 7.95262,-0.29571 v -12 -12 l -39.75,-0.26147 -39.75,-0.26148 v 56.81148 c 0,42.85336 0.29483,57.1063 1.2,58.01147 1.7425,1.7425 238.8575,1.7425 240.6,0 z m -82.71668,-33.56578 2.91668,-3.26577 v -31.9128 c 0,-27.6783 -0.20851,-32.12131 -1.57143,-33.48422 -1.23585,-1.23585 -3.89311,-1.57143 -12.44329,-1.57143 -10.10107,0 -10.98224,-0.15757 -12.42858,-2.22251 -0.85618,-1.22237 -1.5567,-3.69737 -1.5567,-5.5 v -3.27749 h -23.03078 -23.03078 l 0.28078,12.25 0.28078,12.25 28.41664,0.26586 c 18.9253,0.17706 28.862,0.63546 29.75,1.37244 1.00833,0.83684 1.33336,4.96321 1.33336,16.92744 0,15.2152 -0.0851,15.88045 -2.22251,17.37756 -1.88252,1.31857 -6.4874,1.5567 -30.10261,1.5567 h -27.88011 l 0.35261,8.42003 c 0.30187,7.20824 0.69432,8.78367 2.72689,10.94674 1.30585,1.38968 3.33085,2.72381 4.5,2.96473 1.16915,0.24092 15.32572,0.37739 31.45905,0.30326 l 29.33332,-0.13476 z m -77.3936,-26.44072 c 1.48764,-1.64123 1.87005,-4.1302 2.14562,-13.96507 l 0.33534,-11.96788 -3.33534,0.31973 -3.33534,0.31972 -0.5,10.5 c -0.49825,10.46323 -0.50926,10.50107 -3.14417,10.80621 -3.46028,0.40072 -4.67754,4.95427 -1.62614,6.08306 3.01333,1.1147 7.43866,0.13432 9.46003,-2.09577 z m 18.11282,-2.44207 c 0.2804,-3.8449 0.55171,-4.19531 3.70667,-4.78718 9.33781,-1.75178 10.25988,-15.82721 1.18601,-18.10461 -1.2956,-0.32517 -4.34455,-0.44912 -6.77543,-0.27543 l -4.41979,0.31579 -0.27865,13.81549 -0.27864,13.8155 3.27864,-0.3155 c 3.06954,-0.29537 3.29795,-0.58008 3.58119,-4.46406 z m 0.19746,-13.92475 c 0,-2.86357 0.3476,-3.50708 1.75,-3.23979 2.13808,0.40751 2.93618,4.76291 1.08749,5.93471 -2.31929,1.47009 -2.83749,0.97793 -2.83749,-2.69492 z m 36.78978,17.93263 c 2.16684,-0.58044 2.27422,-1.02265 2,-8.23634 l -0.28978,-7.62297 -4.75,-0.30479 -4.75,-0.30479 v 3.55479 c 0,2.49315 0.44798,3.55479 1.5,3.55479 0.83333,0 1.5,0.88889 1.5,2 0,1.33333 -0.66667,2 -2,2 -5.96262,0 -8.32664,-10.0247 -3.297,-13.98102 2.12754,-1.67353 3.50297,-1.99103 6.46056,-1.49135 3.46719,0.58578 3.8097,0.42708 4.43235,-2.05373 0.84853,-3.38081 -0.66821,-4.43819 -6.39557,-4.45859 -8.65567,-0.0308 -14.18979,5.5375 -14.1966,14.28435 -0.005,5.78075 2.05804,10.12693 5.75883,12.13495 2.82267,1.53157 9.99637,2.00447 14.02721,0.9247 z m -56.28183,-69.70412 c 1.69306,-4.92562 4.95575,-8.44075 9.99205,-10.76515 3.48201,-1.60705 6.71947,-1.84848 25,-1.86434 24.19423,-0.021 22.65907,-0.4885 33.91612,10.32852 l 6.91613,6.64578 h 43.33387 43.33388 v -11.3 c 0,-7.45556 -0.40826,-11.70826 -1.2,-12.5 -0.9092,-0.9092 -17.26667,-1.2 -67.5,-1.2 -77.77072,0 -70.3,1.30711 -70.3,-12.3 0,-5.12222 -0.45944,-8.75944 -1.2,-9.5 -1.72935,-1.72935 -99.87065,-1.72935 -101.6,0 -0.86319,0.86319 -1.2,7.60255 -1.2,24.01147 v 22.81148 l 39.5932,-0.26148 39.59319,-0.26147 z m 53.49205,1.54481 c 0,-4.94958 -0.98614,-5.2 -20.47749,-5.2 -15.33991,0 -18.45193,0.25624 -20.55,1.69204 -2.88105,1.97161 -3.93591,3.3199 -3.9572,5.05796 -0.0118,0.96342 5.14319,1.25 22.48469,1.25 h 22.5 z m 121,-104.563637 v -20.36364 l -2.63636,-2.63636 -2.63637,-2.63636 H 355.45601 c -130.56893,0 -127.08593,0.13018 -129.75103,-4.8496 -0.62777,-1.17301 -1.08049,-7.93994 -1.08049,-16.1504 0,-14.61811 -0.5422,-17.12953 -4.36704,-20.22777 -1.98549,-1.60831 -8.41266,-1.7293 -92.95988,-1.75 l -90.826925,-0.0222 -2.92308,2.92307 -2.92307,2.92308 v 41.57692 41.576927 h 225.999995 226 z" />
  </g>
</svg>
