<?xml version="1.0" encoding="UTF-8" standalone="no"?>
<svg
   xmlns:dc="http://purl.org/dc/elements/1.1/"
   xmlns:cc="http://creativecommons.org/ns#"
   xmlns:rdf="http://www.w3.org/1999/02/22-rdf-syntax-ns#"
   xmlns:svg="http://www.w3.org/2000/svg"
   xmlns="http://www.w3.org/2000/svg"
   id="SVGRoot"
   version="1.1"
   viewBox="0 0 3000 500"
   height="500px"
   width="3000px">
   <style>
   @keyframes cogspin {
     100% {
       transform: rotate(359deg);
     }
   }

   @keyframes typeWriter {
     to { 
       transform: translate(2045px, 0px) 
     }
   }

   @keyframes logoCursorBlinker {
     50% {
       opacity: 1
     }
     100% {
       opacity: 0
     }
   }
   </style>
  <defs
     id="defs145" />
  <metadata
     id="metadata148">
    <rdf:RDF>
      <cc:Work
         rdf:about="">
        <dc:format>image/svg+xml</dc:format>
        <dc:type
           rdf:resource="http://purl.org/dc/dcmitype/StillImage" />
        <dc:title></dc:title>
      </cc:Work>
    </rdf:RDF>
  </metadata>
  <g
     id="layer1">
    <g><text
       xml:space="preserve"
       font-family="'Courier New', monospace"
       font-size="380px"
       font-style="normal"
       font-weight="normal"
       style="opacity:1;fill:#000000;fill-rule:nonzero;stroke:none;stroke-width:0;stroke-linecap:butt;stroke-linejoin:miter;stroke-miterlimit:4;stroke-dasharray:none;stroke-dashoffset:0"
       id="text1449"
       x="-1375"
       y="380">
       kodiranje_
       </text>
         <rect
       style="opacity:1;fill:white; animation: typeWriter 3s steps(9) 2s forwards;"
       vector-effect="non-scaling-stroke"
       x="457"
       y="135"
       width="2400"
       height="350"
       id="obscura" />
       <rect
       style="opacity:1;fill:#000; animation: logoCursorBlinker .8s linear .5s 11, typeWriter 3s steps(9) 2s forwards;"
       vector-effect="non-scaling-stroke"
       x="457"
       y="470"
       width="234"
       height="15"
       id="logoCursorBlinker" />
   </g>
    <g
       id="select"
       transform="matrix(2.6296541,0,0,2.5075057,-5611.3273,2314.8415)">
      <ellipse
         ry="10.05"
         rx="9.3000002"
         id="circle1457"
         cy="-895.31409"
         cx="2268.7527"
         vector-effect="non-scaling-stroke"
         style="opacity:1;fill:#888888;fill-rule:nonzero;stroke:none;stroke-width:3.22258;stroke-linecap:butt;stroke-linejoin:miter;stroke-miterlimit:4;stroke-dasharray:none;stroke-dashoffset:0" />
      <ellipse
         ry="10.05"
         rx="9.3000002"
         id="circle1461"
         cy="-895.31409"
         cx="2402.1926"
         vector-effect="non-scaling-stroke"
         style="opacity:1;fill:#888888;fill-rule:nonzero;stroke:none;stroke-width:3.22258;stroke-linecap:butt;stroke-linejoin:miter;stroke-miterlimit:4;stroke-dasharray:none;stroke-dashoffset:0" />
      <ellipse
         ry="10.05"
         rx="9.3000002"
         id="circle1465"
         cy="-751.91406"
         cx="2268.7527"
         vector-effect="non-scaling-stroke"
         style="opacity:1;fill:#888888;fill-rule:nonzero;stroke:none;stroke-width:3.22258;stroke-linecap:butt;stroke-linejoin:miter;stroke-miterlimit:4;stroke-dasharray:none;stroke-dashoffset:0" />
      <ellipse
         ry="10.05"
         rx="9.3000002"
         id="circle1469"
         cy="-751.91406"
         cx="2402.1926"
         vector-effect="non-scaling-stroke"
         style="opacity:1;fill:#888888;fill-rule:nonzero;stroke:none;stroke-width:3.22258;stroke-linecap:butt;stroke-linejoin:miter;stroke-miterlimit:4;stroke-dasharray:none;stroke-dashoffset:0" />
      <line
         id="line1473"
         y2="-762.96533"
         x2="2268.7627"
         y1="-884.40283"
         x1="2268.7627"
         vector-effect="non-scaling-stroke"
         style="opacity:1;fill:#888888;fill-rule:nonzero;stroke:#888888;stroke-width:2;stroke-linecap:butt;stroke-linejoin:miter;stroke-miterlimit:4;stroke-dasharray:none;stroke-dashoffset:0" />
      <line
         id="line1477"
         y2="-762.96533"
         x2="2402.2026"
         y1="-884.40283"
         x1="2402.2026"
         vector-effect="non-scaling-stroke"
         style="opacity:1;fill:#888888;fill-rule:nonzero;stroke:#888888;stroke-width:2;stroke-linecap:butt;stroke-linejoin:miter;stroke-miterlimit:4;stroke-dasharray:none;stroke-dashoffset:0" />
      <line
         id="line1481"
         y2="-895.30408"
         x2="2391.6926"
         y1="-895.30408"
         x1="2278.8528"
         vector-effect="non-scaling-stroke"
         style="opacity:1;fill:#888888;fill-rule:nonzero;stroke:#888888;stroke-width:2;stroke-linecap:butt;stroke-linejoin:miter;stroke-miterlimit:4;stroke-dasharray:none;stroke-dashoffset:0" />
      <line
         id="line1485"
         y2="-751.06409"
         x2="2391.6926"
         y1="-751.06409"
         x1="2278.8528"
         vector-effect="non-scaling-stroke"
         style="opacity:1;fill:#888888;fill-rule:nonzero;stroke:#888888;stroke-width:2;stroke-linecap:butt;stroke-linejoin:miter;stroke-miterlimit:4;stroke-dasharray:none;stroke-dashoffset:0" />
    </g>
    
    <rect
       style="opacity:1;fill:none;fill-rule:nonzero;stroke:#1a1a1a;stroke-width:4.67121;stroke-linecap:butt;stroke-linejoin:miter;stroke-miterlimit:4;stroke-dasharray:none;stroke-dashoffset:0"
       vector-effect="non-scaling-stroke"
       x="384.16614"
       y="99.662781"
       rx="42.119225"
       ry="43.066498"
       width="294.83459"
       height="301.46548"
       id="rect1453" />
    

  <g
       transform="translate(0,-38)"
       id="dots"
       style="fill:#999999">
      <path
         id="path1411"
         stroke-linecap="round"
         d="M 8.00994,66.05756 H 3000"
         vector-effect="non-scaling-stroke"
         style="opacity:1;fill:#888888;fill-rule:nonzero;stroke:#888888;stroke-width:5;stroke-linecap:butt;stroke-linejoin:miter;stroke-miterlimit:4;stroke-dasharray:5, 70;stroke-dashoffset:0" />
      <path
         id="path1415"
         stroke-linecap="round"
         d="M 8.00994,129.17759 H 3000"
         vector-effect="non-scaling-stroke"
         style="opacity:1;fill:#888888;fill-rule:nonzero;stroke:#888888;stroke-width:5;stroke-linecap:butt;stroke-linejoin:miter;stroke-miterlimit:4;stroke-dasharray:5, 70;stroke-dashoffset:0" />
      <path
         id="path1419"
         stroke-linecap="round"
         d="M 8.00994,192.2788 H 3000"
         vector-effect="non-scaling-stroke"
         style="opacity:1;fill:#888888;fill-rule:nonzero;stroke:#888888;stroke-width:5;stroke-linecap:butt;stroke-linejoin:miter;stroke-miterlimit:4;stroke-dasharray:5, 70;stroke-dashoffset:0" />
      <path
         id="path1423"
         stroke-linecap="round"
         d="M 8.00994,255.39881 H 3000"
         vector-effect="non-scaling-stroke"
         style="opacity:1;fill:#888888;fill-rule:nonzero;stroke:#888888;stroke-width:5;stroke-linecap:butt;stroke-linejoin:miter;stroke-miterlimit:4;stroke-dasharray:5, 70;stroke-dashoffset:0" />
      <path
         id="path1427"
         stroke-linecap="round"
         d="M 8.00994,318.50002 H 3000"
         vector-effect="non-scaling-stroke"
         style="opacity:1;fill:#888888;fill-rule:nonzero;stroke:#888888;stroke-width:5;stroke-linecap:butt;stroke-linejoin:miter;stroke-miterlimit:4;stroke-dasharray:5, 70;stroke-dashoffset:0" />
      <path
         id="path1431"
         stroke-linecap="round"
         d="M 8.00994,381.60123 H 3000"
         vector-effect="non-scaling-stroke"
         style="opacity:1;fill:#888888;fill-rule:nonzero;stroke:#888888;stroke-width:5;stroke-linecap:butt;stroke-linejoin:miter;stroke-miterlimit:4;stroke-dasharray:5, 70;stroke-dashoffset:0" />
      <path
         id="path1435"
         stroke-linecap="round"
         d="M 8.00994,444.70244 H 3000"
         vector-effect="non-scaling-stroke"
         style="opacity:1;fill:#888888;fill-rule:nonzero;stroke:#888888;stroke-width:5;stroke-linecap:butt;stroke-linejoin:miter;stroke-miterlimit:4;stroke-dasharray:5, 70;stroke-dashoffset:0" />
      <path
         style="opacity:1;fill:#888888;fill-rule:nonzero;stroke:#888888;stroke-width:5;stroke-linecap:butt;stroke-linejoin:miter;stroke-miterlimit:4;stroke-dasharray:5, 70;stroke-dashoffset:0"
         vector-effect="non-scaling-stroke"
         d="M 7.77182,507.80365 H 2999.7619"
         stroke-linecap="round"
         id="path1435-0" />
    </g>

    <g style="animation: cogspin 10s linear infinite; transform-origin: 251.6415px 206px;"><path
       id="cog"
       style="fill:#cdff65;stroke:#2a2a2c;stroke-width:5"
       d="m 249.89844,80.00586 c -0.77751,0.004 -1.57981,0.0226 -2.41016,0.0586 -4.1916,0.18193 -7.78592,0.79965 -11.99805,1.35547 -13.89947,1.83404 -4.84065,11.37509 -11.47265,19.52149 -4.03333,4.95427 -17.08277,8.54376 -23.19531,10.76562 -9.2592,3.36574 -10.72309,-6.84802 -18.66602,-8.23828 -5.56307,-0.9736 -13.59251,7.84515 -17.33398,11.33008 -5.34213,4.97574 -18.20499,15.53886 -14.57032,23.88086 1.99747,4.58467 7.20224,6.9036 7.87891,12 0.79253,5.96853 -5.69967,17.06996 -8.15234,22.64062 -4.09533,9.30161 -12.83864,3.44702 -19.07032,8.0625 -4.13663,3.29923 -6.41066,20.05148 -6.08593,29.29688 0.85157,6.80742 0.0989,12.86158 6.08593,17.29492 6.28008,4.652 14.13748,-1.5688 18.38282,6.7832 2.76986,5.448 9.73945,19.03986 8.68945,25.25586 -1.03067,6.10133 -9.22606,9.432 -8.27539,16 1.3552,9.36267 17.2217,21.87569 24.45117,27.54102 11.7292,9.19067 15.33402,-8.9238 26.66602,-4.5918 6.71134,2.56533 20.12342,5.28369 23.96289,10.95703 3.21146,4.744 -0.4584,13.1058 4.46093,16.8418 9.41853,7.15067 37.38126,7.13573 45.41993,-1.07227 3.304,-3.37333 -0.14879,-10.69703 2.19921,-14.81836 3.412,-5.98934 19.5124,-11.6564 26.62307,-12.8164 7.2427,-1.18133 11.1173,10.49584 18.6679,8.61719 8.2787,-2.06134 30.5232,-23.14419 30.2579,-31.99219 -0.192,-6.39867 -7.392,-8.30202 -8.3614,-14.66602 -0.976,-6.40267 6.1874,-22.37884 10.2168,-27.57617 4.1266,-5.32533 12.9301,-0.85489 17.8008,-4.46289 4.0893,-3.02934 6.1229,-19.77827 5.9883,-23.96094 -0.2371,-5.83615 -2.4002,-17.28047 -5.9883,-22.63086 -6.1374,-4.54548 -15.0195,1.68235 -19.1035,-6.78125 -2.7307,-5.65827 -9.3868,-17.61614 -8.7695,-23.92187 0.64,-6.54267 9.0591,-9.1472 8.3965,-16 -0.9786,-10.13187 -20.6948,-26.64985 -29.1055,-30.44531 -7.508,-3.388 -10.6414,6.57717 -17.3321,8.02343 -5.744,1.24174 -19.80879,-5.81606 -25.18745,-8.80273 -9.148,-5.08013 -1.17636,-12.18912 -5.56836,-18.68946 -2.16,-3.19522 -7.36078,-3.11826 -10.57812,-3.48632 -5.18817,-0.59343 -9.48129,-1.29959 -14.92383,-1.27344 z m -0.83203,62.67578 c 0.75697,-0.006 1.54982,-0.002 2.42187,0.004 2.8764,0.0205 5.1851,0.11398 8,0.61133 28.7907,5.08733 54.26392,31.40945 54.64262,60.71679 0.051,3.88493 -0.2769,6.77668 -1.1582,10.66602 -5.8587,25.84666 -24.22315,47.21 -50.81645,51.88867 -4.2454,0.74666 -7.8592,1.45305 -12,1.37305 -3.3409,-0.0653 -5.93498,-0.58158 -9.33398,-1.15625 -14.4894,-2.44533 -29.52949,-10.67735 -38.80079,-22.77735 -28.8758,-37.68427 -7.22113,-92.34321 40.13477,-100.71093 2.7027,-0.47748 4.63923,-0.59579 6.91016,-0.61524 z" /></g>
    
  </g>
</svg>
