<svg xmlns="http://www.w3.org/2000/svg" width="80" height="80" viewBox="0 0 380.49738 380.18202">
  <g>
    <path
       d="m 182.34887,378.68787 c -2.02102,-0.72179 -5.39602,-2.69594 -7.5,-4.387 C 166.87514,367.89207 4.6525305,204.42767 2.9966705,201.13319 2.0416304,199.23304 1.0405604,194.94173 0.77207042,191.59694 -0.16414953,179.93356 -1.8656795,181.96999 63.050452,117.06097 l 58.467458,-58.461045 21.51297,21.494037 c 14.88664,14.873543 21.32167,21.956058 20.89191,22.994038 -0.3416,0.825 -0.85674,4.53898 -1.14481,8.25328 -0.84314,10.87143 4.26495,21.03667 13.2033,26.27488 l 4.54216,2.66188 v 51.8698 51.86978 l -2.14429,1.14759 c -3.98392,2.13213 -11.01152,9.30786 -13.07288,13.34842 -2.5649,5.02765 -3.449,15.12341 -1.83057,20.90387 3.15813,11.27973 15.46877,20.67049 27.0976,20.67049 13.68931,0 24.97959,-8.54069 28.50446,-21.56262 1.5447,-5.70656 1.63682,-7.49448 0.6328,-12.2812 -1.49784,-7.14095 -5.61023,-13.79088 -10.90689,-17.63693 l -4.15802,-3.01925 -0.0611,-51.99683 -0.0611,-51.99683 19.61957,19.61955 19.61955,19.61956 -1.24486,3.77195 c -2.63599,7.98713 0.11653,19.70709 6.37522,27.14512 6.89047,8.18886 21.01738,11.46649 31.82782,7.38451 10.16747,-3.83921 18.80271,-16.00045 18.80271,-26.48035 0,-17.34163 -17.59418,-32.29808 -34.03288,-28.93066 l -4.85394,0.99432 -21.04609,-21.06517 -21.04608,-21.06516 1.09592,-3.96521 c 2.26229,-8.18532 -1.8163,-20.320151 -9.01589,-26.824538 -6.78903,-6.133489 -17.8706,-9.07072 -25.72418,-6.818337 -3.05812,0.877061 -3.47428,0.527269 -24.98393,-20.999046 L 138.04238,42.089896 156.03291,24.022306 C 177.45416,2.509312 180.1668,0.64355201 190.02345,0.64355201 c 5.86036,0 7.82804,0.45324999 11.53295,2.65658999 5.69486,3.3867804 174.13499,172.050478 176.55352,176.787858 2.6581,5.20664 2.50624,16.31254 -0.29398,21.5 -1.26186,2.33762 -37.61634,39.4127 -87.47585,89.20978 -66.08824,66.00548 -86.33082,85.66466 -89.81662,87.22804 -5.17895,2.32276 -12.75213,2.59862 -18.17457,0.66205 z"
       style="fill:#008080;stroke:#000000;stroke-width:0.999999" />
  </g>
</svg>
