<svg xmlns="http://www.w3.org/2000/svg" width="80" height="80" viewBox="0 0 764.15758 975.29456">
  <g>
    <path style="fill:#ffffff;stroke:#ffffff;stroke-width:1;" class="svgWhites" d="m 232.50291,17.398314 c -3.13565,0.125839 -4.50546,0.345227 -6.76442,1.107291 -5.76583,1.945365 -10.1558,5.773778 -12.71031,11.097453 -1.80575,3.763163 -2.46824,6.209656 -2.72015,10.134551 -0.56449,8.791885 4.41313,16.889409 13.4084,21.833803 1.19184,0.655328 3.00277,1.411747 4.02009,1.685081 2.4039,0.645962 7.35146,0.651878 10.01419,0.02465 7.66155,-1.806447 14.74531,-7.977846 17.57295,-15.310151 3.4694,-8.996484 1.392,-17.25315 -6.16258,-24.505859 -4.86399,-4.669666 -9.4863,-6.354119 -16.65817,-6.066278 z m 302.8809,16.61006 c -4.50484,-0.514205 -9.04814,0.0029 -12.46959,1.685082 -4.7882,2.354116 -10.02417,9.075746 -11.79555,15.141629 -2.11573,7.244969 0.51397,15.897421 6.78846,22.339333 2.84205,2.917781 5.66352,4.566294 9.84569,5.72927 1.83349,0.509892 3.87071,0.936588 4.52555,0.962965 2.74579,0.110926 7.61188,-1.047885 10.85673,-2.57576 15.64554,-7.366494 18.08789,-28.580762 4.4776,-38.756823 -3.27195,-2.446283 -7.72405,-4.011368 -12.22889,-4.525635 z m -316.57821,46.363745 -0.16886,0.553646 c -0.2465,0.828127 -0.81346,4.474324 -2.16652,13.552844 -2.33807,15.692801 -6.16318,42.918161 -6.13853,43.691691 0.0109,0.34584 0.90713,-1.60164 1.34812,-2.91278 0.78141,-2.32041 0.8603,-2.70635 1.92581,-10.85673 0.32662,-2.5004 1.46755,-11.12897 2.55168,-19.18583 1.08461,-8.056839 2.20262,-16.367391 2.47944,-18.46364 0.56819,-4.307085 0.57559,-4.274842 1.34801,-4.814511 0.58298,-0.4071 1.23719,-0.539965 2.47957,-0.48142 0.51395,0.02465 0.86276,0.02218 0.77032,0 -0.0986,-0.02219 -0.82702,-0.199051 -1.63703,-0.385161 -0.80976,-0.18611 -1.75879,-0.401676 -2.11832,-0.505578 z m 332.41788,13.239896 c -0.0739,0 -0.67173,0.2714 -1.32397,0.601838 -1.72971,0.876564 -5.22574,1.999188 -8.08837,2.599829 l -2.50349,0.505578 -0.14421,42.60841 c -0.14173,40.03456 -0.37469,60.16822 -0.91452,77.24883 -0.12695,3.99448 -0.23295,9.99655 -0.21693,13.33619 0.0247,4.81506 0.0862,5.6733 0.24034,4.06827 0.60024,-6.15573 0.78511,-22.64948 1.29994,-109.33754 l 0.16885,-25.396544 4.5979,-1.612868 c 2.52851,-0.88322 5.09781,-1.874138 5.72923,-2.214669 1.02175,-0.55118 1.16226,-0.721638 1.22758,-1.516573 0.037,-0.491156 0.005,-0.890738 -0.0739,-0.890738 z M 366.5389,98.2821 c -28.36103,0.03451 -38.97422,1.103964 -57.62969,5.75334 -30.93464,7.70955 -55.77795,20.71612 -75.78043,39.64749 -6.48809,6.14067 -18.04464,19.72516 -17.35628,20.41352 0.42028,0.41968 4.58101,-1.97991 7.12542,-4.11639 1.43119,-1.20171 5.01017,-4.37304 7.94392,-7.05327 20.30679,-18.55121 44.04318,-31.77353 74.50466,-41.50109 16.19784,-5.17261 26.39961,-7.49287 39.35851,-8.95499 9.36182,-1.05626 39.82219,-1.21131 47.5434,-0.24071 36.46038,4.58345 71.84046,18.42506 95.73645,37.48098 4.23764,3.37928 18.66373,15.98427 27.12987,23.71146 2.74248,2.50311 5.06589,4.46683 5.17558,4.35712 0.31183,-0.31207 -2.12374,-3.41692 -6.40328,-8.11244 -4.63167,-5.08175 -15.7222,-15.32976 -22.09863,-20.43761 -21.60018,-17.30271 -45.97822,-29.08522 -74.76939,-36.15696 -16.8067,-4.128121 -23.94136,-4.822729 -50.48011,-4.79045 z m -101.20106,84.51873 c -30.79082,0.007 -43.87432,0.78326 -55.96862,3.32202 -25.22329,5.29458 -43.81209,14.96604 -43.81209,22.7967 v 1.68509 l 1.56468,-1.49251 c 6.76158,-6.54349 29.21023,-15.00424 52.16521,-19.6432 16.43842,-3.32246 26.71118,-4.00683 50.31162,-3.34608 29.13344,0.81568 46.73364,2.59449 68.96796,6.95697 20.85415,4.0917 49.7252,12.36039 67.98083,19.47469 16.65805,6.49173 40.58019,17.65232 48.33775,22.55599 2.0954,1.32462 4.02047,2.42096 4.28485,2.43131 0.88987,0.0345 1.7641,-1.89556 1.17951,-2.59983 -0.86399,-1.0411 -13.07759,-8.90361 -19.9321,-12.83067 C 409.68,204.5015 377.03079,193.86324 331.44093,186.62837 c -18.996,-3.01465 -33.31931,-3.83559 -66.10321,-3.82754 z M 519.3515,212.1212 c -0.2354,-0.13533 -0.69883,-0.0962 -1.54063,0.0247 -7.62336,1.08733 -15.25348,4.02509 -20.75063,7.96802 -4.01947,2.88308 -10.11093,9.28482 -13.16769,13.84172 -8.12658,12.11487 -13.78827,29.61788 -15.96008,49.32467 -1.05997,9.61793 -1.43231,25.97633 -0.77032,33.82194 1.83817,21.78452 13.67302,45.44126 28.06867,56.11312 4.12091,3.05504 9.62903,5.85387 12.95102,6.5718 2.90578,0.62797 8.47847,0.741 12.1325,0.24072 l 2.3832,-0.33697 -4.18858,-0.60183 c -6.32749,-0.9149 -12.85377,-2.72235 -16.05647,-4.42937 -3.64035,-1.94033 -9.07315,-6.54287 -12.63808,-10.73635 -12.85032,-15.11647 -19.73946,-36.97261 -19.73946,-62.58864 0,-26.31917 5.53547,-49.2187 15.52685,-64.32187 3.07808,-4.65296 10.04068,-11.63325 14.5157,-14.53984 4.26868,-2.7725 10.31134,-5.44675 15.64714,-6.93289 3.57689,-0.99624 3.8245,-1.16547 3.82757,-2.35911 0.002,-0.60344 -0.005,-0.92377 -0.24034,-1.05922 z m -270.91255,22.79672 -16.58607,0.52961 c -19.40078,0.61958 -39.95395,2.63178 -47.47106,4.646 -6.74086,1.80624 -13.50416,8.52579 -15.47865,15.38236 -4.72608,16.4119 -2.22273,39.89453 5.00709,46.82112 2.02181,1.93699 7.00807,4.42296 11.0734,5.51261 4.06533,1.08967 7.97733,1.82317 8.69022,1.63694 0.71239,-0.18624 4.79091,-6.79654 9.05122,-14.70833 12.25316,-22.75535 26.28559,-41.96368 39.69573,-54.28361 z m 33.62929,2.31096 c -5.50183,0 -7.74216,0.93301 -15.71937,6.54774 -17.68818,12.44991 -46.64108,45.6239 -56.30571,64.51445 -2.11574,4.13542 -2.115,4.37574 0.1442,4.45342 1.31559,0.0457 10.58053,1.20096 20.58201,2.55168 10.00161,1.35077 21.03546,2.51483 24.50597,2.59984 l 6.30691,0.16849 19.45068,-21.23201 c 18.33994,-20.00494 32.15681,-33.30563 47.2063,-45.44898 l 6.54774,-5.29595 -3.8516,-1.08326 c -7.86297,-2.23192 -42.66536,-7.77543 -48.86738,-7.77543 z m 68.26986,14.41947 c -3.37733,-0.33735 -6.2083,2.90942 -16.46565,12.51772 -11.92077,11.16638 -24.97471,25.38985 -38.805,42.29548 l -10.88076,13.31213 32.20907,-0.74629 c 47.03041,-1.09842 64.96252,-5.68295 70.05108,-17.86184 6.46997,-15.48475 -4.40229,-33.39507 -27.70743,-45.64156 -4.15393,-2.18284 -6.37493,-3.67328 -8.40131,-3.87568 z m 205.02589,6.30699 c -4.5131,-0.74911 -9.3331,0.14101 -14.61208,2.64799 -9.74155,4.62627 -17.27961,12.10432 -20.87079,20.67833 -2.70697,6.46257 -3.35972,10.45615 -3.34616,20.58202 0.0116,8.78369 0.074,9.49885 1.32397,13.55286 2.00604,6.5103 4.28706,10.38332 8.66618,14.80463 4.33193,4.37373 9.43207,7.27585 15.55089,8.83462 2.62082,0.66815 4.6769,0.83935 8.25687,0.6981 13.84755,-0.5465 23.95515,-9.80865 28.14078,-25.78171 1.66784,-6.3647 2.11819,-18.18181 0.93917,-24.96323 -1.79047,-10.29572 -5.4243,-17.95853 -11.28996,-23.85591 -4.03045,-4.05221 -8.2454,-6.44854 -12.75851,-7.1977 z m -155.41236,56.08907 c -0.17871,0.0678 -0.62119,0.60282 -1.44438,1.61286 -2.11721,2.5986 -8.73952,7.39036 -13.4566,9.74939 -7.20344,3.60241 -21.90314,7.40757 -35.69955,9.24386 -17.0559,2.27007 -90.24029,2.06726 -112.80407,-0.31294 -23.24141,-2.45171 -49.78053,-6.57845 -60.51833,-9.43644 l -6.47551,-1.73323 -1.17951,1.54065 c -0.65077,0.84636 -1.09325,1.82378 -0.98725,2.16652 0.88248,2.86558 64.36069,12.63858 94.41249,14.53983 11.33383,0.71709 65.03709,0.22321 75.08234,-0.69809 28.88719,-2.64937 47.44751,-7.77308 56.08904,-15.45458 3.22142,-2.86356 6.00715,-6.99361 6.86067,-10.13455 0.21076,-0.77636 0.2995,-1.15154 0.12325,-1.08326 z m 56.69088,42.60842 c -1.21773,0.27276 -3.31596,1.29572 -7.31806,3.29794 -34.52373,17.27186 -85.54824,29.7048 -133.98792,32.61832 -34.5395,2.07746 -72.98263,1.42545 -95.97728,-1.61287 -6.66767,-0.88101 -12.23802,-1.50266 -12.37323,-1.37214 -0.57681,0.55636 5.24904,9.84239 10.76035,17.16374 15.58787,20.70693 35.12076,35.68581 59.50742,45.59342 4.82542,1.96047 9.24189,3.53672 9.79751,3.51459 1.01066,-0.0407 -7.29291,-4.12368 -10.23086,-5.03116 -2.05313,-0.63426 -18.07569,-11.93207 -26.11871,-18.41552 -7.48704,-6.03527 -22.68037,-20.56665 -26.38346,-25.22803 -3.05751,-3.8486 -3.48482,-6.87089 -1.08338,-7.77543 0.83318,-0.31405 16.36891,-0.75861 34.52002,-0.96297 76.80108,-0.86399 126.69279,-7.73381 170.38556,-23.49481 8.16222,-2.94432 26.55861,-11.67152 29.44072,-13.96208 1.60584,-1.27628 1.75103,-1.63966 1.08338,-3.10536 -0.45726,-1.00352 -0.80484,-1.50044 -2.02206,-1.22772 z m 34.59226,95.47176 c -0.3217,0.006 -0.60641,0.1384 -0.9626,0.36112 -0.82456,0.5152 -4.98392,2.85317 -9.24386,5.1756 -28.24937,15.40091 -60.7498,24.83346 -95.9773,27.85194 -10.40562,0.89161 -36.75962,0.89197 -47.1581,0 -23.21578,-1.99136 -46.71836,-7.17269 -64.85148,-14.25095 -3.82105,-1.49162 -7.05775,-2.58556 -7.17361,-2.4554 -0.56449,0.63031 -3.73119,7.33439 -3.73119,7.89579 0,2.14732 33.69917,9.34201 55.22233,11.79556 27.76376,3.16519 65.71584,4.62291 83.17072,3.17758 26.67975,-2.20918 54.85578,-10.34375 81.87078,-23.63926 4.52642,-2.22767 9.41137,-4.41274 10.8327,-4.83857 2.37752,-0.71228 2.80237,-0.6207 5.29587,1.10728 2.92858,2.02946 9.94011,9.59459 16.89901,18.19885 5.8441,7.22594 7.30043,9.2621 10.68813,14.9972 3.02299,5.11758 3.13576,5.22293 4.69415,4.23677 0.79621,-0.50398 0.50656,-1.30485 -1.61287,-4.52563 -7.42985,-11.29473 -19.90043,-26.86613 -31.535,-39.33455 -4.20139,-4.5025 -5.46115,-5.77305 -6.42732,-5.75335 z m 100.14183,62.58864 c -8.02245,-0.18032 -17.30205,-0.09 -23.73553,0.38516 -20.84442,1.53856 -33.83204,4.57565 -46.58044,10.85672 -13.97412,6.88499 -18.78142,12.66039 -20.48574,24.57809 -0.42399,2.96341 -0.96384,5.98042 -1.17952,6.71624 -0.2157,0.73581 1.22512,-0.47859 3.20158,-2.69613 11.38498,-12.77087 15.38363,-15.28204 30.62034,-19.40248 21.13085,-5.71443 36.04466,-8.20301 53.22444,-8.8587 14.79116,-0.56461 17.84398,-1.16818 20.91897,-4.06826 2.84724,-2.68525 2.91096,-4.90051 0.16886,-6.21073 -1.36057,-0.65003 -8.13028,-1.11961 -16.15259,-1.29991 z m 0.93917,3.56273 c 7.42233,0.15826 13.31215,0.51803 13.31215,1.01104 0,0.30677 -0.98602,1.07462 -2.16652,1.68506 -1.63493,0.84538 -5.27406,1.23904 -15.31018,1.68509 -17.60647,0.78252 -23.82192,1.62752 -42.12699,5.72927 -12.7569,2.85853 -22.045,5.65953 -27.73157,8.37724 -3.13183,1.49677 -7.08882,4.09665 -9.24386,6.06629 -4.05979,3.71034 -4.82136,3.28949 -2.45542,-1.34807 3.35244,-6.57136 16.02552,-14.13467 30.45174,-18.17478 8.23678,-2.30673 20.13868,-4.05204 32.71464,-4.79043 6.16023,-0.36174 15.13368,-0.39896 22.55601,-0.24071 z m 33.05161,4.69416 -6.09034,6.33108 c -3.53782,3.66051 -8.60494,11.38383 -12.06041,18.4155 -7.79381,15.86007 -9.39189,23.79196 -1.90165,9.43644 10.23677,-19.61959 15.86284,-26.26315 22.26711,-26.26315 5.57898,0 45.51726,13.67482 57.79816,19.78763 11.82648,5.88668 21.93914,13.42896 28.50191,21.28014 4.89715,5.85864 7.19765,7.41069 7.19765,4.86265 0,-3.06339 -20.55244,-21.79158 -30.88511,-28.14081 -14.01295,-8.61076 -35.95221,-17.98419 -52.40591,-22.38747 z m -406.80212,1.63692 c -3.13503,0 -21.25201,3.94524 -33.67749,7.34213 -19.58811,5.35504 -35.83315,12.09716 -50.88942,21.08757 l -7.26987,4.30898 2.55167,2.11839 c 1.39336,1.15992 2.80139,2.12273 3.12948,2.14246 0.32785,0.0197 4.64905,-2.54133 9.60487,-5.70519 11.78013,-7.52062 17.90413,-10.5377 27.25016,-13.36028 9.5441,-2.88243 35.17376,-8.93345 42.17506,-9.96604 2.87126,-0.42362 5.56074,-1.11148 5.97005,-1.51657 0.4092,-0.40512 1.24718,-2.01248 1.85358,-3.58681 l 1.10681,-2.86464 z m -155.893903,16.3212 c -0.267455,0.26721 6.391083,16.38887 14.780565,35.81997 l 15.23795,35.3385 37.481028,18.65624 c 20.60567,10.27065 38.01334,18.6803 38.7086,18.6803 2.02859,0 1.5245,-2.20316 -2.67209,-11.45853 -9.40433,-20.74095 -27.70188,-41.5521 -53.10401,-60.37398 -8.17602,-6.05808 -22.756785,-16.88497 -32.401706,-24.07256 -9.644799,-7.18757 -17.763005,-12.85714 -18.030337,-12.58994 z m 514.863853,47.30258 c -1.12776,0.17243 -2.54909,0.58902 -4.02009,1.20367 -7.69534,3.21533 -25.06567,7.40561 -40.99555,9.89382 -12.32515,1.92515 -29.96207,2.20866 -135.38411,2.31096 -119.95894,0.11586 -121.37745,0.16935 -135.11925,3.12944 -29.90328,6.44123 -44.40504,14.82593 -56.1853,32.54609 -8.9658,13.4864 -8.38171,14.42812 5.17558,8.28096 l 8.47353,-3.85161 133.26567,-1.20368 c 189.71658,-1.72303 193.0037,-1.71647 198.16522,1.1073 7.72664,4.2271 12.24097,11.86897 26.07065,44.00463 7.52463,17.48497 24.63982,56.49523 38.03466,86.68528 13.39473,30.19003 24.52644,54.8854 24.72241,54.8854 0.19596,2e-5 3.6279,-4.98534 7.63111,-11.09743 8.14273,-12.4325 13.53856,-24.22917 13.38426,-29.2963 -0.0617,-1.85216 -4.94523,-15.49016 -10.85674,-30.30736 -16.94942,-42.48436 -68.74536,-166.76882 -70.05109,-168.07457 -0.3377,-0.33795 -1.18322,-0.38911 -2.31096,-0.21668 z m 150.83861,4.62193 c -4.16306,0 -34.45532,10.86736 -45.03978,16.15267 -14.93711,7.45886 -30.91432,18.1109 -41.3807,27.61123 -9.46696,8.59314 -11.52069,12.97565 -2.69614,5.75334 23.20567,-18.99225 74.17953,-44.65511 83.86882,-42.22327 3.3867,0.85007 9.00845,12.71385 11.48261,24.26514 1.2595,5.88067 3.85308,39.83965 3.94786,51.61155 0.0247,3.76229 0.5004,4.38121 3.39422,4.38121 3.23338,0 3.37426,-0.34202 3.37019,-8.42539 -0.008,-15.10784 -2.80471,-38.87395 -6.13853,-52.06893 -4.09331,-16.20169 -8.43669,-27.05755 -10.80855,-27.05755 z M 25.142266,598.6783 c -0.378382,0.37802 14.109213,43.31507 32.18503,95.42361 l 32.858969,94.74957 15.839785,0.987 c 17.93432,1.12849 24.25442,3.25842 32.93132,11.09746 3.03581,2.74275 7.19419,8.40054 9.24386,12.58994 3.10939,6.35534 3.71751,9.30584 3.63493,17.74149 -0.18241,18.64239 -9.6003,34.47104 -24.77072,41.64551 -7.41024,3.50449 -7.50206,3.59656 -6.28286,7.84765 1.17089,4.08262 2.3901,4.7553 23.61511,13.04733 12.30826,4.80846 39.36517,15.41215 60.10913,23.54295 20.74409,8.13083 38.2352,14.80589 38.87722,14.85278 1.76471,0.12867 2.11253,1.05824 -32.49797,-86.10754 C 159.91604,717.72913 155.04218,704.63982 148.10485,677.70852 L 143.77182,660.88181 84.794013,629.41898 C 52.361986,612.12174 25.520278,598.30032 25.142266,598.67833 Z m 508.773494,58.97777 c -12.42115,-0.16073 -48.09691,0.63745 -154.97912,3.24979 -90.20628,2.20477 -140.07828,3.63035 -140.07828,3.99604 0,0.51236 22.77171,62.44789 28.23717,76.79145 15.30696,40.17145 69.18426,171.58408 80.49863,196.33577 l 4.9589,10.80857 118.34077,-0.98699 c 142.24331,-1.19554 187.58839,-2.25379 189.76391,-4.42935 2.14999,-2.14997 -2.3763,-14.30319 -4.9589,-13.31212 -0.98233,0.37702 -6.83825,1.39225 -12.99922,2.23873 -19.01105,2.61195 -36.80178,-0.90774 -46.5082,-9.17163 -10.60383,-9.02803 -19.28763,-32.10413 -17.23599,-45.786 2.06484,-13.76925 11.561,-24.85122 29.1279,-33.99046 l 10.56783,-5.48854 -2.21471,-5.68112 C 611.89119,820.62381 568.32105,715.31597 559.24,693.98153 546.72727,664.5843 543.91602,659.2398 540.36712,658.11341 c -0.75061,-0.23812 -2.31097,-0.40377 -6.45136,-0.45739 z m -318.98544,12.61402 c -7.95391,2.97005 -24.83678,4.97948 -34.88115,4.16455 l -11.19371,-0.89074 0.84305,4.42936 c 4.33365,22.71267 30.11144,92.45397 70.09928,189.64358 23.4571,57.01223 30.20204,72.00978 34.47183,76.5748 5.63384,6.02335 16.1764,12.87235 22.36337,14.53982 3.41197,0.91958 7.72873,1.71292 9.58095,1.7573 4.99551,0.11955 20.70552,-2.59125 21.90599,-3.77939 2.62537,-2.59822 -53.67763,-150.54156 -89.26107,-234.53891 -6.74765,-15.92848 -14.52038,-34.27373 -17.26001,-40.75483 -3.18519,-7.5356 -5.58675,-11.54937 -6.66804,-11.14559 z m 529.98138,25.92613 -22.33933,0.79436 c -17.42837,0.61909 -26.7823,1.7022 -42.41589,4.93488 -20.21163,4.17932 -22.40157,4.80206 -22.36336,6.49959 0.0862,3.82741 2.50422,3.96908 15.23795,0.89074 24.52729,-5.92955 61.40488,-8.02443 65.69391,-3.73124 2.09478,2.09669 -1.37759,30.72332 -5.89771,48.60248 -1.73662,6.86899 -2.84624,12.77682 -2.47946,13.14363 1.43984,1.43986 2.69996,-1.95916 5.9941,-16.20084 2.8582,-12.35709 5.57035,-29.48663 8.11241,-51.05789 z m -335.71584,25.22804 c 13.6278,-0.0345 27.64322,0.0542 40.92331,0.26474 l 54.33173,0.84255 3.99606,3.37016 c 5.14155,4.32634 8.49843,11.09413 21.47275,43.25838 7.27517,18.03576 10.66112,28.17224 10.66409,31.94428 0.004,6.8806 -4.40156,13.82437 -10.80855,17.04337 -4.31084,2.16589 -11.34628,2.33403 -87.57597,2.33504 l -82.88182,0.0247 -6.01812,-3.03314 c -7.34418,-3.7035 -10.39737,-9.49234 -23.51885,-44.63052 -10.45604,-28.00025 -11.86541,-36.04949 -7.55876,-43.01766 1.59413,-2.57944 3.94219,-5.15587 5.22364,-5.7052 3.48296,-1.49302 40.86687,-2.59385 81.75049,-2.69613 z m 9.12344,18.27107 c -39.74724,-0.0113 -79.7124,0.4039 -81.05226,1.25177 -2.0927,1.32423 2.37136,14.21762 16.41746,47.56738 5.00845,11.89169 7.24991,15.81567 9.07538,15.81567 2.06631,0 0.94041,-3.67212 -7.53473,-24.57809 -5.48137,-13.5206 -9.966,-26.17001 -9.966,-28.11674 0,-7.11522 -1.21155,-6.99289 75.85255,-7.53471 39.40447,-0.27694 73.04806,-0.79904 74.74536,-1.15548 1.69717,-0.35645 2.70722,-1.25478 2.26278,-1.97395 -0.52382,-0.84871 -40.05316,-1.26464 -79.80054,-1.27585 z M 58.362362,770.773 c -0.394405,-0.1431 -0.77895,0.0567 -1.202935,0.48142 -1.698652,1.69859 -1.633329,3.13016 0.481913,11.12152 5.714062,21.59297 8.901593,29.94102 12.975055,34.01452 4.489804,4.48974 11.066134,5.44749 18.295204,2.64798 2.085537,-0.80767 8.029833,-2.59791 13.215761,-3.97197 11.92359,-3.15941 5.64714,-3.56991 -9.653055,-0.62588 -17.249292,3.31904 -17.705322,2.83765 -28.18897,-29.29629 -3.377091,-10.3512 -4.73865,-13.9421 -5.921864,-14.37132 z m 627.090118,1.34806 c -0.72841,0.30431 -0.45727,1.09139 0.12326,2.69613 2.4257,6.73133 1.08337,19.04076 -3.29785,30.18698 -6.48697,16.50138 -13.37401,27.20158 -25.1799,39.16605 -9.36983,9.49557 -12.17516,11.4886 -21.54499,15.23794 -19.17311,7.67218 -23.72763,10.0518 -27.73158,14.61204 -2.16404,2.46474 -3.92384,5.9972 -3.92384,7.82358 0,1.82635 0.75924,3.28865 1.6851,3.27386 2.5391,-0.0394 25.15587,-12.30368 36.30138,-19.69135 12.73274,-8.43965 32.83038,-28.48874 39.28642,-39.19012 5.68287,-9.41955 12.16246,-26.19362 13.64912,-35.36258 1.71799,-10.59483 3.55062,-11.2953 16.15271,-5.96999 4.4452,1.8784 8.99909,3.79589 10.11045,4.23677 1.11172,0.44087 0.28594,-1.07254 -1.82943,-3.34609 -5.17593,-5.56315 -19.3665,-12.37368 -27.90019,-13.38434 -3.44401,-0.40796 -5.16892,-0.59321 -5.8977,-0.28891 z M 426.76881,881.79563 h 14.8046 l 15.0935,7.17362 c 8.30246,3.94809 18.32134,8.03141 22.24307,9.07535 14.74175,3.92418 32.81435,1.73072 59.33881,-7.17362 10.34487,-3.47266 14.92712,-4.45128 15.96009,-3.4183 2.37493,2.37499 -0.76786,6.4714 -9.94196,12.97511 -10.69083,7.57932 -19.4253,11.95353 -31.29429,15.64716 -12.39134,3.8562 -35.12372,4.95351 -43.88431,2.11838 -3.38708,-1.09619 -12.77674,-5.40675 -20.87091,-9.55681 l -14.70834,-7.53471 -14.8528,0.43336 -14.85266,0.45738 -10.39934,6.47552 c -5.71961,3.56724 -10.99946,6.11937 -11.74748,5.65706 -5.95502,-3.6804 8.04168,-21.20382 22.86895,-28.62228 6.73681,-3.3706 8.76935,-3.70717 22.24307,-3.70717 z" />
    <path style="fill:#008080;" class="svgTurquoise" d="m 232.69438,2.0660403 c -2.54092,-0.0154 -5.12937,0.22278 -7.74231,0.73691 -18.80692,3.6999801 -31.49905,18.9102087 -31.49905,37.7515687 0,8.60061 2.8571,17.31825 7.80687,23.80781 3.51973,4.61464 3.57667,4.99439 1.97122,13.17449 -5.03337,25.645661 -9.90992,55.291611 -11.84612,71.996321 -2.11462,18.24558 -3.08243,21.03434 -7.31471,21.08363 -3.02599,0.0355 -15.66195,5.76738 -23.28075,10.5606 -17.8646,11.23929 -21.7707,30.46536 -9.5844,47.17198 l 4.4345,6.08035 -3.4476,9.75389 c -3.0017,8.49638 -3.4362,11.97881 -3.3588,26.96764 0.069,13.45056 0.6867,18.91005 2.8183,24.98848 2.3827,6.79425 2.4797,8.09997 0.7717,10.32668 -9.0464,11.79401 -11.3479,30.88144 -5.2924,43.88562 4.4275,9.50769 15.1774,18.83405 27.2447,23.63569 8.99659,3.5799 9.93091,4.34201 12.33015,10.06851 10.86848,25.94101 29.31191,48.20298 53.21738,64.2352 l 11.36199,7.6212 -3.5659,5.7228 c -4.41409,7.0859 -18.46703,35.9659 -18.46703,37.9505 0,1.6674 -2.84962,2.3815 -14.45735,3.6224 -32.85259,3.512 -73.87194,17.926 -97.67854,34.3254 -6.4674,4.4552 -10.1412,6.1957 -11.3647,5.3812 -2.1149,-1.4082 -36.97899,-24.0985 -53.22809,-34.6427 -11.544,-7.4911 -16.4686,-8.5712 -17.0631,-3.7382 -0.1863,1.5146 7.3343,22.8909 16.7135,47.5028 9.3792,24.6119 16.8516,44.9667 16.6061,45.233 -0.2453,0.2662 -12.1034,-5.8485 -26.3519,-13.5887 -28.1556,-15.295 -33.1993,-16.7771 -37.7865,-11.112 -1.4171,1.7499 -2.5762,4.4603 -2.5762,6.0239 0,1.5634 9.241,30.4605 20.5377,64.2163 11.2969,33.7559 23.3086,70.1778 26.6934,80.938 l 6.1556,19.5643 -3.1194,2.0438 c -5.6431,3.6975 -15.9446,15.1552 -20.0323,22.2803 -6.3516,11.0713 -8.5663,22.0968 -7.9789,39.7094 0.4585,13.7442 0.948,16.1824 4.9509,24.6791 5.1199,10.8673 16.5722,22.9251 27.2393,28.6808 9.2277,4.9792 25.7288,9.3934 35.116,9.3934 h 7.6939 l 2.40159,7.62403 c 3.8794,12.30697 7.9348,15.74157 27.995,23.71087 22.0543,8.7616 85.05563,33.62283 113.30298,44.71133 12.72109,4.9937 23.25999,10.0399 26.0936,12.4942 8.2754,7.1676 22.9252,12.9987 36.58979,14.5649 0.77727,0.089 6.6635,-0.4898 13.08049,-1.2855 7.2668,-0.901 15.0442,-2.9517 20.61841,-5.4402 l 8.9498,-3.9963 155.00773,-1.0972 155.0077,-1.1 6.6693,-4.1307 c 12.133,-7.5149 16.3057,-21.669 10.2944,-34.9169 -1.4979,-3.3013 -2.7215,-6.46603 -2.7215,-7.03513 0,-0.5691 3.8725,-3.0869 8.6055,-5.5936 9.9313,-5.2599 26.8789,-17.3214 34.5218,-24.56892 23.0166,-21.82588 34.2045,-54.76888 29.8855,-87.99988 -1.5228,-11.7169 -1.4308,-13.5238 1.1483,-22.0195 12.2198,-40.2516 18.1144,-96.5901 14.019,-134.0047 -2.052,-18.7465 -7.7118,-42.088 -13.6828,-56.431 -5.6617,-13.5999 -16.5291,-30.0291 -26.3788,-39.8788 -32.8507,-32.8506 -105.5077,-55.4721 -160.3351,-49.9176 l -11.0151,1.1161 -6.6854,-9.641 c -9.718,-14.018 -20.4846,-26.8854 -32.2171,-38.5044 l -10.3132,-10.21375 8.7023,-8.00041 c 16.4408,-15.11357 26.5591,-26.78712 34.987,-40.35748 2.1164,-3.4078 6.2819,-8.85959 9.2537,-12.11498 4.7788,-5.23494 13.3513,-20.64799 13.5564,-24.3726 0.04,-0.75729 2.9719,-3.23569 6.5107,-5.50756 8.6679,-5.5647 15.8879,-15.55873 19.7901,-27.38978 2.5971,-7.8743 3.2298,-12.74574 3.2298,-24.93204 0,-18.69046 -2.0772,-25.28191 -12.2065,-38.74652 l -7.3927,-9.82645 -0.9278,-21.15082 c -2.7958,-63.76571 -6.683,-105.16136 -13.1423,-139.913071 -0.8757,-4.71199 -0.5181,-7.00327 1.8314,-11.70356 4.1363,-8.27429 4.0793,-25.54434 -0.1103,-33.47027 -11.875,-22.464239 -41.2911,-28.066119 -60.161,-11.45614 -8.2352,7.24891 -12.0358,14.76508 -12.8976,25.50207 -1.3146,16.37783 5.986,28.99978 21.0648,36.42301 l 8.9014,4.38347 v 26.279291 26.2792 l -9.294,-9.02773 c -38.4158,-37.30917 -84.11328,-56.504511 -139.53654,-58.614731 -43.0248,-1.63822 -78.60749,5.23521 -111.74588,21.581231 l -13.4247,6.62089 v -9.31024 c 0,-17.714501 0.97155,-20.933121 7.6267,-25.225031 6.78379,-4.37479 13.73749,-14.07443 15.94989,-22.25068 C 277.3102,25.919419 257.25681,2.2152903 232.69437,2.0660403 Z M 231.39011,13.74812 c 5.95747,-0.14512 11.9481,1.66687 16.5308,5.690409 8.1311,7.13918 11.14309,15.88326 8.68619,25.2143 -4.06369,15.43329 -21.93894,24.54706 -34.92782,17.80553 -14.52483,-7.53875 -19.16745,-21.97007 -11.68475,-36.32897 4.05315,-7.7775 12.68851,-12.169229 21.39558,-12.381269 z m 296.87582,16.493079 c 4.7823,-0.0489 9.9221,0.86304 13.465,2.67048 21.7641,11.1031 16.1679,43.40054 -8.186,47.24454 -2.6505,0.41844 -5.4387,0.55738 -6.196,0.3065 -0.7573,-0.25101 -3.0343,-0.822 -5.0585,-1.2666 -8.8512,-1.94444 -17.6602,-14.03133 -17.6602,-24.22996 0,-8.88245 6.0096,-18.65452 14.0432,-22.83434 2.3684,-1.23232 5.873,-1.85247 9.5925,-1.89062 z m -311.47569,46.12582 c 0.10045,0.004 0.19845,0.0357 0.29314,0.0942 0.75693,0.46786 5.63341,1.56759 10.83764,2.44453 6.6289,1.11693 9.16216,2.078 8.46035,3.21366 -0.70939,1.14791 -3.3039,1.30873 -8.88526,0.55131 -4.33582,-0.58835 -7.88216,-0.85753 -7.88216,-0.59978 0,0.25776 -1.19915,9.29222 -2.66502,20.077781 -1.46584,10.78545 -3.05919,22.75145 -3.53905,26.59119 -0.55419,4.43605 -2.1036,8.45176 -4.25168,11.01511 l -3.38038,4.03389 0.73684,-6.196 c 1.25738,-10.56228 7.54666,-54.177851 8.39043,-58.184321 0.38502,-1.82796 1.1847,-3.07239 1.88515,-3.04155 z m 332.30389,12.55076 c 0.9291,-0.13562 0.9681,0.73664 0.9681,3.01732 0,3.17332 -0.8965,4.0581 -5.8518,5.771091 l -5.8518,2.02223 -0.3577,69.46037 c -0.3597,69.98595 -0.4699,71.57268 -5.0235,71.64939 -0.7391,0.0135 -0.8804,-11.39061 -0.3469,-27.86057 v 0 c 0.4968,-15.3351 0.9041,-48.41462 0.9062,-73.51022 V 93.839069 l 4.4749,-0.84708 c 2.4612,-0.46704 6.1788,-1.73956 8.2613,-2.82647 1.3827,-0.72164 2.2608,-1.16651 2.8184,-1.24775 z m -187.21143,5.13635 c 16.74229,-0.12066 33.2888,0.76115 42.87179,2.694711 40.87584,8.24727 72.93234,24.94936 100.90834,52.57722 12.0152,11.86563 14.1132,14.58856 14.1132,18.31373 0,4.26657 -0.6836,5.6096 -1.6082,3.16259 -0.4305,-1.13913 -24.864,-23.11785 -33.6424,-30.26197 -23.0254,-18.73908 -57.60928,-32.78954 -91.86703,-37.32131 -15.55781,-2.0579 -40.33771,-1.74975 -57.21091,0.70992 -16.9265,2.46753 -46.14338,11.85502 -62.51938,20.0887 -9.40401,4.72824 -24.919,14.06189 -27.1533,16.33432 -0.37865,0.38502 -3.1668,2.53238 -6.196,4.77341 -3.02913,2.24101 -8.79235,7.28621 -12.80613,11.21145 -4.82159,4.71488 -8.90985,7.43864 -12.04779,8.02742 -2.61251,0.49 -4.74919,0.51156 -4.74919,0.0453 0,-1.67651 8.25669,-12.49831 14.73166,-19.30606 23.06045,-24.24524 53.31875,-39.75384 93.12564,-47.72864 10.36929,-2.077311 27.30739,-3.200441 44.0497,-3.321191 z m -98.45569,84.044111 c 21.75589,-0.009 44.30129,0.85248 56.69988,2.59241 46.6964,6.5544 81.10339,16.72564 111.52806,32.9728 12.22208,6.52673 28.91478,17.22861 28.91478,18.53693 0,1.43086 -2.9494,5.89653 -3.8349,5.80607 -0.5413,-0.0551 -2.8431,-1.33599 -5.115,-2.84519 -9.4616,-6.28566 -41.20144,-20.63988 -58.51774,-26.46479 -45.1689,-15.19428 -78.94948,-21.39359 -122.54318,-22.48477 -25.89621,-0.64827 -31.67223,-0.38306 -46.12586,2.10829 -31.5535,5.43872 -59.84132,17.19475 -59.91622,24.89969 -0.018,1.90355 -0.1844,1.91387 -1.3554,0.10168 -0.7341,-1.13595 -1.3465,-4.01502 -1.3581,-6.39773 -0.048,-10.02774 19.90651,-20.54828 49.65684,-26.18237 9.24258,-1.75032 30.21103,-2.63331 51.96684,-2.64351 z m 254.97212,28.75071 v 3.92619 c 0,3.02132 -0.6429,3.92359 -2.7861,3.92359 -1.5311,0 -6.6428,1.74976 -11.3593,3.88861 -21.0134,9.52932 -32.8914,34.17469 -34.9009,72.40776 -1.5837,30.13212 6.6155,56.30131 22.4766,71.73005 6.8199,6.63413 10.3887,8.38003 21.0648,10.31593 9.9735,1.80854 19.3999,0.8526 24.6657,-2.50359 3.2339,-2.06135 3.3954,-2.06492 1.791,-0.0319 -5.3534,6.78076 -27.9631,11.20445 -37.8564,7.40615 -16.8068,-6.45223 -30.0336,-23.76456 -37.0577,-48.50302 -2.4657,-8.68472 -3.0423,-14.19655 -2.9958,-28.6539 0.1696,-52.73061 19.1448,-87.92819 50.0333,-92.81092 z m -263.67452,22.78312 -4.8191,3.86176 c -16.65018,13.33559 -36.345,39.25142 -48.23417,63.47408 -6.79261,13.83925 -6.52587,13.68863 -18.77895,10.69251 -10.67376,-2.60977 -15.21136,-6.46202 -17.56076,-14.90649 -4.5803,-16.46416 -3.9111,-33.38283 1.8556,-46.83573 4.58,-10.6848 19.43822,-14.54327 59.9996,-15.58145 z m 22.90959,2.02499 c 2.5731,-0.0318 6.1588,0.27746 11.6418,0.91434 13.6233,1.58245 35.18769,5.58178 44.98559,8.34464 l 5.1875,1.46295 -11.3835,8.4362 c -12.83378,9.51169 -35.71589,32.00044 -53.96768,53.03712 -13.45371,15.50653 -12.016,14.83888 -28.3231,13.18537 -12.68402,-1.28601 -39.49491,-4.75563 -41.54332,-5.37579 -1.98946,-0.60233 -1.64706,-1.85522 2.52518,-9.24292 15.87389,-28.10728 45.41033,-59.60075 65.30813,-69.6325 1.43611,-0.72397 2.9964,-1.09699 5.5694,-1.12945 z m 68.54069,13.68822 c 3.8213,-0.33761 23.48471,10.93084 29.9097,17.26495 8.90591,8.77987 13.3869,18.99641 12.5829,28.6915 -1.3871,16.72604 -13.1164,23.28017 -47.6909,26.65039 -21.3468,2.08076 -63.97369,1.85591 -62.67808,-0.33087 2.23839,-3.77806 22.04109,-27.90337 33.0696,-40.29014 10.67089,-11.98543 30.48339,-30.31927 34.48938,-31.91591 0.0894,-0.0355 0.19404,-0.0588 0.3174,-0.0698 z m 202.30064,7.3121 c 7.1587,-0.087 13.6185,3.20224 19.4943,9.87753 13.9775,15.87939 14.5908,49.28854 1.2021,65.53144 -7.6705,9.30571 -19.8816,13.14448 -31.7599,9.98507 -18.2423,-4.85216 -28.2919,-20.86388 -26.8682,-42.80462 1.1101,-17.10608 7.1296,-28.07217 19.9058,-36.2644 6.4673,-4.14691 12.4581,-6.25728 18.0259,-6.32502 z m -146.30264,41.45459 c 0.19416,0.12005 0.15288,2.15594 -0.1078,6.2417 -1.6385,25.6998 -16.75471,34.6913 -66.59631,39.61245 -13.12639,1.29606 -68.84478,1.62336 -80.05598,0.47064 -42.29612,-4.34851 -78.03005,-9.72252 -88.40597,-13.29553 l -5.1042,-1.75609 2.7,-4.44267 c 2.1489,-3.53351 3.193,-4.18176 5.1042,-3.16781 5.5323,2.93497 38.66907,8.43152 69.18329,11.47486 22.59978,2.25397 90.27567,2.21019 107.71206,-0.0698 34.5236,-4.51454 50.6821,-14.29005 54.9627,-33.24446 0.28886,-1.27886 0.49123,-1.89543 0.60772,-1.82327 z m 53.53194,55.77753 c 0.1984,0.2379 1.1234,1.89998 2.0573,3.69227 2.2028,4.22787 1.1209,5.25834 -13.0267,12.40276 -20.82538,10.51654 -55.33334,20.24522 -88.12094,24.84046 -31.35629,4.39462 -80.87248,7.42021 -109.11848,6.66664 -19.52119,-0.52075 -25.12831,-0.28873 -25.12831,1.04615 0,3.22605 24.069,26.14357 36.48761,34.74224 6.81559,4.71915 13.1393,9.20754 14.054,9.97169 0.91458,0.7641 2.0952,1.3877 2.622,1.3877 0.52687,0 4.11399,1.4849 7.9736,3.2997 11.89509,5.5928 24.04899,10.4691 26.0936,10.4691 1.07175,0 4.03509,0.9053 6.5833,2.0117 l 4.63358,2.0115 -4.1307,-0.014 c -2.27188,-0.014 -9.70708,-1.4668 -16.52269,-3.2432 -32.24399,-8.4038 -53.28339,-19.87205 -74.02666,-40.3493 -9.15673,-9.03915 -21.82584,-26.7721 -23.75404,-33.24983 -0.88041,-2.95797 -0.64545,-3.20952 2.2724,-2.43364 1.79009,0.47603 11.93107,1.87779 22.53313,3.11411 23.82997,2.77883 81.50997,2.01866 108.08587,-1.42537 45.10729,-5.8453 80.86169,-15.75271 110.63523,-30.65191 5.1893,-2.5968 9.5985,-4.52721 9.7969,-4.2893 z m 33.2391,94.80631 6.9328,7.1992 c 10.3038,10.7034 21.759,24.7835 29.5117,36.2724 l 6.8818,10.2003 -3.5848,1.3634 c -1.9708,0.7493 -3.7693,1.3607 -3.9989,1.3607 -0.2295,0 -2.8234,-4.1295 -5.763,-9.1783 -5.3726,-9.2274 -24.3197,-30.7515 -27.0699,-30.7515 -0.8107,0 -6.2315,2.4512 -12.0478,5.4458 -20.87,10.7452 -45.6792,18.5545 -70.86954,22.3099 -22.2205,3.3125 -70.7431,1.597 -107.39739,-3.7972 -14.6968,-2.1628 -41.95209,-8.4851 -43.7943,-10.16 -0.61091,-0.5554 0.26215,-3.8386 1.9417,-7.2958 l 3.055,-6.2875 7.00541,2.8156 c 49.53648,19.8917 117.30429,21.1796 170.88222,3.2513 13.7955,-4.6162 29.7487,-11.8889 42.7321,-19.4836 z m -164.68634,18.0234 c 0.6239,0 1.2478,0.094 1.7211,0.285 0.94656,0.382 0.17212,0.6938 -1.7211,0.6938 -1.8932,0 -2.66769,-0.3118 -1.7211,-0.6938 0.47334,-0.191 1.09724,-0.285 1.7211,-0.285 z m 255.62824,49.4094 c 11.9977,0.013 22.595,0.5182 23.5497,1.124 1.299,0.8248 0.9525,1.7962 -1.3769,3.8591 -2.6206,2.3207 -5.2883,2.7967 -16.8803,3.0119 -16.6151,0.3084 -27.8415,1.9549 -49.24,7.2287 -19.3388,4.7661 -24.9592,7.4374 -31.967,15.1942 l -5.2897,5.8572 0.8713,-5.3812 c 1.0777,-6.6396 4.3929,-11.2562 11.397,-15.8746 15.4802,-10.207 37.7035,-15.0495 68.9359,-15.0194 z m 40.3789,3.5712 9.6813,2.3235 c 27.7514,6.6604 58.6054,21.6133 73.7147,35.7238 11.1242,10.3888 19.8944,21.6838 16.8615,21.7157 -0.983,0.014 -3.1624,0.3885 -4.8433,0.8391 -2.4643,0.6606 -3.6329,-0.1611 -6.04,-4.241 -4.093,-6.9369 -17.5741,-17.5342 -30.0738,-23.6438 -10.3854,-5.0762 -45.7285,-17.552 -54.2607,-19.1527 -4.0796,-0.7653 -4.975,-0.2757 -9.3666,5.1123 -8.4585,10.378 -20.0446,34.2275 -18.1309,37.3239 0.4963,0.8031 0.2049,1.001 -0.675,0.4572 -0.8535,-0.5274 -2.2398,-3.2593 -3.0819,-6.0696 -1.3271,-4.4302 -1.0601,-6.3658 2.025,-14.5623 4.5709,-12.1435 11.5382,-23.5284 18.6015,-30.3937 z m -400.90626,1.9147 c 2.76246,0 2.7813,0.1722 0.72875,6.196 -1.69701,4.9806 -2.74378,6.196 -5.33811,6.196 -1.77496,0 -7.44851,0.9647 -12.60716,2.1434 -39.18092,8.9524 -43.18192,10.3646 -59.03952,20.8227 -6.11,4.0295 -11.3766,7.3109 -11.7036,7.2905 -0.3272,-0.021 -2.6666,-1.7559 -5.1983,-3.8562 l -4.604,-3.8188 8.0462,-4.9294 c 12.5639,-7.6979 21.9754,-12.1142 38.085,-17.8646 13.55937,-4.8402 44.67205,-12.1796 51.63074,-12.1796 z m -166.36163,6.6774 4.4802,3.6386 c 17.5353,14.2395 29.0487,22.8936 52.67409,39.599 28.9866,20.4963 47.4739,41.3987 58.058,65.639 4.8578,11.1257 5.6426,15.2784 2.8694,15.2076 -0.9465,-0.024 -6.0583,-1.9018 -11.3593,-4.171 -5.301,-2.2691 -23.2377,-11.084 -39.8572,-19.5885 l -30.21629,-15.4604 -14.8796,-34.4115 c -8.1834,-18.9257 -16.4296,-38.0214 -18.3245,-42.4334 z m 524.08689,55.288 c 0.6655,0 2.3733,2.946 3.7972,6.5403 1.4238,3.5943 4.0302,9.9454 5.7926,14.1105 1.7625,4.1651 9.3515,22.4433 16.8615,40.6182 7.5098,18.175 23.3969,56.5057 35.307,85.1816 15.8908,38.2602 21.4597,53.112 20.9223,55.799 -2.3136,11.5682 -11.2057,28.3647 -21.1428,39.9298 l -4.015,4.6713 -3.9156,-8.8019 c -2.1537,-4.8404 -8.2327,-18.4057 -13.5107,-30.1437 -11.3096,-25.1514 -11.4901,-25.5541 -24.7975,-55.7641 -5.671,-12.8739 -12.9298,-29.6031 -16.1327,-37.176 -3.2028,-7.5729 -7.1988,-16.8669 -8.8799,-20.6534 -1.681,-3.7864 -4.8697,-11.1782 -7.0834,-16.4258 -4.7288,-11.2092 -10.9293,-18.0329 -18.1282,-19.9515 -3.4344,-0.9153 -32.708,-0.9482 -87.0965,-0.099 -45.05864,0.7028 -116.48634,1.2983 -158.72683,1.3232 l -76.80194,0.045 -7.96283,4.0177 c -4.37961,2.211 -10.31494,4.4626 -13.19071,5.0021 -5.03282,0.9441 -5.19063,0.8572 -4.23287,-2.2994 2.44785,-8.0674 9.9047,-19.6119 17.10625,-26.4809 9.8504,-9.3957 21.69826,-15.4189 38.5583,-19.6018 23.5788,-5.8502 37.0399,-6.5587 99.2302,-5.2306 141.23823,3.0165 184.06973,0.8111 217.34693,-11.1926 5.2157,-1.8815 10.0294,-3.4209 10.6952,-3.4181 z m 148.177,5.5022 c 4.0553,0 12.1617,24.0829 15.4255,45.8247 1.7746,11.8227 2.5046,25.4796 2.2401,41.9521 -0.1005,6.2461 -0.902,6.6895 -8.3555,4.6229 l -3.4422,-0.9547 -0.8821,-24.0984 c -0.9171,-25.0825 -2.8947,-36.5953 -8.3259,-48.4654 -2.8449,-6.2182 -3.2557,-6.5416 -7.2313,-5.7093 -19.7102,4.1264 -58.5503,25.0454 -79.1604,42.6379 l -7.4573,6.3655 -1.7426,-3.2056 c -1.6162,-2.9706 -1.1692,-3.7909 6.0911,-11.2275 17.8785,-18.3124 47.7019,-35.3672 76.1431,-43.5416 8.0361,-2.3095 15.5498,-4.2006 16.6975,-4.2006 z m -706.19129,2.5199 c 1.1204,-0.058 5.1772,1.6941 10.6359,4.647 6.3798,3.451 17.7974,9.5403 25.3703,13.5322 7.5729,3.992 20.2747,10.7876 28.2262,15.1028 7.9516,4.3153 20.96309,11.2645 28.91469,15.4416 7.9515,4.177 18.9494,9.9575 24.4398,12.8465 8.1636,4.2955 9.9824,5.8552 9.9824,8.5598 0,4.9935 4.7708,22.6696 10.9829,40.6855 8.9911,26.0753 11.4908,32.5022 64.34269,165.485 11.73799,29.5342 22.50629,56.64173 23.93159,60.23883 2.83989,7.1685 2.74199,7.2736 -4.2517,4.4616 -2.65055,-1.0658 -23.09737,-9.0127 -45.4374,-17.66033 -22.34008,-8.6474 -48.79518,-18.9403 -58.78678,-22.8718 l -18.1658,-7.14802 -2.3423,-6.13155 c -1.2878,-3.37213 -2.0951,-6.31543 -1.7964,-6.54283 0.2986,-0.2274 3.3932,-1.4697 6.8764,-2.7592 9.4823,-3.5102 17.077,-10.7715 21.9549,-20.9922 8.007,-16.7771 5.1794,-35.2615 -7.1695,-46.8815 -9.4501,-8.8925 -15.2531,-10.7915 -33.0023,-10.8054 l -16.01449,-0.014 -34.1534,-98.4476 c -18.7836,-54.1462 -34.4546,-99.3308 -34.8255,-100.4108 -0.073,-0.2132 0.029,-0.323 0.2878,-0.3362 z m 507.58569,62.2558 c 11.3348,0.029 12.95,0.6382 14.7666,2.173 3.3188,2.8038 11.2522,21.0872 51.0014,117.5546 29.5148,71.63 26.7396,63.861 23.3103,65.2463 -19.0887,7.7105 -31.9104,18.0048 -36.1057,28.99 -3.6761,9.62543 -2.2704,22.78 3.7999,35.5625 5.7386,12.0837 13.2527,18.92783 24.3752,22.20773 11.4074,3.364 30.8334,2.7612 44.5069,-1.3822 1.849,-0.5605 3.0632,0.7721 5.1634,5.6715 3.406,7.9462 3.4449,10.6273 0.1962,13.5672 -2.3202,2.0996 -13.4295,2.4253 -123.5759,3.6225 -66.5645,0.7233 -135.62949,1.3291 -153.47489,1.3473 l -32.4456,0.032 -2.4876,-5.1634 c -10.0763,-20.9094 -62.99938,-149.72843 -82.72899,-201.37013 -13.14279,-34.4013 -29.76622,-80.1319 -29.29119,-80.5803 0.84868,-0.8007 139.94538,-4.5345 259.94987,-6.9786 15.9403,-0.3246 26.239,-0.5176 33.04,-0.5002 z m -310.45921,11.3702 c 0.0992,-0.01 0.16121,-3e-4 0.18289,0.022 0.97915,0.9792 23.49053,53.7128 36.54943,85.6172 16.95271,41.4169 30.4631,75.8836 50.9987,130.11623 22.63929,59.7876 27.28889,73.4472 25.42139,74.6586 -5.18471,3.3632 -23.62289,5.5209 -32.26279,3.7757 -8.7251,-1.7623 -14.96439,-5.1596 -23.0602,-12.5588 -8.2379,-7.5289 -8.5302,-8.09 -25.3299,-48.28793 -35.98381,-86.1009 -63.35657,-156.6672 -76.31251,-196.7339 -4.3366,-13.4107 -8.5558,-31.2664 -7.6106,-32.2117 0.4019,-0.40179 5.1602,-0.10289 10.5741,0.66421 10.70587,1.5184 24.63402,0.186 34.86059,-3.3374 2.8181,-0.97081 5.29732,-1.678 5.98894,-1.7237 z m 509.08091,27.129 c 13.1763,0 17.5554,0.423 17.5554,1.7211 0,4.0781 -4.2327,37.4348 -5.4215,42.7293 -4.9599,22.0895 -7.4444,32.0873 -8.1834,32.9136 -0.4691,0.5242 -2.4895,-0.044 -4.4883,-1.2612 l -3.6332,-2.2106 2.536,-7.3739 c 4.0961,-11.9055 9.2426,-44.181 8.3581,-52.4133 -0.1364,-1.2691 -4.4319,-1.7196 -16.3613,-1.7157 -17.964,0 -35.1198,2.374 -50.676,6.9921 -5.664,1.6814 -10.5762,2.7758 -10.9183,2.4336 -0.3422,-0.3421 -1.5607,-2.8691 -2.7081,-5.6151 l -2.0868,-4.9912 15.4658,-3.5605 c 23.4582,-5.3992 41.1899,-7.6392 60.5616,-7.6482 z m -310.27894,30.2835 c -89.05909,0 -87.6128,-0.1115 -92.7223,7.1829 -4.1749,5.9606 -2.6624,13.2358 9.00361,43.2726 14.73279,37.9335 14.251,37.0042 20.97609,40.3331 5.5998,2.7719 7.6816,2.8384 87.66094,2.8345 78.827,0 82.0914,-0.10659 86.3328,-2.6919 5.1424,-3.1356 8.6728,-9.2402 8.6728,-14.9978 0,-4.5809 -23.3064,-61.8418 -27.9332,-68.6295 -1.6493,-2.4194 -4.4319,-5.0527 -6.1852,-5.8517 -2.1229,-0.9672 -30.7911,-1.4522 -85.80554,-1.4522 z m 0.0515,12.392 h 80.72554 l 2.3612,3.9989 c 1.2992,2.1993 2.3638,4.3337 2.3638,4.7438 0,0.4099 -34.3579,0.9339 -76.35028,1.1645 -55.51186,0.3045 -76.78646,0.855 -77.94476,2.0142 -1.98429,1.9858 -0.68098,6.3153 8.42531,28.0084 3.65569,8.7089 7.91179,19.0872 9.4581,23.0629 l 2.81289,7.2287 -4.456,-0.1078 c -2.45019,-0.059 -5.184,-0.4056 -6.07499,-0.7692 -0.89094,-0.3634 -7.28601,-14.934 -14.21,-32.37839 -12.03341,-30.3176 -12.48361,-31.83331 -10.21371,-34.3415 2.28411,-2.52391 5.456,-2.62481 83.1029,-2.62481 z m -355.31605,28.4333 c 0.1127,0.015 0.2033,0.058 0.2689,0.1291 0.524,0.5729 3.2374,8.4759 6.0292,17.5634 9.8824,32.167 9.7896,32.0544 23.5711,28.8125 15.42239,-3.628 26.82959,-2.3931 33.86029,3.6681 l 4.5878,3.9559 -4.6335,-2.2186 c -6.029,-2.8879 -17.332,-1.7789 -29.83179,2.9259 -12.1104,4.5583 -18.4676,4.5228 -23.9987,-0.1318 -5.9131,-4.9755 -7.551,-8.6391 -13.2069,-29.5144 l -4.924,-18.1765 3.7973,-3.9639 c 1.8274,-1.9074 3.6914,-3.152 4.4803,-3.0497 z m 615.50749,2.8265 9.2187,0.8605 c 16.118,1.5051 35.444,13.0755 39.9943,23.945 2.8382,6.7795 2.233,8.13301 -1.9308,4.3161 -4.9808,-4.5656 -11.9013,-8.4221 -20.1505,-11.23289 -7.6708,-2.61361 -9.1085,-2.18421 -9.1085,2.71339 0,6.2533 -4.2398,20.19051 -9.2133,30.289 -10.7037,21.7343 -30.6087,41.1546 -58.2543,56.8343 -13.179,7.47483 -27.1144,13.81588 -28.1294,12.80078 -0.4328,-0.4329 -0.7854,-3.22055 -0.7854,-6.19595 0,-10.33403 8.2137,-17.22693 28.7507,-24.12783 13.8154,-4.6422 23.4324,-11.9186 33.559,-25.3892 8.4231,-11.20479 13.0645,-19.83939 17.2326,-32.0476 4.7179,-13.81849 4.9493,-17.20849 1.7292,-25.37829 z M 425.88645,876.86724 c -6.76158,-0.178 -13.76356,0.7675 -19.08006,2.7591 -8.4241,3.15615 -20.2367,12.78437 -24.4559,19.93537 -3.3148,5.6181 -2.5239,7.2824 1.6027,3.3749 1.6234,-1.537 6.6704,-4.7512 11.2142,-7.1426 7.6721,-4.0382 9.2432,-4.3484 22.03018,-4.3511 h 13.76888 l 16.52268,8.6431 c 10.4786,5.4803 19.2929,9.1006 24.0957,9.8992 10.3474,1.7205 25.7886,0.4965 36.8882,-2.9259 v 0 c 11.9355,-3.6802 20.9296,-8.2486 31.612,-16.0546 8.1504,-5.95602 11.4431,-10.06562 6.196,-7.73432 -7.661,3.40392 -26.8515,9.32512 -35.7265,11.02302 -21.8728,4.1851 -36.4031,2.152 -54.8041,-7.6614 -6.8156,-3.63492 -15.0815,-7.33027 -18.3675,-8.21297 -3.4686,-0.9319 -7.43948,-1.4421 -11.49648,-1.549 z" />
  </g>
</svg>
